<?xml version="1.0" encoding="UTF-8" standalone="no"?>
<!DOCTYPE svg PUBLIC "-//W3C//DTD SVG 1.1//EN" "http://www.w3.org/Graphics/SVG/1.1/DTD/svg11.dtd">
<svg width="100%" height="100%" viewBox="0 0 809 456" version="1.1" xmlns="http://www.w3.org/2000/svg" xmlns:xlink="http://www.w3.org/1999/xlink" xml:space="preserve" xmlns:serif="http://www.serif.com/" style="fill-rule:evenodd;clip-rule:evenodd;stroke-linejoin:round;stroke-miterlimit:2;">
    <g id="especiales.png" transform="matrix(1,0,0,1,144,0)">
        <path d="M272.5,0L281.5,0C283.053,0.768 282.813,1.079 284.507,1.486C284.574,1.502 285.091,1.627 285.329,1.757C287.017,2.681 291.386,5.074 300.226,20.651C305.322,29.629 305.064,29.707 310.179,38.658C319.827,57.94 319.762,57.943 320.251,58.61C322.954,64.205 325.284,70.239 327.078,72.702C328.426,76.432 350.089,120.793 352.213,124.671C355.019,129.798 355.214,129.621 358.053,134.768C362.961,143.668 363.606,143.733 373.507,146.21C375.177,146.233 376.847,146.255 378.517,146.277C380.356,146.898 380.152,147.412 382.484,147.616C387.031,148.011 386.939,148.119 391.514,148.636C392.175,148.645 392.836,148.653 393.496,148.662C399.5,149.603 399.401,149.494 405.505,150.146C420.49,150.862 420.631,151.081 421.504,151.214C423.346,151.275 425.626,151.35 444.507,152.323C452.554,153.04 456.452,153.264 457.492,153.324C459.83,153.343 462.169,153.362 464.507,153.381C476.27,156.236 476.479,153.894 488.508,155.577C489.839,155.572 491.169,155.568 492.5,155.563C497.48,156.659 497.425,156.526 502.5,157.104C508.042,157.569 507.958,157.549 513.512,158.176C521.805,159.18 521.795,159.132 522.514,159.229C522.998,159.279 525.486,159.539 528.506,160.291L530.526,160.366C530.901,160.626 531.276,160.886 531.651,161.146C546.036,163.64 546.625,167.898 548.154,173.509C548.061,175.187 547.968,176.865 547.875,178.543C544.879,192.768 527.068,200.824 518.663,208.672C511.589,215.279 497.142,226.593 495.224,228.094C491.732,230.83 461.909,254.186 452.297,263.203C441.131,272.482 441.151,272.359 440.239,273.219C431.708,281.295 423.481,285.208 420.453,295.501L420.5,298.5C421.064,301.049 420.965,301.006 421.505,303.499C422.601,308.565 422.565,308.466 423.642,313.474C424.253,315.51 424.156,315.439 424.769,317.443C425.115,319.111 425.461,320.778 425.807,322.446C427.761,330.509 427.888,330.385 429.632,338.479C429.806,339.061 429.777,339.025 430.693,343.464C431.332,345.396 431.332,345.383 431.384,345.551C431.69,346.555 431.548,346.499 431.839,347.45C432.188,349.113 432.537,350.777 432.886,352.441C433.25,354.102 433.614,355.763 433.978,357.424C435.934,364.956 436.014,364.863 437.609,372.483C437.801,373.197 437.993,373.912 438.185,374.626C438.399,375.568 438.613,376.511 438.827,377.453L439.778,381.434C440.495,384.521 440.487,384.455 441.223,387.52C441.424,388.468 441.625,389.416 441.826,390.365C442.18,391.487 442.378,391.369 442.499,392.5C442.687,394.256 445.476,405.346 445.756,406.458C446.431,409.451 447.106,412.443 447.781,415.436C448.332,417.619 448.32,417.559 449.299,419.561C449.42,420.525 449.482,420.427 451.624,431.485C451.978,433.148 452.331,434.811 452.685,436.474C453.056,438.467 453.427,440.461 453.799,442.454C453.94,444.133 454.08,445.812 454.221,447.491C454.043,449.203 453.649,451.705 448.502,452.605C446.326,453.137 438.186,455.126 420.504,452.485C419.056,451.754 419.115,451.732 417.51,451.437C416.193,451.06 414.876,450.683 413.559,450.306C383.493,440.312 377.261,434.51 371.416,432.687C371.184,432.615 370.978,433.102 370.757,433.001C370.461,432.866 370.652,432.741 367.422,430.674C366.156,429.863 365.838,430.492 350.683,422.137C338.296,415.308 337.771,416.456 325.548,409.407L325.218,408.984C324.715,408.722 321.486,407.04 318.786,406.015C313.458,402.959 295.726,394.109 293.707,393.101C287.148,389.827 287.383,389.451 281.495,387.564C277.35,385.803 277.269,386.717 274.507,387.672C266.741,388.184 266.118,390.332 262.672,390.906C262.398,390.952 240.262,402.164 238.317,403.15C211.499,416.734 211.626,416.865 209.281,418.01C190.738,427.061 191.126,427.931 189.361,428.235C186.323,428.759 170.222,437.797 168.6,438.708C156.68,445.399 141.064,450.075 138.584,450.818C138.028,450.965 138.083,450.979 135.384,452.138C130.821,453.229 125.397,453.651 124.522,453.72C122.649,453.865 122.885,454.413 121.5,454.999L111.5,454.999C111.008,454.852 110.904,454.056 110.412,453.908C106.507,452.738 106.42,453.443 102.581,452.286C99.585,451.383 99.643,446.15 99.382,444.506C99.763,439.418 99.801,439.499 100.418,434.493C100.517,433.284 100.937,428.152 102.748,419.507C103.249,417.491 103.749,415.476 104.249,413.46L105.205,408.467C107.786,395.829 107.984,395.983 111.218,383.442C111.595,381.783 111.972,380.124 112.349,378.466C112.733,377.01 113.385,373.069 115.334,367.452C116.567,361.823 116.359,361.873 118.196,356.423L119.246,352.453L119.783,349.564L121.131,344.482L121.359,342.464C121.942,341.642 121.468,341.57 125.04,330.416C125.397,329.089 125.755,327.763 126.113,326.437C126.458,324.777 126.803,323.116 127.149,321.455C127.355,320.504 127.562,319.553 127.768,318.602C127.936,317.894 128.104,317.185 128.273,316.477C128.554,315.523 128.366,315.571 128.664,314.562C128.714,314.392 128.72,314.408 129.421,312.481C130.52,307.504 131.485,302.374 131.651,301.492L131.719,300.497C132.118,297.433 132.479,297.48 131.749,294.456C127.145,285.659 107.118,270.263 102.726,266.249C102.206,265.767 70.572,239.653 69.431,238.581C68.557,237.759 68.284,238.109 57.796,229.112C56.696,228.207 56.799,228.19 55.668,227.27C55.106,226.734 29.625,206.167 24.493,201.508C24.199,201.24 24.172,201.359 20.694,198.299C17.213,195.159 17.243,195.27 13.699,192.254C6.749,184.499 1.935,183.477 4.069,172.374C4.738,168.889 4.776,168.799 7.601,166.662C14.291,162.835 14.13,162.601 21.532,160.594L22.473,160.358C26.581,160.128 26.466,159.727 30.504,158.945C35.017,158.634 34.925,158.738 39.482,158.185C40.359,158.071 44.506,157.531 50.465,156.914C56.11,156.394 56.059,156.661 61.5,155.564L64.5,155.582C71.168,155.532 81.974,154.574 83.49,154.44C85.563,154.256 85.408,153.927 87.489,153.371C89.53,153.237 91.571,153.103 93.612,152.969C94.47,153.126 95.637,153.339 104.491,152.316C123.944,151.273 124.731,151.25 126.493,151.198C131.146,150.734 143.049,150.257 144.49,150.199C151.047,149.529 150.996,149.809 157.502,148.627L159.501,148.637C166.551,148.772 173.314,147.699 174.502,147.511C176.115,147.255 175.926,146.939 177.483,146.314C178.55,146.301 185.997,146.209 190.143,142.141C192.27,140.054 210.461,103.302 210.846,102.675C211.214,102.075 211.051,102.021 211.575,101.548C212.604,100.617 228.499,67.657 229.93,64.69C231.413,61.614 231.78,61.861 232.879,58.694C233.985,56.649 237.994,49.236 245.341,32.435L245.718,31.592C250.188,22.554 252.124,18.011 254.291,15.359C257.46,11.48 256.329,10.623 262.394,5.364C263.992,3.978 264.113,4.222 265.665,2.81C266.64,2.447 267.614,2.085 268.589,1.722C271.745,1.135 271.464,0.518 272.5,0Z" style="fill-opacity:1;"/>
        <path d="M274.507,387.672C270.966,391.958 265.714,390.917 261.566,393.583C258.011,395.868 257.704,394.758 255.481,395.472C255.18,395.569 255.6,396.156 255.426,396.419C254.888,397.233 247.13,400.233 246.216,401.34C244.794,403.063 241.591,402.134 241.389,402.326C241.123,402.578 241.607,403.103 241.43,403.424C241.075,404.069 239.703,404.503 239.534,404.557C238.011,405.038 236.704,406.206 235.539,406.591C233.235,407.353 231.664,409.069 231.384,409.151C228.108,410.108 228.491,410.762 225.385,412.209C216.345,416.423 216.371,416.418 215.521,416.562C213.665,416.876 214.061,417.5 212.473,418.472C205.475,422.756 201.561,422.627 200.311,424.231C198.793,426.18 193.742,427.803 193.679,427.839C189.16,430.412 188.704,429.041 188.408,429.364C188.161,429.633 188.619,430.133 188.452,430.457C188.213,430.918 177.363,436.738 176.386,437.261C173.901,438.594 173.085,437.178 171.461,439.458C170.531,440.762 156.964,445.955 155.415,447.419C154.61,448.179 143.108,451.653 141.54,451.932C138.747,450.918 138.825,450.893 138.584,450.818C141.064,450.075 156.68,445.399 168.6,438.708C170.222,437.797 186.323,428.759 189.361,428.235C191.126,427.931 190.738,427.061 209.281,418.01C211.626,416.865 211.499,416.734 238.317,403.15C240.262,402.164 262.398,390.952 262.672,390.906C266.118,390.332 266.741,388.184 274.507,387.672Z" style="fill:rgb(177,177,177);fill-opacity:0.11;"/>
        <path d="M547.875,178.543C548.181,180.412 549.057,182.127 549.206,182.419C544.432,191.806 542.85,190.344 542.569,190.575C542.34,190.764 542.676,191.256 542.458,191.458C542.232,191.667 541.732,191.294 541.535,191.532C541.323,191.79 541.637,192.206 541.57,192.533C541.513,192.815 541.36,193.564 539.454,195.451C536.255,198.62 533.582,197.883 532.707,199.7C531.424,202.363 529.994,200.958 528.457,203.463C528.335,203.663 524.748,206.314 524.571,206.53C521.827,209.898 520.903,208.756 517.856,211.776C511.268,218.303 510.524,217.381 503.889,223.851C500.492,227.164 498.689,226.357 498.501,226.501C498.251,226.692 498.634,227.194 498.441,227.443C498.271,227.661 497.808,227.409 497.631,227.621C497.586,227.675 497.852,229.504 495.542,230.589C495.253,230.725 494.941,230.812 494.654,230.953C493.09,231.721 492.969,231.423 491.753,232.724C491.091,233.432 487.248,237.542 482.562,240.615C478.088,243.549 478.867,244.359 477.449,245.435C470.73,250.539 470.933,250.767 470.342,251.199C465.914,254.429 466.109,254.618 465.725,254.895C458.17,260.355 455.856,263.206 451.565,266.615C451.649,266.349 451.571,266.385 452.297,263.203C461.909,254.186 491.732,230.83 495.224,228.094C497.142,226.593 511.589,215.279 518.663,208.672C527.068,200.824 544.879,192.768 547.875,178.543Z" style="fill:rgb(183,183,183);fill-opacity:0.08;"/>
        <path d="M232.144,56.366C232.389,57.142 232.634,57.918 232.879,58.694C231.78,61.861 231.413,61.614 229.93,64.69C228.499,67.657 212.604,100.617 211.575,101.548C211.051,102.021 211.214,102.075 210.846,102.675C210.461,103.302 192.27,140.054 190.143,142.141C185.997,146.209 178.55,146.301 177.483,146.314C183.14,141.56 188.867,143.683 190.38,138.447C191.472,134.669 196.325,128.561 196.467,127.487C196.914,124.117 198.385,124.685 199.067,121.334C199.799,117.736 202.004,118.562 203.439,113.471C203.604,112.884 203.89,113.019 206.414,106.458C207.885,102.637 209.193,103.375 210.413,99.461C210.57,98.955 211.004,99.153 213.087,93.406C214.664,89.055 216.025,89.805 217.419,85.463C217.581,84.958 217.926,85.195 220.079,79.395C221.451,75.7 222.404,76.263 223.841,72.595C223.982,72.235 228.455,62.495 228.857,61.617C229.778,59.612 231.328,60.624 231.504,58.502C231.519,58.324 231.552,58.344 232.144,56.366Z" style="fill:rgb(175,175,175);fill-opacity:0.09;"/>
        <path d="M20.694,198.299C24.172,201.359 24.199,201.24 24.493,201.508C29.625,206.167 55.106,226.734 55.668,227.27C56.567,229.171 56.481,229.233 56.639,229.324C56.979,229.519 57.456,228.917 57.796,229.112C68.284,238.109 68.557,237.759 69.431,238.581C70.572,239.653 102.206,265.767 102.726,266.249C101.975,266.354 101.224,266.46 100.473,266.566C95.516,263.611 96.666,262.113 91.428,259.621C90.335,259.101 90.468,258.969 86.176,254.818C85.625,254.285 85.801,254.262 85.278,253.722C83.412,251.793 82.624,252.805 81.136,250.632C79.85,248.755 72.274,244.412 70.755,242.366C69.416,240.563 68.928,241.146 67.54,239.463C65.937,237.518 65.034,238.535 63.813,236.356C62.333,233.716 59.533,233.675 57.497,231.503C54.152,227.933 51.276,227 49.391,224.554C49.254,224.376 35.725,214.097 34.475,212.525C32.011,209.426 31.037,210.549 28.517,207.483C25.843,204.229 23.174,205.704 20.754,199.272L20.694,198.299Z" style="fill:rgb(187,187,187);fill-opacity:0.09;"/>
        <path d="M325.548,409.407C337.771,416.456 338.296,415.308 350.683,422.137C365.838,430.492 366.156,429.863 367.422,430.674C370.652,432.741 370.461,432.866 370.757,433.001C370.978,433.102 371.184,432.615 371.416,432.687C377.261,434.51 383.493,440.312 413.559,450.306C415.505,451.035 415.404,451.256 417.51,451.437C419.115,451.732 419.056,451.754 420.504,452.485C417.727,452.289 417.83,452.226 417.597,452.214C409.188,452.365 409.576,450.564 401.521,448.352C397.345,447.205 398.224,446.047 397.556,445.408C397.539,445.391 394.234,445.764 391.652,444.216C387.137,441.507 386.51,442.876 382.35,439.728C381.627,439.181 382.292,438.87 381.66,438.208C381.404,437.939 380.929,438.361 380.558,438.357C378.887,438.342 379.036,438.09 377.45,437.587C376.473,437.277 369.275,434.995 365.912,432.008C363.486,429.855 363.072,430.571 362.633,430.219C361.364,429.202 357.335,428.597 353.279,425.868C347.394,421.908 347.103,422.604 346.611,422.248C342.725,419.444 341.678,421.185 338.404,417.572C336.78,415.78 336.181,416.818 334.35,415.854C328.99,413.032 327.06,413.823 325.712,410.227L325.548,409.407Z" style="fill:rgb(175,175,175);fill-opacity:0.11;"/>
        <path d="M327.546,71.478C333.468,77.059 330.628,78.838 334.252,83.628C335.343,85.071 334.13,86.22 336.331,87.792C337.703,88.772 341.423,99.608 342.586,101.43C345.288,105.664 345.101,105.687 346.808,110.378C347.659,112.715 348.572,112.188 349.169,114.583C349.45,115.708 348.924,115.99 350.326,116.797C352.913,118.284 350.806,119.723 355.872,127.294C356.354,128.014 355.684,128.435 355.686,128.443C355.81,129.044 356.453,128.626 360.246,134.611C363.365,139.531 363.276,143.112 372.498,143.73C374.302,143.851 374.176,144.519 373.507,146.21C363.606,143.733 362.961,143.668 358.053,134.768C355.214,129.621 355.019,129.798 352.213,124.671C350.089,120.793 328.426,76.432 327.078,72.702L327.546,71.478Z" style="fill:rgb(168,168,168);fill-opacity:0.11;"/>
        <path d="M263.478,2.448C264.207,2.568 264.936,2.689 265.665,2.81C264.113,4.222 263.992,3.978 262.394,5.364C256.329,10.623 257.46,11.48 254.291,15.359C252.124,18.011 250.188,22.554 245.718,31.592C245.592,31.873 245.467,32.154 245.341,32.435C237.994,49.236 233.985,56.649 232.879,58.694C232.634,57.918 232.389,57.142 232.144,56.366C232.2,56.25 236.935,44.615 238.78,42.649C239.384,42.005 243.258,30.517 244.556,29.557C244.933,29.279 247.057,27.709 247.536,24.518C248.246,19.786 252.487,14.581 252.545,14.553C252.847,14.404 253.337,14.799 253.556,14.543C253.759,14.305 252.609,13.867 254.997,10.9C255.504,10.269 257.455,5.8 259.473,5.426C259.643,5.395 260.424,5.25 261.329,4.322C262.339,3.286 262.215,3.272 263.478,2.448Z" style="fill:rgb(184,184,184);fill-opacity:0.1;"/>
        <path d="M281.5,0L287.5,0C291.37,5.628 293.94,6.651 294.613,8.426C294.996,9.436 298.858,15.041 299.246,15.604C302.896,20.901 309.839,33.408 310.833,36.393C310.615,37.148 310.397,37.903 310.179,38.658C305.064,29.707 305.322,29.629 300.226,20.651C291.386,5.074 287.017,2.681 285.329,1.757C285.091,1.627 284.574,1.502 284.507,1.486C282.813,1.079 283.053,0.768 281.5,0Z" style="fill:rgb(177,177,177);fill-opacity:0.09;"/>
        <path d="M100.473,266.566C101.224,266.46 101.975,266.354 102.726,266.249C107.118,270.263 127.145,285.659 131.749,294.456C131.338,297.481 131.527,297.396 131.719,300.497C131.631,300.098 131.039,299.939 130.951,299.54C130.514,297.561 131.569,297.216 129.136,293.696C128.247,292.41 124.019,286.296 115.291,279.898C114.039,278.98 109.938,274.065 108.442,273.618C107.059,273.206 102.357,267.499 100.473,266.566Z" style="fill:rgb(180,180,180);fill-opacity:0.11;"/>
        <path d="M281.495,387.564C287.383,389.451 287.148,389.827 293.707,393.101C295.726,394.109 313.458,402.959 318.786,406.015C317.988,406.309 317.189,406.603 316.391,406.897C312.607,405.118 312.611,405.255 309.35,402.722C308.955,402.415 308.445,403.707 303.618,400.23C302.68,399.554 296.971,398.024 295.775,396.34C295.436,395.863 295.427,395.85 289.348,392.856C283.086,389.771 282.065,390.587 281.495,387.564Z" style="fill:rgb(177,177,177);fill-opacity:0.1;"/>
        <path d="M440.239,273.219L441.45,273.436C440.35,277.319 433.183,281.223 432.695,281.691C424.429,289.614 423.662,292.314 423.333,293.472C422.628,295.956 421.229,295.261 420.453,295.501C423.481,285.208 431.708,281.295 440.239,273.219Z" style="fill:rgb(188,188,188);fill-opacity:0.07;"/>
        <path d="M109.712,380.504C110.903,382.73 110.909,382.653 111.218,383.442C107.984,395.983 107.786,395.829 105.205,408.467C105.11,408.141 105.07,408.217 103.683,404.502C105.929,397.646 106.452,390.514 109.139,384.355C109.263,384.07 109.181,384.07 109.712,380.504Z" style="fill:rgb(170,170,170);fill-opacity:0.12;"/>
        <path d="M6.855,166.86L7.601,166.662C4.776,168.799 4.738,168.889 4.069,172.374C1.935,183.477 6.749,184.499 13.699,192.254C12.991,191.978 12.284,191.703 11.576,191.427C11.134,191.312 8.341,190.586 6.776,188.345C5.588,186.644 6.63,186.587 6.536,186.468C6.337,186.213 5.827,186.627 5.566,186.435C5.52,186.401 4.341,184.807 4.236,184.665C1.772,181.333 2.137,178.917 2.068,178.517C2.536,175.456 3.048,175.455 1.935,172.612C4.262,164.761 6.463,166.868 6.855,166.86Z" style="fill:rgb(166,166,166);fill-opacity:0.13;"/>
        <path d="M310.833,36.393C311.198,36.97 310.52,37.388 312.343,38.782C312.418,38.839 313.09,39.353 313.165,39.623C313.429,40.573 313.062,41.644 313.396,42.572C313.452,42.726 314.305,41.378 315.133,43.651C315.342,44.224 317.154,49.195 318.21,50.629C320.442,53.658 320.164,53.804 320.365,57.573L320.251,58.61C319.762,57.943 319.827,57.94 310.179,38.658C310.397,37.903 310.615,37.148 310.833,36.393Z" style="fill:rgb(174,174,174);fill-opacity:0.11;"/>
        <path d="M534.534,159.72C537.015,160.014 537.073,159.619 539.349,160.773C546.961,164.632 547.197,164.717 548.835,169.328C548.252,172.361 548.173,172.291 548.154,173.509C546.625,167.898 546.036,163.64 531.651,161.146C532.152,160.996 532.114,160.971 534.534,159.72Z" style="fill:rgb(180,180,180);fill-opacity:0.11;"/>
        <path d="M464.507,153.381L465.505,153.413C472.031,153.861 471.986,153.837 478.465,153.072C489.419,150.969 488.458,155.46 488.508,155.577C476.479,153.894 476.27,156.236 464.507,153.381Z" style="fill:rgb(206,206,206);fill-opacity:0.1;"/>
        <path d="M433.561,150.006C434.4,149.937 434.791,149.057 437.678,150.283C439.29,150.968 440.739,150.871 450.507,150.724C450.034,150.877 447.497,151.696 444.507,152.323C425.626,151.35 423.346,151.275 421.504,151.214C427.563,150.598 427.479,150.609 433.561,150.006Z" style="fill:rgb(128,128,128);fill-opacity:0.08;"/>
        <path d="M442.442,386.521C443.426,388.938 442.032,389.312 443.477,391.515C446.977,396.853 445.287,397.415 447.242,403.515C446.746,404.496 446.251,405.477 445.756,406.458C445.476,405.346 442.687,394.256 442.499,392.5C442.378,391.369 442.18,391.487 441.826,390.365C442.385,388.446 442.278,388.495 442.442,386.521Z" style="fill:rgb(177,177,177);fill-opacity:0.1;"/>
        <path d="M75.539,153.042C81.498,153.887 81.456,153.901 87.489,153.371C85.408,153.927 85.563,154.256 83.49,154.44C81.974,154.574 71.168,155.532 64.5,155.582C71.095,151.544 71.463,152.849 75.539,153.042Z" style="fill:rgb(207,207,207);fill-opacity:0.12;"/>
        <path d="M434.772,353.388C435.459,354.876 435.051,354.889 435.152,356.532C435.228,357.751 435.482,357.549 436.214,358.651C437.241,360.197 438.86,368.122 439.307,369.509C438.557,371.09 438.559,371.024 437.609,372.483C436.014,364.863 435.934,364.956 433.978,357.424C434.257,355.576 434.697,353.708 434.772,353.388Z" style="fill:rgb(162,162,162);fill-opacity:0.14;"/>
        <path d="M114.498,149.694C120.482,150.708 120.415,150.704 126.493,151.198C124.731,151.25 123.944,151.273 104.491,152.316C101.06,151.406 99.875,150.888 99.49,150.719C109.295,151.006 109.319,150.766 111.599,149.77C111.599,149.77 114.266,149.7 114.498,149.694Z" style="fill:rgb(129,129,129);fill-opacity:0.08;"/>
        <path d="M102.069,415.466C102.653,418.407 102.729,418.325 102.748,419.507C100.937,428.152 100.517,433.284 100.418,434.493C100.296,434.166 100.277,434.242 98.656,430.497C99.225,421.602 101.723,420.419 102.069,415.466Z" style="fill:rgb(191,191,191);fill-opacity:0.08;"/>
        <path d="M131.5,148.672C132.534,148.828 138.504,149.732 144.49,150.199C143.049,150.257 131.146,150.734 126.493,151.198C120.415,150.704 120.482,150.708 114.498,149.694C120.558,149.75 120.456,149.806 126.492,149.929C129.113,149.982 128.827,148.881 131.5,148.672Z" style="fill:rgb(93,93,93);fill-opacity:0.32;"/>
        <path d="M111.5,454.999L102.5,454.999C102.135,454.685 102.804,453.868 102.439,453.554C100.974,452.295 97.145,453.888 98.071,447.497C98.338,446.826 98.605,446.154 98.872,445.482L99.382,444.506C99.643,446.15 99.585,451.383 102.581,452.286C106.42,453.443 106.507,452.738 110.412,453.908C110.904,454.056 111.008,454.852 111.5,454.999Z" style="fill:rgb(128,128,128);fill-opacity:0.24;"/>
        <path d="M21.532,160.594C14.13,162.601 14.291,162.835 7.601,166.662L6.855,166.86C6.974,162.649 9.673,164.673 12.553,161.551C12.762,161.325 17.122,159.109 20.471,159.837C20.895,159.93 21.107,160.502 21.532,160.594Z" style="fill:rgb(177,177,177);fill-opacity:0.09;"/>
        <path d="M320.365,57.573C322.425,58.951 322.842,58.533 323.6,60.446C327.174,69.471 327.375,70.557 327.546,71.478L327.078,72.702C325.284,70.239 322.954,64.205 320.251,58.61L320.365,57.573Z" style="fill:rgb(138,138,138);fill-opacity:0.2;"/>
        <path d="M416.503,148.681C419.178,148.793 419.173,148.726 419.392,148.802C426.18,151.155 426.342,149.739 433.561,150.006C427.479,150.609 427.563,150.598 421.504,151.214C420.631,151.081 420.49,150.862 405.505,150.146C411.09,149.684 411.013,149.643 416.503,148.681Z" style="fill:rgb(100,100,100);fill-opacity:0.3;"/>
        <path d="M427.227,318.584C427.358,323.728 428.148,323.485 428.194,323.591C427.291,325.524 427.257,325.535 428.012,327.586C431.097,330.61 429.934,331.574 431.276,335.509C430.728,336.499 430.18,337.489 429.632,338.479C427.888,330.385 427.761,330.509 425.807,322.446C426.258,320.569 427.083,318.88 427.227,318.584Z" style="fill:rgb(153,153,153);fill-opacity:0.16;"/>
        <path d="M420.5,298.5C422.53,299.394 423.12,298.977 423.26,300.508C423.333,301.322 423.774,306.17 425.309,310.516C424.753,311.502 424.198,312.488 423.642,313.474C422.565,308.466 422.601,308.565 421.505,303.499C420.965,301.006 421.064,301.049 420.5,298.5Z" style="fill:rgb(172,171,172);fill-opacity:0.11;"/>
        <path d="M170.484,145.695C172.19,146.252 172.116,147.159 177.483,146.314C175.926,146.939 176.115,147.255 174.502,147.511C173.314,147.699 166.551,148.772 159.501,148.637C162.473,146.263 164.104,145.744 170.484,145.695Z" style="fill:rgb(195,195,195);fill-opacity:0.08;"/>
        <path d="M452.297,263.203C451.571,266.385 451.649,266.349 451.565,266.615C443.65,273.174 442.419,273.321 441.45,273.436L440.239,273.219C441.151,272.359 441.131,272.482 452.297,263.203Z" style="fill:rgb(158,158,158);fill-opacity:0.18;"/>
        <path d="M131.5,148.672C141.822,148.711 141.988,149.77 146.641,147.877C146.778,147.821 146.777,147.893 148.472,148.097C152.53,148.532 152.434,148.561 156.503,148.635L157.502,148.627C150.996,149.809 151.047,149.529 144.49,150.199C138.504,149.732 132.534,148.828 131.5,148.672Z" style="fill:rgb(84,84,84);fill-opacity:0.29;"/>
        <path d="M123.928,326.636C124.845,330.155 124.985,330.105 125.04,330.416C121.468,341.57 121.942,341.642 121.359,342.464C121.314,342.304 120.79,340.456 120.79,340.456C121.885,335.611 119.799,334.801 123.273,331.288C123.537,331.021 123.824,330.731 123.928,326.636Z" style="fill:rgb(155,155,155);fill-opacity:0.2;"/>
        <path d="M116.831,353.593C118.057,356.099 118.053,356.063 118.196,356.423C116.359,361.873 116.567,361.823 115.334,367.452C115.191,367.222 115.219,367.235 113.703,364.488C114.149,359.658 115.82,357.615 116.213,357.134C116.395,356.911 116.673,356.571 116.831,353.593Z" style="fill:rgb(175,175,175);fill-opacity:0.12;"/>
        <path d="M450.153,416.6C450.101,421.725 451.215,421.354 451.455,421.549C451.703,421.75 453.068,425.539 453.323,428.488C452.757,429.487 452.19,430.486 451.624,431.485C449.482,420.427 449.42,420.525 449.299,419.561C449.561,417.996 449.442,418.044 450.153,416.6Z" style="fill:rgb(138,138,138);fill-opacity:0.18;"/>
        <path d="M393.496,148.662L394.496,148.639C397.175,148.447 399.853,148.255 402.532,148.063C404.233,147.882 404.231,147.814 404.369,147.867C407.546,149.081 407.602,148.775 416.503,148.681C411.013,149.643 411.09,149.684 405.505,150.146C399.401,149.494 399.5,149.603 393.496,148.662Z" style="fill:rgb(86,86,86);fill-opacity:0.3;"/>
        <path d="M113.703,364.488C115.219,367.235 115.191,367.222 115.334,367.452C113.385,373.069 112.733,377.01 112.349,378.466C111.84,377.515 111.332,376.564 110.824,375.613C111.689,373.934 113.244,368.111 113.421,367.449C113.482,367.219 113.442,367.229 113.703,364.488Z" style="fill:rgb(135,135,135);fill-opacity:0.15;"/>
        <path d="M132.5,454.999L121.5,454.999C122.885,454.413 122.649,453.865 124.522,453.72C125.397,453.651 130.821,453.229 135.384,452.138C136.431,452.274 137.478,452.41 138.525,452.545C136.534,453.275 136.528,452.98 134.414,453.056C134.196,453.064 134.275,453.197 132.5,454.999Z" style="fill:rgb(109,109,109);fill-opacity:0.25;"/>
        <path d="M131.651,301.492C131.485,302.374 130.52,307.504 129.421,312.481C128.436,311.047 128.407,311.13 127.7,309.509C128.721,306.605 128.532,306.634 128.761,303.516C128.92,301.358 129.532,301.626 131.651,301.492Z" style="fill:rgb(175,175,175);fill-opacity:0.17;"/>
        <path d="M11.576,191.427C12.284,191.703 12.991,191.978 13.699,192.254C17.243,195.27 17.213,195.159 20.694,198.299L20.754,199.272C20.467,199.065 19.988,199.343 19.701,199.136C19.499,198.99 19.774,198.52 19.554,198.405C18.834,198.028 18.675,198.851 17.303,197.913C15.111,196.416 15.839,195.499 13.441,194.599C11.514,193.876 11.841,193.485 11.576,191.427Z" style="fill:rgb(151,151,151);fill-opacity:0.16;"/>
        <path d="M378.517,146.277C382.027,146.872 381.985,146.626 385.439,146.057C389.535,145.748 391.23,144.544 391.514,148.636C386.939,148.119 387.031,148.011 382.484,147.616C380.152,147.412 380.356,146.898 378.517,146.277Z" style="fill:rgb(149,149,149);fill-opacity:0.26;"/>
        <path d="M121.131,344.482L119.783,349.564C119.402,350.337 118.88,349.734 118.502,350.5C118.463,350.579 118.442,350.621 118.8,351.559C118.919,351.87 119.128,352.142 119.246,352.453L118.196,356.423C118.053,356.063 118.057,356.099 116.831,353.593C119.618,346.637 117.049,342.756 121.131,344.482Z" style="fill:rgb(139,139,139);fill-opacity:0.18;"/>
        <path d="M41.514,155.692C46.692,155.791 46.708,156.437 51.59,154.791C51.736,154.742 51.731,154.809 53.496,155.03C56.997,155.416 56.909,155.526 60.5,155.555L61.5,155.564C56.059,156.661 56.11,156.394 50.465,156.914C41.652,156.339 41.807,155.771 41.514,155.692Z" style="fill:rgb(87,87,87);fill-opacity:0.31;"/>
        <path d="M450.507,150.724C454.461,150.874 454.831,150.318 457.492,153.324C456.452,153.264 452.554,153.04 444.507,152.323C447.497,151.696 450.034,150.877 450.507,150.724Z" style="fill:rgb(129,129,129);fill-opacity:0.24;"/>
        <path d="M98.656,430.497C100.277,434.242 100.296,434.166 100.418,434.493C99.801,439.499 99.763,439.418 99.382,444.506L98.872,445.482C98.761,441.915 98.653,441.979 98.067,438.491C97.418,434.461 98.37,434.561 98.656,430.497Z" style="fill:rgb(110,110,110);fill-opacity:0.22;"/>
        <path d="M510.502,155.68C510.651,155.695 512.356,155.867 512.356,155.867C517.025,157.681 517.564,156.558 519.482,156.706C519.023,156.881 517.116,157.611 513.512,158.176C507.958,157.549 508.042,157.569 502.5,157.104C508.378,156.423 509.888,155.895 510.502,155.68Z" style="fill:rgb(98,98,98);fill-opacity:0.31;"/>
        <path d="M492.5,155.563L493.5,155.547C495.216,155.479 495.64,155.822 499.533,155.095C500.684,154.92 500.652,154.631 501.696,155.125C504.99,156.682 505.106,155.761 510.502,155.68C509.888,155.895 508.378,156.423 502.5,157.104C497.425,156.526 497.48,156.659 492.5,155.563Z" style="fill:rgb(87,87,87);fill-opacity:0.31;"/>
        <path d="M41.514,155.692C41.807,155.771 41.652,156.339 50.465,156.914C44.506,157.531 40.359,158.071 39.482,158.185C36.511,157.686 33.986,156.848 33.519,156.693C39.322,156.231 39.343,156.511 41.514,155.692Z" style="fill:rgb(96,96,96);fill-opacity:0.31;"/>
        <path d="M99.49,150.719C99.875,150.888 101.06,151.406 104.491,152.316C95.637,153.339 94.47,153.126 93.612,152.969C95.967,150.653 96.169,150.921 99.49,150.719Z" style="fill:rgb(131,131,131);fill-opacity:0.22;"/>
        <path d="M126.904,313.604C127.659,315.015 127.63,314.916 128.273,316.477C128.104,317.185 127.936,317.894 127.768,318.602C127.754,318.63 126.476,319.057 126.838,320.543C126.914,320.855 127.073,321.143 127.149,321.455C126.803,323.116 126.458,324.777 126.113,326.437C125.589,324.435 125.665,324.504 124.807,322.606C125.104,321.928 125.839,320.252 126.904,313.604Z" style="fill:rgb(114,114,114);fill-opacity:0.21;"/>
        <path d="M447.242,403.515C447.345,404.175 448.298,410.245 449.1,411.662C447.968,415.227 447.865,415.127 447.781,415.436C447.106,412.443 446.431,409.451 445.756,406.458C446.251,405.477 446.746,404.496 447.242,403.515Z" style="fill:rgb(111,111,111);fill-opacity:0.23;"/>
        <path d="M548.835,169.328C549.856,171.945 548.571,172.314 550.116,174.636C549.894,176.068 549.897,175.986 550.135,177.377C550.1,177.433 549.24,177.15 549.206,182.419C549.057,182.127 548.181,180.412 547.875,178.543C547.968,176.865 548.061,175.187 548.154,173.509C548.173,172.291 548.252,172.361 548.835,169.328Z" style="fill:rgb(92,92,92);fill-opacity:0.19;"/>
        <path d="M439.307,369.509C439.794,374.039 440.171,373.891 440.788,378.345C440.451,379.374 440.114,380.404 439.778,381.434L438.827,377.453C438.613,376.511 438.399,375.568 438.185,374.626C437.993,373.912 437.801,373.197 437.609,372.483C438.559,371.024 438.557,371.09 439.307,369.509Z" style="fill:rgb(112,112,112);fill-opacity:0.19;"/>
        <path d="M33.519,156.693C33.986,156.848 36.511,157.686 39.482,158.185C34.925,158.738 35.017,158.634 30.504,158.945C27.941,158.639 28.02,158.636 25.615,157.87C29.716,157.796 29.716,158.161 33.519,156.693Z" style="fill:rgb(99,99,99);fill-opacity:0.25;"/>
        <path d="M519.482,156.706C523.277,158.207 523.284,157.796 527.362,157.875C524.923,158.653 525.025,158.672 522.514,159.229C521.795,159.132 521.805,159.18 513.512,158.176C517.116,157.611 519.023,156.881 519.482,156.706Z" style="fill:rgb(98,98,98);fill-opacity:0.27;"/>
        <path d="M316.391,406.897C317.189,406.603 317.988,406.309 318.786,406.015C321.486,407.04 324.715,408.722 325.218,408.984C324.312,409.155 323.406,409.326 322.501,409.498C319.11,409.126 319.317,408.626 316.391,406.897Z" style="fill:rgb(133,133,133);fill-opacity:0.21;"/>
        <path d="M454.221,447.491C457.918,455.433 449.301,452.788 448.502,452.605C453.649,451.705 454.043,449.203 454.221,447.491Z" style="fill:rgb(101,101,101);fill-opacity:0.25;"/>
        <path d="M454.295,433.505C454.559,436.115 454.463,436.062 455.275,438.507C454.217,440.401 454.16,440.337 453.799,442.454C453.427,440.461 453.056,438.467 452.685,436.474C453.222,435.484 453.758,434.495 454.295,433.505Z" style="fill:rgb(108,108,108);fill-opacity:0.22;"/>
        <path d="M102.831,409.612C103.088,410.397 103.063,410.289 104.249,413.46C103.749,415.476 103.249,417.491 102.748,419.507C102.729,418.325 102.653,418.407 102.069,415.466C102.698,411.93 102.804,410.083 102.831,409.612Z" style="fill:rgb(104,104,104);fill-opacity:0.27;"/>
        <path d="M453.323,428.488C453.587,431.05 453.48,430.986 454.295,433.505C453.758,434.495 453.222,435.484 452.685,436.474C452.331,434.811 451.978,433.148 451.624,431.485C452.19,430.486 452.757,429.487 453.323,428.488Z" style="fill:rgb(122,122,122);fill-opacity:0.19;"/>
        <path d="M103.683,404.502C105.07,408.217 105.11,408.141 105.205,408.467L104.249,413.46C103.063,410.289 103.088,410.397 102.831,409.612C103.843,407.151 103.394,407.112 103.683,404.502Z" style="fill:rgb(107,107,107);fill-opacity:0.24;"/>
        <path d="M110.824,375.613C111.332,376.564 111.84,377.515 112.349,378.466C111.972,380.124 111.595,381.783 111.218,383.442C110.909,382.653 110.903,382.73 109.712,380.504C110.407,378.456 110.765,376.01 110.824,375.613Z" style="fill:rgb(125,125,125);fill-opacity:0.23;"/>
        <path d="M431.276,335.509C431.667,338.227 431.404,338.238 432.302,340.518C431.766,341.5 431.229,342.482 430.693,343.464C429.777,339.025 429.806,339.061 429.632,338.479C430.18,337.489 430.728,336.499 431.276,335.509Z" style="fill:rgb(125,125,125);fill-opacity:0.24;"/>
        <path d="M440.788,378.345C441.329,380.527 442.071,382.261 442.212,382.591C441.717,383.591 441.861,383.565 441.223,387.52C440.487,384.455 440.495,384.521 439.778,381.434C440.114,380.404 440.451,379.374 440.788,378.345Z" style="fill:rgb(106,106,106);fill-opacity:0.29;"/>
        <path d="M465.505,153.413C471.996,152.687 471.904,152.76 478.465,153.072C471.986,153.837 472.031,153.861 465.505,153.413Z" style="fill:rgb(69,69,69);fill-opacity:0.15;"/>
        <path d="M426.127,314.599C426.572,316.717 426.393,316.682 427.227,318.584C427.083,318.88 426.258,320.569 425.807,322.446C425.461,320.778 425.115,319.111 424.769,317.443C425.487,316.021 425.398,316.062 426.127,314.599Z" style="fill:rgb(113,113,113);fill-opacity:0.25;"/>
        <path d="M449.1,411.662C449.302,414.291 448.853,414.344 450.153,416.6C449.442,418.044 449.561,417.996 449.299,419.561C448.32,417.559 448.332,417.619 447.781,415.436C447.865,415.127 447.968,415.227 449.1,411.662Z" style="fill:rgb(106,106,106);fill-opacity:0.26;"/>
        <path d="M433.121,344.606C433.561,346.737 433.356,346.697 434.23,348.583C433.032,352.198 432.942,352.119 432.886,352.441C432.537,350.777 432.188,349.113 431.839,347.45C432.266,346.502 432.694,345.554 433.121,344.606Z" style="fill:rgb(106,106,106);fill-opacity:0.27;"/>
        <path d="M75.539,153.042C81.543,152.734 81.474,152.735 87.489,153.371C81.456,153.901 81.498,153.887 75.539,153.042Z" style="fill:rgb(69,69,69);fill-opacity:0.16;"/>
        <path d="M434.23,348.583C434.232,348.878 434.244,348.864 434.772,353.388C434.697,353.708 434.257,355.576 433.978,357.424C433.614,355.763 433.25,354.102 432.886,352.441C432.942,352.119 433.032,352.198 434.23,348.583Z" style="fill:rgb(88,88,88);fill-opacity:0.32;"/>
        <path d="M425.309,310.516C425.54,312.694 425.44,312.615 426.127,314.599C425.398,316.062 425.487,316.021 424.769,317.443C424.156,315.439 424.253,315.51 423.642,313.474C424.198,312.488 424.753,311.502 425.309,310.516Z" style="fill:rgb(121,121,121);fill-opacity:0.2;"/>
        <path d="M124.807,322.606C125.665,324.504 125.589,324.435 126.113,326.437C125.755,327.763 125.397,329.089 125.04,330.416C124.985,330.105 124.845,330.155 123.928,326.636C123.933,326.621 124.533,326.532 124.807,322.606Z" style="fill:rgb(101,101,101);fill-opacity:0.29;"/>
        <path d="M25.615,157.87C28.02,158.636 27.941,158.639 30.504,158.945C26.466,159.727 26.581,160.128 22.473,160.358C22.714,160.146 24.535,158.535 25.615,157.87Z" style="fill:rgb(100,100,100);fill-opacity:0.34;"/>
        <path d="M98.067,438.491C98.653,441.979 98.761,441.915 98.872,445.482C98.605,446.154 98.338,446.826 98.071,447.497C97.982,445.689 97.01,444.734 98.067,438.491Z" style="fill:rgb(79,79,79);fill-opacity:0.11;"/>
        <path d="M432.302,340.518C432.553,342.638 432.401,342.605 433.121,344.606C432.694,345.554 432.266,346.502 431.839,347.45C431.548,346.499 431.69,346.555 431.384,345.551C431.332,345.383 431.332,345.396 430.693,343.464C431.229,342.482 431.766,341.5 432.302,340.518Z" style="fill:rgb(107,107,107);fill-opacity:0.25;"/>
        <path d="M127.7,309.509C128.407,311.13 128.436,311.047 129.421,312.481C128.72,314.408 128.714,314.392 128.664,314.562C128.366,315.571 128.554,315.523 128.273,316.477C127.63,314.916 127.659,315.015 126.904,313.604C127.607,311.592 127.501,311.666 127.7,309.509Z" style="fill:rgb(105,105,105);fill-opacity:0.21;"/>
        <path d="M442.212,382.591C442.265,385.303 442.26,385.286 442.269,385.52C442.291,386.067 442.419,385.955 442.442,386.521C442.278,388.495 442.385,388.446 441.826,390.365C441.625,389.416 441.424,388.468 441.223,387.52C441.861,383.565 441.717,383.591 442.212,382.591Z" style="fill:rgb(94,94,94);fill-opacity:0.26;"/>
        <path d="M527.362,157.875C529.307,159.469 528.469,160.002 528.506,160.291C525.486,159.539 522.998,159.279 522.514,159.229C525.025,158.672 524.923,158.653 527.362,157.875Z" style="fill:rgb(111,111,111);fill-opacity:0.31;"/>
        <path d="M138.584,450.818C138.825,450.893 138.747,450.918 141.54,451.932C138.674,452.452 138.769,452.514 138.525,452.545C137.478,452.41 136.431,452.274 135.384,452.138C138.083,450.979 138.028,450.965 138.584,450.818Z" style="fill:rgb(99,99,99);fill-opacity:0.28;"/>
        <path d="M455.275,438.507C455.257,438.906 455.051,443.488 455.051,443.488C454.87,444.19 454.371,443.791 454.223,444.503C453.916,445.983 454.537,445.966 454.221,447.491C454.08,445.812 453.94,444.133 453.799,442.454C454.16,440.337 454.217,440.401 455.275,438.507Z" style="fill:rgb(58,58,58);fill-opacity:0.35;"/>
        <path d="M274.507,387.672C277.269,386.717 277.35,385.803 281.495,387.564L280.486,387.633L277.514,387.74L274.507,387.672Z" style="fill:rgb(75,75,75);fill-opacity:0.59;"/>
        <path d="M148.472,148.097C148.805,148.091 151.362,147.434 155.491,147.972C155.891,148.024 156.103,148.583 156.503,148.635C152.434,148.561 152.53,148.532 148.472,148.097Z" style="fill:rgb(59,59,59);fill-opacity:0.24;"/>
        <path d="M394.496,148.639C394.9,148.586 395.107,148.013 395.51,147.96C395.51,147.96 401.97,148.055 402.532,148.063C399.853,148.255 397.175,148.447 394.496,148.639Z" style="fill:rgb(60,60,60);fill-opacity:0.24;"/>
        <path d="M170.484,145.695C174.033,145.831 173.983,145.794 177.483,146.314C172.116,147.159 172.19,146.252 170.484,145.695Z" style="fill:rgb(66,66,66);fill-opacity:0.17;"/>
        <path d="M378.517,146.277C382.015,145.797 381.977,145.669 385.439,146.057C381.985,146.626 382.027,146.872 378.517,146.277Z" style="fill:rgb(69,69,69);fill-opacity:0.17;"/>
        <path d="M53.496,155.03C57.06,154.997 56.964,155.056 60.5,155.555C56.909,155.526 56.997,155.416 53.496,155.03Z" style="fill:rgb(58,58,58);fill-opacity:0.25;"/>
        <path d="M1.935,172.612C3.048,175.455 2.536,175.456 2.068,178.517C1.917,175.545 1.914,175.656 1.935,172.612Z" style="fill:rgb(58,58,58);fill-opacity:0.17;"/>
        <path d="M131.749,294.456C132.479,297.48 132.118,297.433 131.719,300.497C131.527,297.396 131.338,297.481 131.749,294.456Z" style="fill:rgb(62,62,62);fill-opacity:0.6;"/>
        <path d="M493.5,155.547C496.498,155.059 496.438,155.01 499.533,155.095C495.64,155.822 495.216,155.479 493.5,155.547Z" style="fill:rgb(60,60,60);fill-opacity:0.26;"/>
        <path d="M534.534,159.72C532.114,160.971 532.152,160.996 531.651,161.146C531.276,160.886 530.901,160.626 530.526,160.366C532.562,159.81 532.487,159.889 534.534,159.72Z" style="fill:rgb(66,66,66);fill-opacity:0.22;"/>
        <path d="M268.589,1.722C267.614,2.085 266.64,2.447 265.665,2.81C264.936,2.689 264.207,2.568 263.478,2.448C266.029,1.998 265.955,1.936 268.589,1.722Z" style="fill:rgb(71,71,71);fill-opacity:0.32;"/>
        <path d="M428.194,323.591C428.133,324.923 428.072,326.255 428.012,327.586C427.257,325.535 427.291,325.524 428.194,323.591Z" style="fill:rgb(69,66,69);fill-opacity:0.19;"/>
        <path d="M325.218,408.984L325.548,409.407L325.712,410.227C324.641,409.984 323.571,409.741 322.501,409.498C323.406,409.326 324.312,409.155 325.218,408.984Z" style="fill:rgb(73,73,73);fill-opacity:0.25;"/>
        <path d="M413.559,450.306C414.876,450.683 416.193,451.06 417.51,451.437C415.404,451.256 415.505,451.035 413.559,450.306Z" style="fill:rgb(64,64,64);fill-opacity:0.56;"/>
        <path d="M119.783,349.564L119.246,352.453C119.128,352.142 118.919,351.87 118.8,351.559C118.442,350.621 118.463,350.579 118.502,350.5C118.88,349.734 119.402,350.337 119.783,349.564Z" style="fill:rgb(97,97,97);fill-opacity:0.55;"/>
        <path d="M55.668,227.27C56.799,228.19 56.696,228.207 57.796,229.112C57.456,228.917 56.979,229.519 56.639,229.324C56.481,229.233 56.567,229.171 55.668,227.27Z" style="fill:rgb(106,106,106);fill-opacity:0.44;"/>
        <path d="M417.597,452.214C417.83,452.226 417.727,452.289 420.504,452.485C418.991,452.931 419.029,452.853 417.597,452.214Z" style="fill:rgb(77,77,77);fill-opacity:0.27;"/>
        <path d="M438.185,374.626C438.399,375.568 438.613,376.511 438.827,377.453C438.613,376.511 438.399,375.568 438.185,374.626Z" style="fill:rgb(74,74,74);fill-opacity:0.56;"/>
        <path d="M127.768,318.602C127.562,319.553 127.355,320.504 127.149,321.455C127.073,321.143 126.914,320.855 126.838,320.543C126.476,319.057 127.754,318.63 127.768,318.602Z" style="fill:rgb(79,79,79);fill-opacity:0.6;"/>
        <path d="M277.514,387.74L280.486,387.633C278.981,388.024 279.023,388.021 277.514,387.74Z" style="fill:rgb(72,72,72);fill-opacity:0.32;"/>
    </g>
</svg>
