<?xml version="1.0" encoding="UTF-8" standalone="no"?>
<!DOCTYPE svg PUBLIC "-//W3C//DTD SVG 1.1//EN" "http://www.w3.org/Graphics/SVG/1.1/DTD/svg11.dtd">
<svg width="100%" height="100%" viewBox="0 0 176 265" version="1.1" xmlns="http://www.w3.org/2000/svg" xmlns:xlink="http://www.w3.org/1999/xlink" xml:space="preserve" xmlns:serif="http://www.serif.com/" style="fill-rule:evenodd;clip-rule:evenodd;stroke-linejoin:round;stroke-miterlimit:2;">
    <g id="franquicias.png">
        <path d="M151.5,264.999L0,264.999C-1.386,263.613 -0,263.222 0,240.5L0,0C1.386,-1.386 1.777,0 24.5,0L175.999,0C176.979,4.248 175.999,4.301 175.999,54.5L175.999,264.999C174.613,266.385 174.222,264.999 151.5,264.999Z" style="fill:rgb(254,254,254);"/>
        <path d="M85.461,5.873C86.176,5.798 87.903,5.616 94.445,5.788C94.511,6.375 94.577,6.962 94.642,7.548C93.707,10.782 93.559,31.868 94.93,33.075C96.027,34.04 96.14,33.785 97.205,34.812C99.002,36.544 98.75,38.783 101.624,37.887C104.412,37.017 107.978,35.092 117.042,50.745C121.659,58.719 115.761,57.533 112.5,57.551C111.831,57.554 103.457,58.508 102.259,55.609C102.07,55.15 97.65,44.447 97.609,51.51C97.567,58.604 97.356,58.782 101.162,64.684C102.973,67.492 98.868,70.615 98.749,75.508C98.721,76.69 98.275,84.329 99.518,84.408C101.006,84.503 114.493,70.071 136.575,77.297C167.671,87.472 170.284,134.293 138.563,146.661C138.203,146.801 134.278,148.331 134.635,149.477C135.766,153.109 142.541,164.211 137.007,183.347C134.054,193.561 122.719,211.363 100.537,214.756C96.811,215.326 94.007,214.035 95.671,217.427C100.107,226.474 102.461,223.877 112.448,224.954C114.649,225.191 121.653,225.344 120.599,228.539C119.78,231.022 105.459,241.351 105.774,245.477C105.817,246.038 107.427,251.73 103.504,250.488C102.86,250.284 98.704,244.624 103.689,239.683C105.113,238.272 115.583,229.356 111.735,229.011C96.343,227.632 95.326,225.66 94.678,224.403C94.193,223.462 90.798,213.415 86.637,214.827C81.409,216.601 87.067,226.233 73.569,227.898C69.089,228.45 60.585,228.24 63.691,231.33C73.165,240.757 75.77,240.604 74.047,248.393C73.262,251.94 69.696,250.996 69.851,248.533C70.076,244.971 71.31,244.341 67.409,240.594C60.88,234.323 50.124,226.566 59.488,225.392C65,224.7 64.928,224.708 70.455,224.095C77.879,223.271 78.359,222.633 80.917,215.658C82.66,210.906 71.556,213.365 58.612,198.405C41.291,178.385 50.999,154.985 52.449,151.488C54.999,145.341 46.085,155.167 45.657,155.639C45.007,156.356 38.938,163.045 36.511,163.553C35.86,163.689 23.766,161.74 19.501,157.499C4.869,142.952 23.126,84.544 74.434,94.763C80.163,95.904 77.964,92.413 77.982,86.5C78.016,75.242 78.62,75.066 75.887,69.306C72.879,62.966 78.814,63.526 79.057,56.496C79.075,55.975 79.434,45.619 76.511,50.509C75.274,52.578 75.213,57.508 70.501,57.582C62.376,57.71 55.675,58.876 58.75,52.626C67.292,35.26 71.935,36.834 73.545,37.379C77.099,38.584 76.818,37.035 79.626,34.648C83.219,31.593 82.635,30.994 82.637,15.502C82.639,6.597 81.436,5.905 82.551,5.837C82.783,5.823 82.766,5.84 85.461,5.873Z" style="fill:rgb(4,4,4);"/>
        <path d="M52.931,169.499C53.056,168.193 54.046,157.877 56.491,153.494C57.366,151.925 58.329,151.899 77.383,161.726C80.891,163.535 79.096,164.57 79.129,168.52C79.157,171.891 81.838,179.875 90.597,182.148C100.361,184.682 105.556,178.131 106.447,177.434C108.824,175.573 129.476,186.918 129.608,187.461C131.293,194.378 102.045,222.164 73.73,205.096C53.04,192.623 53.297,173.578 52.931,169.499Z" style="fill:rgb(254,254,254);"/>
        <path d="M109.96,168.513C109.48,150.896 93.73,148.431 83.906,155.98C82.661,156.937 82.279,158.313 74.629,154.253C61.581,147.327 60.02,147.64 60.94,145.706C65.663,135.784 90.515,130.906 91.501,130.501C105.599,124.721 139.379,142.773 133.763,176.558C132.4,184.76 128.798,180.463 121.312,176.878C112.376,172.6 110.796,173.587 109.96,168.513Z" style="fill:rgb(254,254,254);"/>
        <path d="M94.874,114.485C94.535,118.525 94.58,119.8 90.511,119.384C80.783,118.39 69.953,123.56 69.19,121.689C68.482,119.952 69.095,106.21 52.495,104.914C37.524,103.745 26.701,124.91 39.593,135.396C41.18,136.687 44.564,136.949 40.848,140.836C29.48,152.728 31.941,161.478 23.683,156.222C8.29,146.425 25.169,85.521 77.596,99.136C93.092,103.161 94.586,112.658 94.874,114.485Z" style="fill:rgb(254,254,254);"/>
        <path d="M98.838,119.5C98.708,97.481 97.936,97.343 98.816,95.651C99.412,94.505 99.998,94.822 113.201,102.963C116.876,105.229 111.727,111.744 118.8,118.166C127.05,125.657 136.213,117.566 138.498,118.504C138.714,118.593 151.799,126.453 152.225,126.774C156.386,129.914 134.968,147.515 130.75,143.209C118.846,131.058 119.121,129.775 100.322,124.979C98.765,124.582 99.389,123.971 98.838,119.5Z" style="fill:rgb(254,254,254);"/>
        <path d="M129.556,96.049C128.897,96.02 124.139,95.81 121.406,97.325C118.709,98.821 118.572,99.472 115.769,98.039C114.688,97.486 107.03,93.57 102.804,90.171C100.126,88.017 110.157,82.818 112.648,81.889C144.206,70.128 163.018,105.952 155.739,120.679C155.191,121.786 154.434,122.045 141.8,114.04C138.702,112.077 144.056,98.935 129.556,96.049Z" style="fill:rgb(254,254,254);"/>
        <path d="M94.967,91.5C94.985,100.508 96.176,106.036 92.336,102.711C86.346,97.524 81.452,98.099 81.383,94.506C81.035,76.465 82.749,76.115 79.312,68.587C77.302,64.184 82.323,63.258 82.372,58.496C82.377,58.009 82.433,52.556 83.501,52.513C85.946,52.414 88.179,60.522 84.764,65.679C82.863,68.551 88.081,75.862 89.212,74.209C94.872,65.937 90.472,65.319 90.195,62.543C89.003,50.607 93.58,52.113 94.046,52.809C94.593,53.628 90.625,54.678 97.101,64.735C98.791,67.359 95.155,71.706 95.083,74.459C94.888,81.985 95.105,81.89 94.967,91.5Z" style="fill:rgb(253,253,253);"/>
        <path d="M37.137,122.494C37.216,121.736 37.713,116.955 40.67,113.648C54.646,98.02 73.683,120.385 62.264,126.016C47.169,133.46 47.932,134.993 46.479,135.105C39.385,135.649 37.349,123.732 37.137,122.494Z" style="fill:rgb(252,252,252);"/>
        <path d="M78.589,123.897C79.449,123.738 86.444,122.448 89.471,122.819C92.641,123.209 93.619,126.716 87.428,128.119C52.397,136.059 42.819,155.483 37.411,159.366C30.735,164.159 34.643,151.963 42.959,143.959C58.804,128.708 68.408,126.81 78.589,123.897Z" style="fill:rgb(254,254,254);"/>
        <path d="M94.501,157.105C114.107,158.55 102.149,186.451 87.829,175.129C82.67,171.049 81.87,157.959 94.501,157.105Z" style="fill:rgb(254,254,254);"/>
        <path d="M135.114,107.542C134.875,124.704 112.889,113.347 121.646,103.629C124.035,100.977 132.698,97.845 135.114,107.542Z" style="fill:rgb(254,254,254);"/>
        <path d="M41.951,120.496C42.138,117.602 41.646,117.328 42.628,116.707C43.453,116.185 43.5,116.546 46.561,117.139C50.138,117.832 49.021,115.788 50.252,112.335C50.989,110.264 62.543,117.066 62.457,119.494C62.212,126.352 53.308,113.861 52.276,119.446C51.438,123.98 48.935,121.593 47.509,121.366C43.771,120.77 48.691,131.174 45.485,131.279C41.244,131.419 42.075,124.268 41.951,120.496Z" style="fill:rgb(5,4,4);"/>
        <path d="M63.787,50.653C66.321,46.278 66.132,46.191 69.51,42.51C73.504,38.159 83.761,44.418 82.947,46.805C82.499,48.118 80.024,46.392 77.653,45.202C67.359,40.036 69.306,53.18 64.479,54.136C61.91,54.646 62.987,53.09 63.787,50.653Z" style="fill:rgb(250,249,249);"/>
        <path d="M112.285,49.621C112.453,49.934 115.55,55.739 111.645,54.022C107.5,52.199 108.554,40.502 99.645,44.781C98.289,45.432 96.961,46.142 95.607,46.798C93.279,47.924 92.537,45.201 95.608,43.726C104.514,39.445 105.482,40.41 108.183,43.76C108.183,43.76 111.957,49.152 112.285,49.621Z" style="fill:rgb(251,251,251);"/>
        <path d="M93.61,36.326C96.209,38.503 96.951,40.04 93.621,40.918C90.514,41.738 89.403,35.192 86.67,38.628C86.379,38.994 83.4,42.74 80.992,40.03C79.985,38.898 83.799,31.865 93.61,36.326Z" style="fill:rgb(251,251,251);"/>
        <path d="M80.925,234.499C80.942,234.252 81.108,231.783 81.423,231.439C85.392,227.094 86.446,241.426 82.567,240.159C80.549,239.499 81.408,238.779 80.925,234.499Z" style="fill:rgb(5,5,5);"/>
        <path d="M90.912,235.499C91.097,232.291 90.755,232.251 91.463,231.471C93.233,229.518 95.872,231.715 94.771,238.571C94.708,238.961 91.455,242.725 90.912,235.499Z" style="fill:rgb(2,2,2);"/>
        <path d="M86.462,48.526C86.335,48.123 85.078,44.139 87.41,43.33C91.831,41.795 91.011,53.441 86.462,48.526Z" style="fill:rgb(254,254,254);"/>
        <path d="M72.145,52.339C72.016,52.484 66.402,58.49 69.815,51.643C72.767,45.722 74.307,47.039 74.347,47.527C74.382,47.949 74.387,48.001 72.145,52.339Z" style="fill:rgb(228,228,228);"/>
        <path d="M104.562,52.463C102.359,47.735 101.452,47.459 102.654,46.712C105.292,45.072 109.934,60.043 104.562,52.463Z" style="fill:rgb(231,231,231);"/>
        <path d="M88.472,32.038C83.365,30.776 87.118,29.137 87.364,29.078C88.162,28.889 93.787,29.672 88.472,32.038Z" style="fill:rgb(249,249,249);"/>
        <path d="M88.525,23.279C94.051,25.351 87.017,27.128 86.332,25.614C85.454,23.673 86.373,23.651 88.525,23.279Z" style="fill:rgb(249,249,249);"/>
        <path d="M88.554,12.088C93.753,14.23 87.6,15.676 86.436,14.558C84.583,12.779 88.298,12.132 88.554,12.088Z" style="fill:rgb(247,247,247);"/>
        <path d="M88.497,20.469C84.623,19.923 86.72,17.619 88.479,17.712C92.797,17.94 88.687,20.357 88.497,20.469Z" style="fill:rgb(251,251,251);"/>
        <path d="M89.903,7.354L90.267,8.423C88.16,10.334 87.463,9.282 86.202,8.653C86.38,8.438 85.408,7.343 87.321,7.299C88.647,7.268 88.588,7.384 89.903,7.354Z" style="fill:rgb(248,248,248);"/>
        <path d="M94.445,5.788C94.581,5.802 96.15,5.967 96.15,5.967C97.434,6.809 96.024,6.764 94.642,7.548C94.577,6.962 94.511,6.375 94.445,5.788Z" style="fill:rgb(108,108,108);"/>
    </g>
</svg>
