<?xml version="1.0" encoding="UTF-8" standalone="no"?>
<!DOCTYPE svg PUBLIC "-//W3C//DTD SVG 1.1//EN" "http://www.w3.org/Graphics/SVG/1.1/DTD/svg11.dtd">
<svg width="100%" height="100%" viewBox="0 0 184 104" version="1.1" xmlns="http://www.w3.org/2000/svg" xmlns:xlink="http://www.w3.org/1999/xlink" xml:space="preserve" xmlns:serif="http://www.serif.com/" style="fill-rule:evenodd;clip-rule:evenodd;stroke-linejoin:round;stroke-miterlimit:2;">
    <g id="icono_exclusivo.png" transform="matrix(1,0,0,1,9,4)">
        <path d="M110.988,38.396C111.816,40.045 111.777,40.057 111.882,40.177C118.781,47.975 118.671,47.961 124.02,56.805L125.381,60.551C125.831,61.829 126.281,63.106 126.731,64.384C128.949,72.935 128.303,81.906 122.641,86.743L121.064,85.5C120.8,82.102 120.386,82.291 118.778,79.384C118.547,64.714 90.434,56.967 65.466,62.362C60.46,63.444 42.459,70.511 46.538,79.521C42.791,84.345 43.638,85.518 43.248,86.967C37.787,85.246 34.99,73.588 38.247,64.382C38.942,61.953 38.926,61.964 38.998,61.758C39.411,60.575 39.528,60.737 39.919,59.617L40.956,56.786C46.242,47.468 46.465,47.671 53.349,39.436C64.444,26.741 85.193,21.881 102.287,31.838C104.622,33.198 107.628,36.859 110.988,38.396Z" style="fill:rgb(210,6,12);fill-opacity:1;"/>
        <path d="M46.538,79.521C55.736,73.078 66.771,63.615 88.502,66.475C96.327,67.505 96.304,67.431 103.548,70.345C105.704,71.212 105.948,70.562 107.798,72.038C108.303,72.441 112.711,75.957 114.5,76.547C114.891,76.676 115.109,75.695 115.5,75.824L115.886,76.5L116.134,77.5L116.464,78.5L117.5,79.136L118.778,79.384C120.386,82.291 120.8,82.102 121.064,85.5L122.641,86.743C118.793,88.544 118.897,89.087 108.509,89.765C104.978,89.853 105.048,89.593 101.487,90.286C96.492,90.6 96.564,90.561 91.512,90.737C90.512,90.726 89.511,90.714 88.511,90.702C82.477,90.818 82.563,90.818 76.489,90.696C75.489,90.709 74.489,90.721 73.488,90.733C67.958,90.547 68.025,90.535 62.511,90.236L56.593,90.086C48.707,88.623 48.323,90.025 43.248,86.967C43.638,85.518 42.791,84.345 46.538,79.521Z" style="fill:rgb(66,0,0);fill-opacity:1;"/>
        <path d="M160.788,24.586C160.696,24.893 159.952,27.381 159.214,28.263C155.644,32.531 159.701,33.889 156.892,38.713L155.312,37.5L154.5,38.263L153.5,38.926C147.476,42.15 138.448,43.963 140.311,46.612C140.802,47.31 146.178,47.05 151.79,43.825C151.463,47.444 151.54,47.478 149.652,50.643L148.5,49.019L147.218,49.5L146.5,50.038C146.344,50.091 144.55,50.7 144.55,50.7C141.899,51.416 142.37,52.595 139.664,52.864C138.161,53.013 134.886,52.859 130.951,55.794C130.439,56.022 129.787,56.313 124.02,56.805C118.671,47.961 118.781,47.975 111.882,40.177C111.777,40.057 111.816,40.045 110.988,38.396C111.257,37.554 112.575,33.423 118.293,30.11C126.894,25.126 126.689,24.817 127.469,24.45C134.213,21.28 133.88,20.715 134.464,20.442C143.06,16.42 151.004,1.842 155.502,2.492C161.097,3.301 159.176,10.879 158.983,11.638C158.187,14.781 164.279,15.524 160.788,24.586Z" style="fill:rgb(236,235,233);fill-opacity:0.96;"/>
        <path d="M5.109,11.559C3.414,5.728 5.841,-2.63 15.215,6.779C18.418,9.994 19.457,13.469 23.549,15.425C25.465,16.34 26.097,18.78 29.548,20.424C30.712,20.979 30.125,21.995 43.542,28.432C46.789,29.99 49.266,32.87 49.676,33.347C51.821,35.841 52.919,35.263 53.349,39.436C46.465,47.671 46.242,47.468 40.956,56.786C37.027,56.547 36.956,57.106 33.346,55.612C35.335,54.567 35.303,54.516 35.495,54.483C43.211,53.165 32.596,51.044 32.513,52.514C32.44,53.823 31.955,53.549 31.534,54.33C27.462,52.68 26.878,54.385 23.257,51.915C20.195,49.826 19.957,50.581 16.5,49.205L15.74,48.5L14.09,49.732C12.533,47.004 13.799,46.507 11.839,44.024C13.998,43.994 14.178,43.437 15.079,44.5C16.905,46.655 25.21,47.975 24.265,45.548C23.453,43.459 10.986,38.881 9.5,38.56L8.5,38.203L7.02,37.694C4.615,33.106 7.619,32.299 5.081,27.719C4.52,26.708 4.6,26.738 4.092,25.704L5.598,24.5L6.986,25.5C8.999,27.85 8.963,27.762 10.944,30.235C10.852,30.39 7.927,30.704 10.674,33.306C11.936,34.501 12.32,34.568 12.496,34.598C14.415,34.929 13.371,33.69 13.581,33.472C13.794,33.802 15.914,37.087 17.49,36.445C18.053,36.216 18.312,35.488 18.875,35.259C19.529,35.69 28.991,41.913 28.403,37.508C27.93,33.961 23.77,38.527 16.784,30.154C14.032,26.856 14.366,26.711 14.215,26.461C14.642,26.577 15.074,26.023 15.5,26.139C16.277,26.349 16.85,27.024 17.576,27.371C18.855,27.98 18.787,27.366 20.565,26.368C34.183,35.153 35.028,37.713 40.453,38.463C40.373,38.288 41.464,37.263 36.389,34.802C34.305,33.791 34.271,33.987 32.458,32.584C21.517,24.118 20.452,25.507 9.687,14.273C7.504,12.569 7.585,12.629 7.5,12.569L6.971,11.5L5.109,11.559Z" style="fill:rgb(237,235,233);fill-opacity:0.97;"/>
        <path d="M70.637,56.283C57.943,40.752 87.87,25.07 96.411,44.528C99.056,50.553 94.925,55.506 94.316,56.237C90.654,57.17 85.303,55.216 77.503,55.917C76.372,56.018 74.356,57.144 70.637,56.283Z" style="fill:rgb(239,224,224);"/>
        <path d="M46.538,79.521C42.459,70.511 60.46,63.444 65.466,62.362C90.434,56.967 118.547,64.714 118.778,79.384L117.5,79.136L116.464,78.5L116.134,77.5L115.886,76.5L115.5,75.824C115.109,75.695 114.891,76.676 114.5,76.547C112.711,75.957 108.303,72.441 107.798,72.038C105.948,70.562 105.704,71.212 103.548,70.345C96.304,67.431 96.327,67.505 88.502,66.475C66.771,63.615 55.736,73.078 46.538,79.521Z" style="fill:rgb(122,0,3);"/>
        <path d="M14.09,49.732L15.74,48.5L16.5,49.205C19.957,50.581 20.195,49.826 23.257,51.915C26.878,54.385 27.462,52.68 31.534,54.33C32.462,55.06 32.457,54.892 33.346,55.612C36.956,57.106 37.027,56.547 40.956,56.786L39.919,59.617C39.528,60.737 39.411,60.575 38.998,61.758C38.926,61.964 38.942,61.953 38.247,64.382C32.032,65.03 32.141,64.262 26.419,61.63C22.987,60.051 25.789,56.273 19.448,54.621C15.896,53.695 14.331,50.26 14.09,49.732Z" style="fill:rgb(217,212,208);fill-opacity:0.93;"/>
        <path d="M5.109,11.559L6.971,11.5L7.5,12.569C7.585,12.629 7.504,12.569 9.687,14.273C9.361,14.824 8.535,14.949 8.208,15.5C7.673,16.403 11.475,20.833 11.829,21.246C12.357,21.861 12.604,22.149 20.565,26.368C18.787,27.366 18.855,27.98 17.576,27.371C16.85,27.024 16.277,26.349 15.5,26.139C15.074,26.023 14.642,26.577 14.215,26.461C13.462,30.324 14.417,30.52 18.875,35.259C18.312,35.488 18.053,36.216 17.49,36.445C15.914,37.087 13.794,33.802 13.581,33.472C12.702,32.393 11.823,31.314 10.944,30.235C8.963,27.762 8.999,27.85 6.986,25.5L5.598,24.5L4.092,25.704C1.895,21.895 1.305,21.761 2.728,17.594C3.792,14.48 4.566,14.818 5.109,11.559Z" style="fill:rgb(237,235,234);fill-opacity:0.91;"/>
        <path d="M74.306,44.394C75.026,43.084 75.688,41.743 76.408,40.434C77.687,38.105 82.214,43.981 83.246,43.092C84.455,42.051 85.384,40.707 86.619,39.698C88.313,38.313 95.238,51.467 93.109,53.09C88.881,56.315 89.879,51.982 87.313,45.621C86.233,42.943 83.776,50.959 80.768,47.276C77.02,42.687 77.241,47.876 75.223,53.4C74.854,54.411 69.614,54.051 71.744,49.63C72.588,47.88 73.463,46.144 74.306,44.394Z" style="fill:rgb(233,13,11);"/>
        <path d="M137.648,30.686C133.122,33.688 133.498,34.111 126.666,37.811C126.525,37.887 120.115,39.496 125.357,36.307C130.604,33.115 130.866,33.624 135.751,29.889C138.658,27.667 138.764,27.978 141.641,25.666C146.043,22.129 146.659,22.933 152.622,16.619C152.875,16.35 154.3,14.841 156.034,13.5C155.91,14.196 158.086,13.687 157.962,14.383C157.94,14.506 152.849,22.042 150.395,23.08C149.301,23.543 143.403,26.039 137.648,30.686Z" style="fill:rgb(219,214,210);fill-opacity:1;"/>
        <path d="M9.687,14.273C20.452,25.507 21.517,24.118 32.458,32.584C34.271,33.987 34.305,33.791 36.389,34.802C41.464,37.263 40.373,38.288 40.453,38.463C35.028,37.713 34.183,35.153 20.565,26.368C12.604,22.149 12.357,21.861 11.829,21.246C11.475,20.833 7.673,16.403 8.208,15.5C8.535,14.949 9.361,14.824 9.687,14.273Z" style="fill:rgb(219,214,210);"/>
        <path d="M140.928,56.695C140.83,56.881 139.398,60.799 137.552,61.586C131.831,64.026 132.01,65.74 126.731,64.384C126.281,63.106 125.831,61.829 125.381,60.551C125.552,60.266 124.888,59.892 125.059,59.607C125.809,58.359 126.074,58.785 127.565,58.77C132.791,58.72 132.385,56.774 139.5,56.006L140.928,56.695Z" style="fill:rgb(220,216,213);fill-opacity:0.94;"/>
        <path d="M149.652,50.643C145.862,54.499 145.44,53.813 140.928,56.695L139.5,56.006C132.385,56.774 132.791,58.72 127.565,58.77C126.074,58.785 125.809,58.359 125.059,59.607C124.888,59.892 125.552,60.266 125.381,60.551L124.02,56.805C129.787,56.313 130.439,56.022 130.951,55.794C134.886,52.859 138.161,53.013 139.664,52.864C142.37,52.595 141.899,51.416 144.55,50.7C144.55,50.7 146.344,50.091 146.5,50.038L147.218,49.5L148.5,49.019L149.652,50.643Z" style="fill:rgb(208,201,196);fill-opacity:0.9;"/>
        <path d="M7.02,37.694L8.5,38.203L9.5,38.56C10.986,38.881 23.453,43.459 24.265,45.548C25.21,47.975 16.905,46.655 15.079,44.5C14.178,43.437 13.998,43.994 11.839,44.024C7.785,41.09 7.16,38.315 7.02,37.694Z" style="fill:rgb(216,210,205);fill-opacity:0.9;"/>
        <path d="M156.892,38.713C156.656,39.241 155.268,42.349 151.79,43.825C146.178,47.05 140.802,47.31 140.311,46.612C138.448,43.963 147.476,42.15 153.5,38.926L154.5,38.263L155.312,37.5L156.892,38.713Z" style="fill:rgb(212,206,200);fill-opacity:0.94;"/>
        <path d="M14.215,26.461C14.366,26.711 14.032,26.856 16.784,30.154C23.77,38.527 27.93,33.961 28.403,37.508C28.991,41.913 19.529,35.69 18.875,35.259C14.417,30.52 13.462,30.324 14.215,26.461Z" style="fill:rgb(217,213,208);"/>
        <path d="M150.775,28.476C147.013,37.483 137.306,39.795 136.453,38.54C135.072,36.507 140.985,35.221 141.459,35.118C146.025,34.125 148.727,28.075 149.576,28.012C150.003,27.98 150.348,28.508 150.775,28.476Z" style="fill:rgb(218,214,209);"/>
        <path d="M130.515,40.982C131.005,41.027 136.329,41.52 136.468,42.506C136.88,45.42 119.971,43.5 130.515,40.982Z" style="fill:rgb(216,212,208);"/>
        <path d="M42.846,48.223C42.441,48.936 43.264,50.133 41.49,49.706C41.228,49.644 33.553,49.43 32.652,48.371C30.722,46.1 40.36,46.938 42.846,48.223Z" style="fill:rgb(220,215,212);"/>
        <path d="M37.298,41.779C37.414,43.896 36.359,43.964 29.448,43.742C28.016,43.695 27.319,41.697 30.452,41.282C35.204,40.651 36.997,41.7 37.298,41.779Z" style="fill:rgb(218,214,210);"/>
        <path d="M122.537,47.632C123.267,47.591 136.276,46.088 131.576,48.579C129.373,49.747 126.4,49.329 123.524,49.677C122.095,49.85 121.793,49.919 121.5,48.543C121.404,48.093 122.633,48.082 122.537,47.632Z" style="fill:rgb(216,211,208);"/>
        <path d="M31.534,54.33C31.955,53.549 32.44,53.823 32.513,52.514C32.596,51.044 43.211,53.165 35.495,54.483C35.303,54.516 35.335,54.567 33.346,55.612C32.457,54.892 32.462,55.06 31.534,54.33Z" style="fill:rgb(219,214,210);"/>
        <path d="M130.077,54.742C126.677,54.166 126.447,53.771 126.287,53.495C125.659,52.413 130.065,52.304 130.455,52.18C134.049,51.039 130.229,54.601 130.077,54.742Z" style="fill:rgb(218,213,209);"/>
        <path d="M10.944,30.235C11.823,31.314 12.702,32.393 13.581,33.472C13.371,33.69 14.415,34.929 12.496,34.598C12.32,34.568 11.936,34.501 10.674,33.306C7.927,30.704 10.852,30.39 10.944,30.235Z" style="fill:rgb(219,213,210);"/>
        <path d="M108.509,89.765C105.903,93.09 104.573,90.485 103.487,90.207C102.841,90.041 102.133,90.452 101.487,90.286C105.048,89.593 104.978,89.853 108.509,89.765Z" style="fill:rgb(110,59,59);fill-opacity:0.3;"/>
        <path d="M56.593,90.086L62.511,90.236C61.829,90.364 62.198,90.868 61.474,91.005C61.165,91.063 59.075,91.456 57.551,91.169C57.077,91.08 57.067,90.175 56.593,90.086Z" style="fill:rgb(104,59,59);fill-opacity:0.21;"/>
        <path d="M73.488,90.733C74.489,90.721 75.489,90.709 76.489,90.696C74.939,91.068 75.022,91.021 73.488,90.733Z" style="fill:rgb(112,59,59);fill-opacity:0.49;"/>
        <path d="M88.511,90.702C89.511,90.714 90.512,90.726 91.512,90.737C89.976,91.02 90.059,91.064 88.511,90.702Z" style="fill:rgb(111,57,58);fill-opacity:0.49;"/>
    </g>
</svg>
