<?xml version="1.0" encoding="UTF-8" standalone="no"?>
<!DOCTYPE svg PUBLIC "-//W3C//DTD SVG 1.1//EN" "http://www.w3.org/Graphics/SVG/1.1/DTD/svg11.dtd">
<svg width="100%" height="100%" viewBox="0 0 458 431" version="1.1" xmlns="http://www.w3.org/2000/svg" xmlns:xlink="http://www.w3.org/1999/xlink" xml:space="preserve" xmlns:serif="http://www.serif.com/" style="fill-rule:evenodd;clip-rule:evenodd;stroke-linejoin:round;stroke-miterlimit:2;">
    <g transform="matrix(1,0,0,1,-7.638411,-3.405105)">
        <g id="icono_regalo.png" transform="matrix(1,0,0,1,6,2)">
            <path d="M375.5,431.999L374.5,431.999C372.109,424.425 375.512,408.955 372.505,408.486C372.021,408.41 352.173,408.356 351.513,408.523C349.691,408.985 351.602,410.016 350.5,431.999L348.5,431.999C346.76,425.328 348.821,409.64 347.379,408.644C346.803,408.245 325.991,408.435 325.509,408.516C324.65,408.661 325.035,409.148 324.5,431.999L322.5,431.999C320.941,426.02 322.391,411.636 321.769,409.353C321.301,407.633 320.61,408.158 299.498,408.426C297.634,408.45 296.912,407.835 296.799,409.621C296.088,420.849 296.841,420.791 296.5,431.999L294.5,431.999C292.586,423.919 295.678,408.604 292.51,408.466C271.747,407.56 271.05,407.904 270.831,409.627C270.484,412.358 271.245,422.586 270.5,431.999L268.5,431.999C266.957,422.666 269.859,408.781 266.511,408.46C266.431,408.452 244.063,408.302 243.552,408.569C241.859,409.455 243.775,416.274 242.5,431.999L240.5,431.999C239.337,416.119 241.128,409.8 239.453,408.565C239.104,408.308 218.536,408.451 218.488,408.456C216.786,408.615 217.022,409.492 216.984,430.5L216.5,431.999L214.5,431.999C213.8,425.423 214.558,409.666 214.068,408.921C213.112,407.466 192.375,408.384 190.49,408.468C187.287,408.609 190.485,423.977 188.5,431.999L186.5,431.999C185.401,409.978 187.338,408.847 185.486,408.524C184.51,408.354 164.658,408.434 164.486,408.452C161.292,408.787 164.548,423.93 162.5,431.999L161.5,431.999C157.846,424.255 163.071,408.594 158.51,408.439C138.319,407.753 137.689,407.739 137.277,409.389C136.64,411.936 138.226,426.01 136.5,431.999L135.5,431.999C132.553,425.062 136.156,408.853 133.502,408.496C132.722,408.391 111.095,408.391 110.497,408.492C107.495,409 110.949,424.521 108.5,431.999L107.5,431.999C104.695,424.924 108.248,409.054 105.503,408.494C104.955,408.382 84.867,408.407 84.488,408.472C81.646,408.961 85.099,424.769 82.5,431.999L81.5,431.999C78.872,424.728 82.368,409.021 79.505,408.488C78.993,408.393 56.953,408.395 56.492,408.481C54.513,408.852 55.04,414.123 55.09,414.625C55.123,414.953 55.646,415.183 55.552,415.5C55.421,415.947 54.678,416.023 54.547,416.47C53.865,416.571 53.182,416.673 52.5,416.774L51.057,417.814C47.884,412.351 48.844,411.892 48.411,411.563C47.227,410.663 46.047,411.169 44.957,404.43C47.323,405.673 47.148,406.192 49.753,406.077C51.228,406.029 51.124,405.936 52.326,405.239C52.505,404.319 53.771,382.795 51.465,382.593C44.043,381.944 44.127,382.583 43.496,382.49C43.013,382.418 42.897,381.571 42.414,381.5L41.521,382.5L41.308,383.5L41.325,384.5L41.414,385.5L41.495,386.5L41.624,387.5L41.659,388.5L41.986,389.5L42.5,390.346C42.781,390.501 44.932,390.399 44.876,393.407C44.865,393.972 44.797,397.633 44.582,400.465C39.67,398.053 40.335,396.556 39.548,384.497C39.049,376.856 39.732,251.929 39.231,251.56C38.989,251.382 38.95,251.644 35.685,250.329C33.608,248.342 33.371,248.948 30.506,249.017C21.93,248.487 21.934,248.714 19.705,248.093C19.423,248.015 19.422,248.015 18.427,244.671C26.484,244.74 26.624,243.242 26.687,242.562C26.694,242.482 26.714,223.343 26.642,222.458C26.479,220.43 25.391,221.27 7.5,220.921L6.5,221.216L5.032,222.487C4.955,219.965 4.976,220.055 5.039,217.524L6.5,217.969C26.086,219.458 26.644,218.151 26.674,216.533C27.047,196.224 27.349,195.59 25.7,195.123C24.37,194.747 24.338,195.229 8.428,195.02C6.92,195 6.569,194.993 6.496,196.5C6.097,204.792 6.747,204.824 6.499,205.5C6.295,206.056 5.234,205.943 5.03,206.498C5.012,204.819 4.825,188.213 5.023,185.502C5.189,186.07 6.324,185.932 6.491,186.5C6.866,187.779 6.433,189.168 6.49,190.5C6.561,192.182 6.848,192.261 8.532,192.223C14.583,192.086 26.128,192.735 26.544,191.529C26.813,190.747 26.67,168.66 26.644,168.454C26.257,165.319 8.106,167.144 6.5,167.306L6.499,168.5L6.499,169.5C5.98,170.164 5.461,170.828 4.942,171.493C4.943,166.964 4.868,167.048 5.041,162.51L6.642,163.5L6.5,164.078C8.002,164.259 15.968,165.215 25.411,164.272C26.311,164.183 26.85,163.829 26.683,143.485C26.658,140.473 25.001,141.799 12.437,141.193C9.983,141.074 9.431,142.199 9.09,142.314C9.19,141.582 9.21,137.885 9.212,137.5C13.4,139.963 13.678,138.408 18.5,138.405C19.151,138.405 26.447,138.402 26.592,137.554C26.615,137.418 27.019,114.357 26.341,113.661C23.303,110.542 22.014,112.23 21.102,116.5C20.384,119.86 17.513,119.832 17.5,119.824C16.907,119.446 16.785,118.547 16.192,118.169L16.498,117.498C17.629,117.202 17.486,117.087 18.41,116.443C18.742,114.741 19.099,109.561 21.567,108.666C25.489,107.242 24.13,105.007 28.14,104.018C33.654,101.34 33.814,101.638 34.093,101.19C37.205,96.191 44.432,99.976 48.49,96.481C52.933,92.655 53.631,93.424 112.5,93.342C148.015,93.293 150.521,93.999 150.362,89.559C149.116,88.848 142.367,87.186 141.19,85.861C139.223,83.648 139.324,83.42 136.337,82.855C132.181,82.069 130.237,77.653 129.575,77.388C125.312,75.677 125.766,74.955 124.653,70.44C124.051,68 121.274,69.498 121.143,65.556C120.755,53.821 120.917,53.143 124.51,51.504C124.613,50.851 125.484,45.345 127.769,43.908C133.223,40.477 131.169,37.029 137.523,36.532C138.087,36.428 138.651,36.324 139.215,36.22C139.174,35.523 139.134,34.826 139.093,34.128L139.548,33.572C141.955,32.674 141.961,32.97 144.362,32.276C144.845,29.409 143.993,28.248 148.406,27.151C151.473,26.389 149.637,24.057 152.615,22.824C156.437,21.242 154.584,18.9 158.459,17.361C161.778,16.043 160.459,14.289 163.701,12.913C166.759,11.615 165.442,9.845 171.561,6.599C172.844,5.919 177.849,3.264 189.513,3.908C201.668,4.58 202.209,2.763 207.56,6.401C211.949,9.386 210.434,10.372 211.164,15.63L209.5,14.185L208.845,13.5L208.5,12.874L207.568,13.5L207.5,12.811L206.878,12.5L206.108,11.5L205.689,10.5L205.089,9.5L204.5,8.444L203.5,7.594L202.5,7.455L191.5,7.455C187.327,8.676 189.087,10.164 189.089,14.5C189.095,26.098 188.537,30.403 190.455,30.642C198.755,31.673 212.775,30.677 214.711,30.54C216.134,31.933 216.078,31.875 217.487,33.173C216.994,33.523 216.944,32.881 216.488,33.206C216.431,33.247 216.141,33.453 216.244,34.057C216.622,36.28 216.9,36.148 216.915,38.5C217.035,56.539 216.665,58.492 218.48,58.568C224.551,58.822 224.59,58.38 226.853,56.324C228.57,56.266 234.654,56.369 235.332,56.381C235.991,53.64 236.206,53.74 236.236,53.5L235.056,52.158C238.354,46.426 234.775,43.348 239.575,40.551C242.655,38.756 238.512,29.632 245.581,28.546C245.773,30.019 245.72,29.972 246.175,31.447C246.136,30.425 246.098,29.402 246.059,28.379C247.081,21.554 245.393,20.442 249.255,18.289C252.381,16.546 248.477,12.277 256.188,6.286C256.296,6.147 257.538,4.553 257.538,4.553C261.084,3.009 266.679,3.85 267.466,3.968C278.678,5.653 281.657,1.202 291.704,7.194C296.111,9.822 294.933,11.352 299.567,13.346C300.831,13.889 301.344,16.97 303.468,17.604C306.116,18.395 306.013,18.73 306.743,21.382C309.225,24.314 311.179,21.977 312.083,24.683C313.062,27.617 314.188,26.503 316.594,28.418C316.686,30.152 316.573,30.119 317.219,31.754L317.403,32.704C317.74,32.714 319.432,32.763 321.594,32.382L322.651,33.351C322.495,35.681 322.205,36.379 324.5,36.701L325.812,36.148C325.947,36.256 327.497,37.505 327.497,37.505C332.62,39.347 330.767,42.072 332.885,43.007C336.667,44.677 335.268,45.976 337.869,49.191C344.418,52.909 341.662,66.375 339.365,68.382C336.646,70.759 336.824,70.894 336.052,74.369C335.389,77.356 323.554,84.337 317.368,87.196C301.357,94.599 323.955,93.325 346.504,93.34C409.036,93.383 409.774,92.983 412.699,96.194C415.441,99.205 426.946,97.967 428.241,99.823C431.751,104.851 434.117,102.239 437.724,107.26C439.08,109.147 439.79,108.056 441.561,109.454C442.4,112.547 442.466,112.421 442.765,114.388C442.796,115.854 442.886,115.762 442.932,117.257C442.522,116.715 441.449,117.042 441.039,116.5C440.635,115.966 440.958,115.16 440.846,114.5C440.344,111.546 432.181,113.207 431.438,113.358C429.374,113.778 430.541,138.011 430.754,138.177C431.042,138.403 451.847,138.626 452.291,138.475C452.328,140.43 452.321,140.417 452.331,140.586C452.359,141.055 452.589,140.937 452.619,141.427C453.246,142.071 453.873,142.715 454.5,143.359L455.03,144.5L457.235,145.517C457.506,215.995 457.309,220.059 456.996,226.533L455.17,225.5L455.186,224.5L455.201,223.5L455.215,222.5L454.5,221.011C431.464,221.026 431.508,220.994 431.275,221.107C429.992,221.732 430.395,226.879 430.395,235.5C430.395,241.353 428.573,243.966 434.483,244.18C442.864,244.484 442.798,244.625 443.517,244.543C443.136,245.639 442.655,245.477 442.798,246.611C442.879,247.26 442.749,247.21 442.835,247.897L442.421,248.257C431.66,249.345 427.68,246.86 427.537,253.5C427.014,277.782 428.311,292.176 426.785,314.511C426.253,322.309 427.73,378.808 425.275,381.361C424.675,381.986 424.674,381.89 422.299,383.468C422.155,386.149 422.01,388.831 421.866,391.512C421.267,390.841 420.669,390.171 420.07,389.5L420.137,388.5L420.179,387.5L420.179,386.5L420.269,385.5L420.344,384.5L420.305,383.5C418.273,382.408 418.227,382.432 406.506,382.555C404.314,382.578 404.33,383.673 404.468,402.5C404.499,406.709 406.388,405.375 410.544,405.7C410.891,405.733 411.237,405.765 411.583,405.798C413.723,405.68 413.739,405.744 415.5,404.599L415.746,403.5L415.855,402.5L415.936,401.5L416.183,400.5L416.769,399.5L417.297,398.5L417.363,397.5L418.095,396.5L419.5,395.63L420.165,394.5L421.782,393.516C421.539,398.455 423.293,399.428 420.118,401.206C415.507,403.786 419.267,407.863 413.826,410.947C410.896,412.608 413.218,417.598 409.453,419.427C406.495,420.863 407.263,421.568 405.287,424.274C404.112,425.881 402.504,425.412 402.452,425.433C402.793,422.823 401.443,422.799 402.43,420.441C402.707,419.779 401.653,419.801 401.62,411.499C401.611,409.198 401.804,408.455 399.507,408.433C378.31,408.23 377.997,407.419 376.82,408.8C375.555,410.283 378.109,425.746 375.5,431.999ZM188.489,248.877C189.467,248.916 199.953,249.33 200.428,251.518C200.748,252.991 200.873,368.336 200.884,378.494C200.93,380.493 200.977,382.492 201.024,384.491C201.017,387.489 201.011,390.488 201.005,393.486C200.579,397.468 201.086,400.015 197.497,400.063C190.618,400.153 190.629,399.822 111.513,399.975C110.613,399.981 100.393,400.047 100.37,398.5C100.363,398.029 100.776,397.619 100.78,397.148C100.793,395.688 90.309,396.831 89.476,394.529C88.296,391.268 86.323,392.838 84.765,389.371C83.681,386.959 83.423,387.221 81.494,385.505C77.889,382.296 80.23,302.426 79.549,270.5C79.129,250.849 80.059,250.351 81.542,249.557C85.32,247.536 172.178,249.626 188.489,248.877ZM377.489,248.906C379.657,249.178 379.813,248.539 382.003,249.922C383.301,253.956 382.943,376.824 381.825,383.591C381.494,385.592 378.479,386.139 377.782,387.627C376.816,389.687 376.884,389.656 375.5,391.5C374.08,392.285 373.551,391.713 372.283,394.282C369.797,396.349 369.586,395.74 366.458,396.287C365.208,396.371 359.575,396.137 356.5,398.021L355.485,400.037C303.271,399.795 262.899,400.667 261.606,399.394C261.322,399.115 261.213,398.69 260.93,398.411C260.957,397.428 260.984,396.445 261.011,395.462C261.363,380.95 261.321,381.028 261.588,366.5C261.961,363.921 262.132,363.979 261.564,361.5C261.278,351.443 261.277,351.536 261.513,341.5C261.957,336.211 262.722,336.199 261.392,330.505L261.338,326.484C261.355,324.489 261.373,322.494 261.391,320.499C261.474,319.864 261.947,320.166 262.036,319.492C262.402,316.71 262.156,316.779 262.391,311.496C262.36,306.775 262.053,259.241 262.348,252.48C262.446,250.251 263.016,250.358 265.239,250.112C271.132,247.232 273.186,249.377 377.489,248.906ZM85.819,385.378C84.42,382.865 83.155,383.431 83.13,380.497C83.117,379.008 83.128,270.112 83.129,260.514C83.129,254.185 81.19,251.328 87.498,251.258C103.052,251.085 103.196,251.124 104.507,251.486C110.197,253.057 115.552,250.023 121.343,251.796C124.592,252.791 127.485,251.363 128.483,251.549C138.921,253.489 140.105,251.1 142.486,251.539C150.52,253.018 190.969,251.571 193.558,252.186C196.255,252.827 194.256,271.063 195.002,275.567C197.22,288.947 195.388,289 195.885,302.499C195.932,303.783 197.21,304.586 197.043,308.51C196.172,329.013 197.657,328.922 197.712,349.5C197.734,358.015 199.23,357.819 199.131,358.544C198.172,365.585 199.51,393.259 198.438,394.418C197.32,395.625 197.033,394.865 191.505,394.861C121.281,394.805 95.718,395.559 92.58,392.407C87.449,387.254 86.922,387.936 86.578,387.415C86.18,386.809 86.217,385.983 85.819,385.378ZM266.806,313.661C267.381,306.53 268.125,306.682 268.143,299.501C268.139,285.501 268.135,271.502 268.131,257.502C268.126,253.13 267.132,251.295 271.501,251.267C291.794,251.136 291.682,251.697 294.53,252.114C295.559,252.265 295.499,251.102 307.505,251.255C310.186,251.289 310.01,252.121 312.506,252.131C379.409,252.406 380.987,251.464 380.783,253.421C380.484,256.284 380.892,256.293 380.874,367.5C380.873,377.589 381.716,378.007 380.162,379.149C378.906,380.073 378.982,382.797 377.17,384.108C375.317,385.448 375.26,385.378 374.511,387.506C374.324,388.039 374.029,387.702 369.436,392.422C366.201,395.746 328.423,394.769 286.502,394.806C277.894,394.813 277.877,393.792 269.535,395.798C262.537,397.482 269.214,385.982 266.428,378.541C265.678,376.538 266.261,351.033 266.082,337.503C266.041,334.378 267.145,334.57 267.169,331.488C267.252,320.888 267.281,319.872 266.436,317.534C265.679,315.437 266.653,314.083 266.806,313.661ZM51.682,138.928C52.955,138.792 54.228,138.657 55.501,138.521C57.441,138.305 171.701,137.377 189.274,138.915C190.804,141.443 190.257,141.649 190.086,154.495C189.648,156.553 189.657,156.489 190.127,158.502C189.921,162.865 190.543,201.937 190.03,202.397C186.013,205.997 153.134,204.048 110.5,204.49C105.698,204.54 52.576,205.091 50.476,204.668C50.045,204.581 50.225,204.376 45.408,202.526C45.112,176.938 45.261,177.012 45.339,151.471C47.018,150.594 46.94,150.556 47.98,148.921C49.881,144.726 49.201,144.564 51.202,140.344L51.368,139.335L51.682,138.928ZM58.503,140.193C61.871,139.946 181.523,140.331 182.536,140.272C185.056,140.125 184.894,140.991 184.917,143.49C184.96,147.981 185.427,197.082 184.839,199.619C184.178,202.474 166.212,202.273 162.638,201.199C161.202,200.767 161.175,201.937 138.508,201.779C133.4,201.743 76.251,201.344 74.656,201.929C68.485,204.192 67.801,201.97 53.511,203.097C53.118,203.128 50.176,203.36 50.131,199.511C50.091,196.171 50.124,155.346 50.128,151.506C50.129,149.24 49.735,149.015 51.415,147.415C52.113,146.75 51.896,144.822 53.388,144.171C56.479,142.822 55.217,140.872 58.503,140.193ZM405.497,139.896C407.393,141.615 409.737,143.504 410.114,143.807L411.043,145.495C410.648,151.038 410.942,190.043 410.835,199.51C410.787,203.787 407.848,201.508 311.503,201.758C306.294,201.772 306.171,204.295 300.344,201.929C299.066,201.41 279.678,202.28 278.659,201.345C276.082,198.983 277.635,194.284 277.828,193.7C279.081,189.323 275.911,183.329 277.479,178.489C279.393,172.582 277.183,141.989 278.636,140.602C279.816,139.475 386.32,140.931 405.497,139.896ZM272.705,138.948C275.112,138.524 275.095,138.886 277.492,138.436L276.5,139.898C274.318,143.773 276.09,167.532 275.378,175.499C275.335,175.978 275.211,177.361 275.414,181.5L275.419,182.5L275.446,183.5L275.435,184.5L275.437,185.5L275.431,186.5L275.446,187.5L275.44,188.5C275.426,191.691 274.932,192.219 277.828,193.7C277.635,194.284 276.082,198.983 278.659,201.345C279.678,202.28 299.066,201.41 300.344,201.929C306.171,204.295 306.294,201.772 311.503,201.758C407.848,201.508 410.787,203.787 410.835,199.51C410.942,190.043 410.648,151.038 411.043,145.495C410.733,144.932 410.424,144.37 410.114,143.807C409.737,143.504 407.393,141.615 405.497,139.896C406.165,139.427 406.833,138.957 407.501,138.487C411.151,139.481 411.23,139.308 411.438,139.559C411.438,139.559 412.492,144.096 412.584,144.49C413.451,153.861 413.3,156.459 413.24,157.499C412.603,168.497 413.205,168.403 413.26,179.503C413.363,200.507 413.984,203.029 411.416,204.246C410.553,204.654 282.355,204.558 278.504,204.44C270.389,204.193 272.872,195.924 272.888,188.5C272.987,142.87 272.275,142.889 272.705,138.948ZM277.492,138.436C282.246,138.069 402.663,137.934 407.501,138.487C406.833,138.957 406.165,139.427 405.497,139.896C386.32,140.931 279.816,139.475 278.636,140.602C277.183,141.989 279.393,172.582 277.479,178.489C275.911,183.329 279.081,189.323 277.828,193.7C274.932,192.219 275.426,191.691 275.44,188.5L275.446,187.5L275.431,186.5L275.437,185.5L275.435,184.5L275.446,183.5L275.419,182.5L275.414,181.5C275.211,177.361 275.335,175.978 275.378,175.499C276.09,167.532 274.318,143.773 276.5,139.898L277.492,138.436ZM366.458,396.287L366.164,397.5C365.955,398.186 365.747,398.873 365.538,399.559C364.89,399.629 364.241,399.698 363.593,399.768C362.945,399.725 361.556,399.632 355.485,400.037L356.5,398.021C359.575,396.137 365.208,396.371 366.458,396.287ZM375.5,391.5L375.176,392.259C375.357,393.068 375.537,393.877 375.718,394.686C375.476,394.779 375.669,395.314 375.428,395.407C374.979,395.581 374.993,395.427 372.283,394.282C373.551,391.713 374.08,392.285 375.5,391.5ZM47.98,148.921C46.94,150.556 47.018,150.594 45.339,151.471C45.38,151.24 45.772,148.986 46.5,148.777C46.976,148.641 47.503,149.057 47.98,148.921Z" style="fill:rgb(29,29,29);fill-opacity:0.98;"/>
            <path d="M188.489,248.877C189.467,248.916 199.953,249.33 200.428,251.518C200.748,252.991 200.873,368.336 200.884,378.494C200.93,380.493 200.977,382.492 201.024,384.491C201.017,387.489 201.011,390.488 201.005,393.486C200.579,397.468 201.086,400.015 197.497,400.063C190.618,400.153 190.629,399.822 111.513,399.975C110.613,399.981 100.393,400.047 100.37,398.5C100.363,398.029 100.776,397.619 100.78,397.148C100.793,395.688 90.309,396.831 89.476,394.529C88.296,391.268 86.323,392.838 84.765,389.371C83.681,386.959 83.423,387.221 81.494,385.505C77.889,382.296 80.23,302.426 79.549,270.5C79.129,250.849 80.059,250.351 81.542,249.557C85.32,247.536 172.178,249.626 188.489,248.877ZM85.819,385.378C84.42,382.865 83.155,383.431 83.13,380.497C83.117,379.008 83.128,270.112 83.129,260.514C83.129,254.185 81.19,251.328 87.498,251.258C103.052,251.085 103.196,251.124 104.507,251.486C110.197,253.057 115.552,250.023 121.343,251.796C124.592,252.791 127.485,251.363 128.483,251.549C138.921,253.489 140.105,251.1 142.486,251.539C150.52,253.018 190.969,251.571 193.558,252.186C196.255,252.827 194.256,271.063 195.002,275.567C197.22,288.947 195.388,289 195.885,302.499C195.932,303.783 197.21,304.586 197.043,308.51C196.172,329.013 197.657,328.922 197.712,349.5C197.734,358.015 199.23,357.819 199.131,358.544C198.172,365.585 199.51,393.259 198.438,394.418C197.32,395.625 197.033,394.865 191.505,394.861C121.281,394.805 95.718,395.559 92.58,392.407C87.449,387.254 86.922,387.936 86.578,387.415C86.18,386.809 86.217,385.983 85.819,385.378Z" style="fill:rgb(162,162,162);fill-opacity:0.12;"/>
            <path d="M377.489,248.906C379.657,249.178 379.813,248.539 382.003,249.922C383.301,253.956 382.943,376.824 381.825,383.591C381.494,385.592 378.479,386.139 377.782,387.627C376.816,389.687 376.884,389.656 375.5,391.5C374.08,392.285 373.551,391.713 372.283,394.282C369.797,396.349 369.586,395.74 366.458,396.287C365.208,396.371 359.575,396.137 356.5,398.021L355.485,400.037C303.271,399.795 262.899,400.667 261.606,399.394C261.322,399.115 261.213,398.69 260.93,398.411C260.957,397.428 260.984,396.445 261.011,395.462C261.363,380.95 261.321,381.028 261.588,366.5C261.961,363.921 262.132,363.979 261.564,361.5C261.278,351.443 261.277,351.536 261.513,341.5C261.957,336.211 262.722,336.199 261.392,330.505L261.338,326.484C261.355,324.489 261.373,322.494 261.391,320.499C261.474,319.864 261.947,320.166 262.036,319.492C262.402,316.71 262.156,316.779 262.391,311.496C262.36,306.775 262.053,259.241 262.348,252.48C262.446,250.251 263.016,250.358 265.239,250.112C271.132,247.232 273.186,249.377 377.489,248.906ZM266.806,313.661C267.381,306.53 268.125,306.682 268.143,299.501C268.139,285.501 268.135,271.502 268.131,257.502C268.126,253.13 267.132,251.295 271.501,251.267C291.794,251.136 291.682,251.697 294.53,252.114C295.559,252.265 295.499,251.102 307.505,251.255C310.186,251.289 310.01,252.121 312.506,252.131C379.409,252.406 380.987,251.464 380.783,253.421C380.484,256.284 380.892,256.293 380.874,367.5C380.873,377.589 381.716,378.007 380.162,379.149C378.906,380.073 378.982,382.797 377.17,384.108C375.317,385.448 375.26,385.378 374.511,387.506C374.324,388.039 374.029,387.702 369.436,392.422C366.201,395.746 328.423,394.769 286.502,394.806C277.894,394.813 277.877,393.792 269.535,395.798C262.537,397.482 269.214,385.982 266.428,378.541C265.678,376.538 266.261,351.033 266.082,337.503C266.041,334.378 267.145,334.57 267.169,331.488C267.252,320.888 267.281,319.872 266.436,317.534C265.679,315.437 266.653,314.083 266.806,313.661Z" style="fill:rgb(153,153,153);fill-opacity:0.13;"/>
            <path d="M51.682,138.928C52.955,138.792 54.228,138.657 55.501,138.521C57.441,138.305 171.701,137.377 189.274,138.915C190.804,141.443 190.257,141.649 190.086,154.495C189.648,156.553 189.657,156.489 190.127,158.502C189.921,162.865 190.543,201.937 190.03,202.397C186.013,205.997 153.134,204.048 110.5,204.49C105.698,204.54 52.576,205.091 50.476,204.668C50.045,204.581 50.225,204.376 45.408,202.526C45.112,176.938 45.261,177.012 45.339,151.471C47.018,150.594 46.94,150.556 47.98,148.921C49.881,144.726 49.201,144.564 51.202,140.344L51.368,139.335L51.682,138.928ZM58.503,140.193C61.871,139.946 181.523,140.331 182.536,140.272C185.056,140.125 184.894,140.991 184.917,143.49C184.96,147.981 185.427,197.082 184.839,199.619C184.178,202.474 166.212,202.273 162.638,201.199C161.202,200.767 161.175,201.937 138.508,201.779C133.4,201.743 76.251,201.344 74.656,201.929C68.485,204.192 67.801,201.97 53.511,203.097C53.118,203.128 50.176,203.36 50.131,199.511C50.091,196.171 50.124,155.346 50.128,151.506C50.129,149.24 49.735,149.015 51.415,147.415C52.113,146.75 51.896,144.822 53.388,144.171C56.479,142.822 55.217,140.872 58.503,140.193Z" style="fill:rgb(164,164,164);fill-opacity:0.16;"/>
            <path d="M400.5,431.999L392.5,431.999C397.754,429.133 399.053,426.366 399.403,426.274C400.958,425.863 400.907,425.957 402.452,425.433C402.504,425.412 404.112,425.881 405.287,424.274C407.263,421.568 406.495,420.863 409.453,419.427C413.218,417.598 410.896,412.608 413.826,410.947C419.267,407.863 415.507,403.786 420.118,401.206C423.293,399.428 421.539,398.455 421.782,393.516L421.866,391.512C422.01,388.831 422.155,386.149 422.299,383.468C424.674,381.89 424.675,381.986 425.275,381.361C427.73,378.808 426.253,322.309 426.785,314.511C428.311,292.176 427.014,277.782 427.537,253.5C427.68,246.86 431.66,249.345 442.421,248.257C443.65,248.149 443.563,248.148 444.744,247.686C444.108,247.756 443.471,247.826 442.835,247.897C442.749,247.21 442.879,247.26 442.798,246.611C442.655,245.477 443.136,245.639 443.517,244.543C445.029,244.547 444.967,244.535 446.511,244.55C452.913,244.616 451.662,240.137 453.519,238.518C458.531,234.148 456.45,233.139 456.996,226.533C457.309,220.059 457.506,215.995 457.235,145.517L457.226,139.522L457.248,135.548C455.483,134.383 455.571,134.442 453.728,133.418C451.942,126.304 452.155,124.042 450.641,123.268C447.084,121.45 448.257,120.36 445.829,117.132C444.539,115.493 444.471,115.687 442.765,114.388C442.466,112.421 442.4,112.547 441.561,109.454C439.79,108.056 439.08,109.147 437.724,107.26C434.117,102.239 431.751,104.851 428.241,99.823C426.946,97.967 415.441,99.205 412.699,96.194C409.774,92.983 409.036,93.383 346.504,93.34C323.955,93.325 301.357,94.599 317.368,87.196C323.554,84.337 335.389,77.356 336.052,74.369C336.824,70.894 336.646,70.759 339.365,68.382C341.662,66.375 344.418,52.909 337.869,49.191C335.268,45.976 336.667,44.677 332.885,43.007C330.767,42.072 332.62,39.347 327.497,37.505C327.497,37.505 325.947,36.256 325.812,36.148C325.189,33.985 324.59,34.535 322.651,33.351L321.594,32.382C319.504,30.828 320.008,30.02 317.485,29.512C317.188,29.148 316.891,28.783 316.594,28.418C314.188,26.503 313.062,27.617 312.083,24.683C311.179,21.977 309.225,24.314 306.743,21.382C306.013,18.73 306.116,18.395 303.468,17.604C301.344,16.97 300.831,13.889 299.567,13.346C294.933,11.352 296.111,9.822 291.704,7.194C281.657,1.202 278.678,5.653 267.466,3.968C266.679,3.85 261.084,3.009 257.538,4.553C257.538,4.553 256.296,6.147 256.188,6.286C248.477,12.277 252.381,16.546 249.255,18.289C245.393,20.442 247.081,21.554 246.059,28.379L245.581,28.546C238.512,29.632 242.655,38.756 239.575,40.551C234.775,43.348 238.354,46.426 235.056,52.158C231.207,53.247 231.194,53.251 226.979,52.224C225.426,43.329 225.871,39.875 222.486,38.512C220.347,37.651 221.21,37.008 220.587,33.478C219.904,29.736 221.254,28.714 217.754,27.197C216.668,26.727 216.532,26.321 215.868,23.385C214.913,19.197 216.621,17.586 212.45,16.555C211.644,16.356 211.838,16.115 211.164,15.63C210.434,10.372 211.949,9.386 207.56,6.401C202.209,2.763 201.668,4.58 189.513,3.908C177.849,3.264 172.844,5.919 171.561,6.599C165.442,9.845 166.759,11.615 163.701,12.913C160.459,14.289 161.778,16.043 158.459,17.361C154.584,18.9 156.437,21.242 152.615,22.824C149.637,24.057 151.473,26.389 148.406,27.151C143.993,28.248 144.845,29.409 144.362,32.276C141.961,32.97 141.955,32.674 139.548,33.572C137.937,34.638 137.788,34.577 137.523,36.532C131.169,37.029 133.223,40.477 127.769,43.908C125.484,45.345 124.613,50.851 124.51,51.504C120.917,53.143 120.755,53.821 121.143,65.556C121.274,69.498 124.051,68 124.653,70.44C125.766,74.955 125.312,75.677 129.575,77.388C130.237,77.653 132.181,82.069 136.337,82.855C139.324,83.42 139.223,83.648 141.19,85.861C142.367,87.186 149.116,88.848 150.362,89.559C150.521,93.999 148.015,93.293 112.5,93.342C53.631,93.424 52.933,92.655 48.49,96.481C44.432,99.976 37.205,96.191 34.093,101.19C33.814,101.638 33.654,101.34 28.14,104.018C24.13,105.007 25.489,107.242 21.567,108.666C19.099,109.561 18.742,114.741 18.41,116.443C17.773,116.795 17.136,117.146 16.498,117.498L16.192,118.169C14.261,120.874 15.452,121.563 14.192,122.287C13.335,122.779 12.356,123.022 11.457,123.43C10.063,124.062 9.184,132.614 9.1,133.432C8.567,133.595 8.033,133.758 7.5,133.921C4.729,136.885 5.446,137.279 5.224,147.485C5.206,155.05 5.188,154.982 5.041,162.51C4.868,167.048 4.943,166.964 4.942,171.493C5.194,179.516 5.055,184.382 5.023,185.502C4.825,188.213 5.012,204.819 5.03,206.498C5.377,212.959 5.089,214.35 5.039,217.524C4.976,220.055 4.955,219.965 5.032,222.487C5.47,235.127 5.394,235.1 6.12,236.859C7.31,237.472 7.243,237.433 8.536,237.476C8.841,238.002 8.778,237.926 9.49,239.502L8.024,241.535C4.897,238.705 3.089,239.997 2.883,236.47C1.323,209.78 3.13,209.73 2.502,207.499C0.357,199.892 3.283,180.257 2.506,177.496C0.418,170.081 2.754,166.804 2.762,153.507C2.775,133.207 2.409,132.693 7.157,127.175C7.854,126.365 7.798,121.747 8.343,121.334C10.201,119.926 12.985,121.022 13.873,114.513C14.279,111.537 16.25,112.538 16.85,109.528C17.394,106.8 20.925,105.938 22.434,104.426C24.739,102.115 24.382,101.718 27.515,100.531C27.74,100.446 29.776,97.968 35.66,95.992C37.204,95.474 39.064,96.687 41.635,94.647C47.355,90.11 48.1,90.833 97.5,90.831C136.665,90.829 136.624,90.783 141.468,91.179C143.185,91.191 144.833,91.609 143.539,90.489C142.956,89.985 142.958,90.082 142.323,89.636C135.331,86.853 129.394,82.903 129.262,82.621C127.7,79.262 126.852,80.111 123.766,78.035C122.66,77.291 122.999,74.827 122.129,73.758C118.088,68.796 118.726,68.311 118.848,53.492C118.888,48.675 122.206,47.235 122.518,46.509C123.865,43.374 123.273,42.845 126.342,41.197C129.523,39.489 127.899,38.029 130.679,35.687C135.003,32.045 135.062,32.029 135.538,31.9C140.013,30.692 138.087,27.888 142.354,26.185C147.28,24.219 146.462,23.093 150.776,19.944C153.107,18.243 151.701,16.678 154.535,15.901C159.602,14.51 157.869,11.88 162.614,9.829C164.874,8.853 163.163,7.157 165.378,6.236C171.442,3.717 170.882,1.892 177.493,1.831C204.408,1.582 204.436,1.327 206.621,2.138C215.436,5.406 211.583,10.717 214.403,11.808C214.85,11.981 217.836,13.137 218.114,16.516C218.493,21.126 217.868,21.545 221.334,24.667C223.178,26.327 220.6,32.076 226.347,36.7C228.934,38.782 227.779,39.394 228.25,46.538C228.317,47.553 229.305,47.792 229.442,47.825C236.005,49.411 234.393,39.166 235.817,37.93C241.45,33.037 236.082,29.36 241.748,25.969C247.127,22.749 242.618,17.691 246.588,15.842C249.29,14.583 248.237,5.641 256.367,2.195C259.878,0.707 285.017,1.759 287.506,1.863C291.366,2.025 295.052,5.665 295.397,5.804C298.18,6.924 296.693,8.649 299.405,9.831C305.459,12.471 303.501,15.311 305.44,15.756C308.645,16.49 307.62,18.041 310.461,19.562C316.027,22.543 314.626,24.904 319.471,25.866C322.78,26.523 324.2,30.94 325.505,31.492C327.563,32.362 327.346,32.613 328.597,34.395C329.83,36.15 332.324,33.956 333.221,38.54C333.895,41.984 337.295,39.713 338.105,43.532C338.744,46.542 339.846,45.695 343.304,48.725C344.373,49.662 344.944,50.163 344.143,66.473C343.965,70.093 338.736,72.709 338.211,75.476C337.258,80.491 334.713,78.819 332.051,83.242C331.439,84.259 328.97,84.052 327.852,84.906C320.255,90.712 319.272,88.932 318.884,89.644C317.405,92.359 320.49,90.843 357.5,90.83C414.243,90.81 414.933,90.278 420.341,94.666C423.153,96.948 430.728,94.39 433.195,99.603C434.117,101.552 437.798,100.801 438.662,102.358C439.027,103.015 439.165,103.794 439.597,104.409C439.922,104.87 442.521,105.942 443.054,106.753C448.511,115.054 448.942,114.698 449.114,115.533C449.849,119.092 450.437,118.8 453.374,121.635C456.19,124.352 453.385,126.343 456.667,128.01C459.287,129.34 459.155,130.128 459.143,161.5C459.112,238.157 459.479,238.942 457.644,239.779C454.295,241.305 455.254,242.264 453.087,245.276C451.682,247.229 450.134,245.222 449.194,247.406C446.663,253.292 442.536,247.905 439.735,250.832C439.273,251.315 431.503,251.219 430.897,251.78C429.282,253.276 430.496,366.097 430.143,374.468C430.128,374.809 429.257,376.986 429.218,377.452C428.862,381.643 427.939,381.383 427.092,385.482C426.684,387.458 425.463,387.078 425.21,388.428C423.278,398.731 424.377,400.032 424.097,402.465C423.459,408.017 419.69,406.571 419.235,408.447C418.124,413.029 411.747,421.702 411.619,421.761C406.363,424.184 408.847,427.276 405.459,428.127C402.295,428.923 402.886,429.785 400.5,431.999Z" style="fill:rgb(170,170,170);fill-opacity:0.11;"/>
            <path d="M272.705,138.948C275.112,138.524 275.095,138.886 277.492,138.436L276.5,139.898C274.318,143.773 276.09,167.532 275.378,175.499C275.335,175.978 275.211,177.361 275.414,181.5L275.419,182.5L275.446,183.5L275.435,184.5L275.437,185.5L275.431,186.5L275.446,187.5L275.44,188.5C275.426,191.691 274.932,192.219 277.828,193.7C277.635,194.284 276.082,198.983 278.659,201.345C279.678,202.28 299.066,201.41 300.344,201.929C306.171,204.295 306.294,201.772 311.503,201.758C407.848,201.508 410.787,203.787 410.835,199.51C410.942,190.043 410.648,151.038 411.043,145.495C410.733,144.932 410.424,144.37 410.114,143.807C409.737,143.504 407.393,141.615 405.497,139.896C406.165,139.427 406.833,138.957 407.501,138.487C411.151,139.481 411.23,139.308 411.438,139.559C411.438,139.559 412.492,144.096 412.584,144.49C413.451,153.861 413.3,156.459 413.24,157.499C412.603,168.497 413.205,168.403 413.26,179.503C413.363,200.507 413.984,203.029 411.416,204.246C410.553,204.654 282.355,204.558 278.504,204.44C270.389,204.193 272.872,195.924 272.888,188.5C272.987,142.87 272.275,142.889 272.705,138.948Z" style="fill:rgb(180,180,180);fill-opacity:0.14;"/>
            <path d="M69.5,431.999L63.5,431.999C60.13,428.879 60.123,428.746 55.535,428.125C52.427,427.703 54.681,424.503 50.742,422.052C47.318,419.923 47.896,417.715 47.11,416.819C43.987,413.261 44.153,413.101 43.776,408.455C43.675,407.213 37.147,399.214 36.902,394.463C36.439,385.492 37.828,384.935 34.677,381.353C33.64,380.173 33.864,378.042 33.882,356.501C33.923,355.5 33.964,354.5 34.005,353.499C34.197,353.06 34.856,352.948 35.049,352.508C35.456,351.581 35.242,346.61 35.445,330.497C36.122,327.287 36.433,325.806 36.165,289.496C36.177,282.933 36.21,283.027 36.236,276.498L36.302,271.508C36.565,251.415 36.134,251.4 35.685,250.329C38.95,251.644 38.989,251.382 39.231,251.56C39.732,251.929 39.049,376.856 39.548,384.497C40.335,396.556 39.67,398.053 44.582,400.465C44.707,401.787 44.832,403.108 44.957,404.43C46.047,411.169 47.227,410.663 48.411,411.563C48.844,411.892 47.884,412.351 51.057,417.814C52.179,419.83 52.383,419.557 54.527,420.482C55.556,424.104 55.697,425.155 57.52,425.44C59.535,425.754 61.568,425.957 63.569,426.35C64.794,426.591 65.266,429.903 65.947,430.177C66.726,430.491 67.658,430.346 68.405,430.729C68.902,430.984 69.003,431.744 69.5,431.999Z" style="fill:rgb(139,139,139);fill-opacity:0.53;"/>
            <path d="M268.186,169.5L268.186,190.5L268.098,191.5C266.363,192.234 265.942,192.413 244.559,192.217C242.738,192.2 242.401,191.256 242.865,169.517C242.902,167.791 242.634,167.19 244.393,167.138C255.573,166.805 255.492,167.547 266.62,167.142C268.362,167.078 267.977,167.765 268.186,169.5Z"/>
            <path d="M246.008,32.113C246.359,32.29 246.343,33.303 248.459,33.353C265.061,33.739 265.052,33.485 266.495,33.519C266.65,33.523 267.957,33.553 268.045,34.686C268.106,35.477 268.103,56.887 268.053,57.344C267.924,58.509 267.369,58.718 245.495,58.609C243.417,58.598 242.936,58.571 242.875,56.466C242.504,43.744 242.537,43.591 242.779,42.5L242.839,41.5L242.906,40.5L242.95,39.5L243.088,38.5L243.309,37.5L243.935,36.5L244.356,35.5L244.489,34.5C243.563,32.906 241.477,32.964 243.053,32.03C243.554,31.733 244.082,32.605 244.648,32.739C244.648,32.739 245.899,32.163 246.008,32.113Z" style="fill-opacity:1;"/>
            <path d="M242.865,124.5C242.876,121.183 242.568,113.835 243.481,113.475C243.923,113.301 247.178,113.301 247.5,113.301C265.406,113.301 268.031,112.555 268.081,115.531C268.443,136.932 268.928,137.363 267.38,138.329C267.221,138.428 244.503,138.495 243.648,138.28C242.528,137.999 242.866,131.349 242.865,124.5Z"/>
            <path d="M214.797,33.202C213.702,45.325 214.524,45.254 214.175,57.363C214.14,58.599 209.887,58.61 209.5,58.611C190.035,58.663 189.483,58.756 189.193,57.67C189.029,57.052 189.03,35.177 189.202,34.313C189.545,32.591 207.498,34.08 214.797,33.202Z"/>
            <path d="M190.5,137.366C189.332,136.035 188.743,136.249 189.087,134.575C189.116,134.432 189.025,114.928 189.164,114.326C189.607,112.4 213.887,113.213 214.101,113.866C214.329,114.563 214.227,136.905 214.178,137.324C213.995,138.918 206.347,138.401 200.5,138.405C193.58,138.411 193.126,139.751 190.5,137.366Z" style="fill-opacity:1;"/>
            <path d="M455.105,191.5C454.214,191.888 454.392,192.251 453.433,192.227C445.316,192.025 430.904,192.843 430.506,191.496C430.296,190.785 430.416,168.499 430.418,168.474C430.57,166.801 431.517,167.301 454.5,167.022L455.015,167.5L455.242,168.5L455.242,172.5L455.251,173.5L455.251,185.5L455.242,186.5L455.242,190.5L455.105,191.5Z"/>
            <path d="M268.5,431.999L242.5,431.999C243.775,416.274 241.859,409.455 243.552,408.569C244.063,408.302 266.431,408.452 266.511,408.46C269.859,408.781 266.957,422.666 268.5,431.999Z"/>
            <path d="M135.5,431.999L108.5,431.999C110.949,424.521 107.495,409 110.497,408.492C111.095,408.391 132.722,408.391 133.502,408.496C136.156,408.853 132.553,425.062 135.5,431.999Z"/>
            <path d="M214.5,431.999L188.5,431.999C190.485,423.977 187.287,408.609 190.49,408.468C192.375,408.384 213.112,407.466 214.068,408.921C214.558,409.666 213.8,425.423 214.5,431.999Z"/>
            <path d="M322.5,431.999L296.5,431.999C296.841,420.791 296.088,420.849 296.799,409.621C296.912,407.835 297.634,408.45 299.498,408.426C320.61,408.158 321.301,407.633 321.769,409.353C322.391,411.636 320.941,426.02 322.5,431.999Z"/>
            <path d="M268.177,209.51C268.163,210.241 268.393,217.908 267.234,218.129C266.615,218.247 244.625,218.213 243.753,218.129C242.12,217.971 242.792,195.608 243.325,195.32C244.327,194.779 267.797,194.968 267.94,195.121C268.29,195.491 268.246,196.13 268.596,196.5L268.596,200.5C268.726,201.21 268.962,202.493 268.177,209.51Z"/>
            <path d="M268.154,162.5C267.838,163.264 268.688,164.329 266.447,164.299C258.478,164.194 243.902,164.767 243.123,163.791C242.636,163.182 242.874,142.113 242.981,141.862C243.721,140.124 244.331,140.878 266.582,141.237C268.49,141.268 267.857,142.262 268.154,142.5L268.154,162.5Z"/>
            <path d="M242.865,72.5C242.9,65.221 239.221,61.391 246.5,61.389C266.125,61.382 268.062,60.74 268.08,63.534C268.209,84.264 267.631,84.294 267.425,84.408C266.959,84.668 244.041,84.604 243.54,84.449C242.535,84.137 242.873,74.903 242.865,72.5Z"/>
            <path d="M229.5,246.856C231.856,246.857 239.915,246.42 240.08,247.756C240.213,248.822 240.218,270.563 240.092,271.244C239.932,272.107 239.567,272.156 219.518,272.082C217.308,272.074 217.044,271.759 217.03,269.534C217.02,267.861 216.906,249.474 216.994,248.625C217.264,246.011 223.502,246.871 229.5,246.856Z"/>
            <path d="M263.5,244.153C245.023,244.138 242.904,244.689 242.879,242.427C242.657,222.586 241.822,222.109 243.31,221.309C244.046,220.914 244.015,221.113 264.498,220.971C270.299,220.931 268.083,223.764 268.084,229.5C268.085,234.517 268.112,242.856 268.024,243.217C267.818,244.062 263.869,244.145 263.5,244.153Z"/>
            <path d="M242.865,100.5C242.9,89.517 242.882,89.587 242.903,88.639C242.944,86.747 244.02,86.902 266.524,87.415C268.079,87.451 268.212,88.252 268.079,108.46C268.071,109.672 267.872,110.395 266.494,110.478C265.693,110.526 245.126,110.531 244.505,110.477C241.989,110.261 242.877,102.587 242.865,100.5Z"/>
            <path d="M194.5,61.389C211.501,61.389 214.207,60.646 214.223,63.527C214.341,84.249 213.909,84.414 213.492,84.488C213.125,84.553 190.103,84.717 189.597,84.385C188.266,83.511 188.908,83.141 189.089,64.495C189.127,60.663 190.708,61.559 194.5,61.389Z"/>
            <path d="M240.17,368.5C240.155,373.231 240.991,379.536 238.557,379.73C238.204,379.759 219.037,379.783 218.438,379.708C215.819,379.383 217.219,377.977 216.978,358.501C216.937,355.19 217.265,354.601 220.5,354.585C237.939,354.499 237.908,354.32 239.376,354.673C240.511,354.945 240.17,361.498 240.17,368.5Z"/>
            <path d="M124.5,244.161C119.387,244.161 110.23,244.208 109.867,244.017C109.153,243.641 109.301,240.911 109.301,240.501C109.301,224.507 108.524,220.944 111.548,220.971C133.437,221.162 133.783,220.678 134.265,221.659C134.572,222.286 134.479,242.754 134.32,243.38C134.019,244.572 124.715,244.16 124.5,244.161Z"/>
            <path d="M176.5,33.489C178.327,33.491 186.183,32.888 186.232,34.619C186.285,36.498 186.865,56.986 186.096,58.127C185.735,58.661 163.674,59.437 163.21,57.655C163.055,57.06 163.087,34.93 163.198,34.321C163.424,33.085 171.969,33.502 176.5,33.489Z"/>
            <path d="M193.5,244.161C189.942,244.052 189.678,244.448 189.323,243.669C188.333,241.5 189.063,224.071 189.134,222.369C189.215,220.442 190.242,220.354 213.2,220.988C213.617,221 214.419,221.127 214.211,242.433C214.189,244.708 211.966,244.134 193.5,244.161Z"/>
            <path d="M79.371,244.111C61.781,244.159 55.849,244.431 55.555,243.456C55.445,243.091 55.336,222.076 55.616,221.594C56.122,220.726 79.822,220.588 80.421,221.565C81.254,222.925 80.652,222.996 80.599,241.504C80.593,243.84 79.872,243.451 79.371,244.111Z"/>
            <path d="M270.776,50.5C270.776,41.473 270.758,35.171 270.829,34.634C271.058,32.896 271.73,33.567 273.5,33.492C293.326,32.654 293.881,33.8 293.907,35.44C294.254,56.953 294.94,57.37 293.417,58.395C292.86,58.77 272.132,58.66 271.529,58.459C269.941,57.931 270.849,57.27 270.776,50.5Z"/>
            <path d="M240.17,186.5C239.892,191.537 240.401,192.109 239.287,192.177C237.526,192.284 218.052,193.47 217.236,191.729C216.878,190.967 217.152,191.019 216.978,170.502C216.935,165.371 219.401,167.13 224.5,167.119C237.225,167.09 239.223,167.122 239.66,167.317C240.348,167.625 240.17,171.983 240.17,186.5Z"/>
            <path d="M314.5,244.161C299.39,244.161 296.8,245.119 296.76,241.489C296.546,222.008 296.165,221.044 297.806,220.996C320.728,220.328 321.745,220.469 321.823,222.392C321.861,223.339 321.902,241.569 321.829,242.593C321.583,246.062 319.822,244.062 314.5,244.161Z"/>
            <path d="M208.5,110.51C191.672,110.51 189.227,111.167 189.115,108.566C188.247,88.325 188.784,87.517 190.476,87.428C192.36,87.329 213.067,86.245 214.048,87.895C214.33,88.368 214.332,109.642 214.047,110.045C213.557,110.735 213.386,110.391 208.5,110.51Z"/>
            <path d="M240.17,120.5C240.17,135.897 241.121,138.351 237.496,138.404C217.968,138.693 217.032,138.861 216.998,137.219C216.528,114.446 216.543,113.41 218.456,113.344C219.804,113.298 236.922,113.295 237.508,113.301C242.322,113.349 240.064,115.757 240.17,120.5Z"/>
            <path d="M240.17,306.5C240.17,322.75 240.73,325.621 238.59,325.816C238.129,325.858 218.801,325.864 218.393,325.81C216.568,325.569 217.156,324.605 216.978,304.501C216.927,298.739 219.72,300.769 225.5,300.769C226.716,300.769 238.862,300.746 239.281,300.819C240.09,300.96 240.164,306.04 240.17,306.5Z"/>
            <path d="M380.5,244.161C377.892,243.991 376.678,245.13 376.565,242.486C376.527,241.597 376.546,223.792 376.574,222.519C376.615,220.676 377.634,220.722 399.567,221.028C402.162,221.064 401.664,222.397 401.621,241.505C401.613,244.96 399.744,244.133 380.5,244.161Z"/>
            <path d="M49.5,137.774C47.441,138.221 47.556,138.415 45.498,138.409C34.14,138.372 29.56,139.241 29.533,136.495C29.32,114.652 28.614,113.684 30.44,113.384C31.213,113.257 51.032,113.262 51.556,113.365C53.736,113.793 52.259,131.004 52.672,134.527C52.972,137.08 51.828,136.532 50.5,137.5L49.5,137.774Z" style="fill-opacity:1;"/>
            <path d="M455.089,217.5C454.794,217.537 454.795,218.132 454.5,218.169C454.295,218.194 439.692,218.203 437.5,218.197C432.773,218.184 430.408,220.233 430.396,215.503C430.347,196.45 429.829,194.957 432.545,194.966C443.552,195.004 443.489,195.011 454.5,194.998L455.047,195.5L455.179,196.5L455.179,200.5L455.188,201.5L455.188,207.5L455.179,208.5L455.179,212.5L455.17,213.5L455.17,216.5L455.089,217.5Z"/>
            <path d="M456.996,226.533C456.45,233.139 458.531,234.148 453.519,238.518C451.662,240.137 452.913,244.616 446.511,244.55C444.967,244.535 445.029,244.547 443.517,244.543C442.798,244.625 442.864,244.484 434.483,244.18C428.573,243.966 430.395,241.353 430.395,235.5C430.395,226.879 429.992,221.732 431.275,221.107C431.508,220.994 431.464,221.026 454.5,221.011L455.215,222.5L455.201,223.5L455.186,224.5L455.17,225.5L456.996,226.533Z" style="fill:rgb(5,5,5);fill-opacity:0.99;"/>
            <path d="M56.5,136.25C56.272,135.868 55.625,135.882 55.396,135.5C54.773,134.457 55.443,116.181 55.504,114.502C55.556,113.088 56.039,113.345 57.476,113.313C78.802,112.838 79.109,112.323 80.312,113.698C80.743,114.191 80.7,131.409 80.5,135.634L79.5,136.065L78.5,136.072L75.5,136.072L74.5,136.079L73.5,136.077L72.5,136.083L62.5,136.083L61.5,136.137L60.5,136.173L59.5,136.214L58.5,136.259L57.5,136.259L56.5,136.25Z" style="fill-opacity:1;"/>
            <path d="M110.5,136.086C110.215,135.749 109.596,135.838 109.311,135.5C109.289,135.474 109.259,115.009 109.37,114.444C109.73,112.625 110.609,112.986 132.528,113.315C134.892,113.351 134.511,114.605 134.435,135.5L133.5,136.066L132.5,136.103L131.5,136.103L130.5,136.109L129.5,136.108L128.5,136.113L116.5,136.113L115.5,136.108L114.5,136.109L113.5,136.103L112.5,136.095L111.5,136.095L110.5,136.086Z" style="fill-opacity:1;"/>
            <path d="M377.5,136.112C377.362,135.734 376.597,135.878 376.459,135.5C376.229,134.873 376.537,134.166 376.544,133.498C376.562,131.824 376.494,115.334 376.609,114.542C376.969,112.066 401.154,113.528 401.307,113.692C401.791,114.212 401.727,131.634 401.5,135.692L400.5,136.121L392.5,136.121L391.5,136.129L386.5,136.129L385.5,136.121L380.5,136.121L379.5,136.112L377.5,136.112Z" style="fill-opacity:1;"/>
            <path d="M297.5,135.997C296.729,134.468 296.391,133.796 296.794,114.609C296.815,113.618 297.271,113.166 319.512,113.303C321.504,113.315 321.844,113.486 321.863,115.462C322.02,132.587 321.762,134.168 321.5,135.771L320.5,136.044L317.5,136.044L316.5,136.051L315.5,136.051L314.5,136.057L313.5,136.056L312.5,136.056L311.5,136.061L300.5,136.061L299.5,136.056L298.5,136.056L297.5,135.997Z" style="fill-opacity:1;"/>
            <path d="M80.675,246.506L80.265,247.5L79.226,248.5L78.541,249.5L78.04,250.5L77.843,251.5L77.808,252.5L77.801,253.5L77.801,254.5L77.798,255.5L77.793,256.5L77.793,258.5L77.785,259.5L77.785,264.5L77.79,265.5L77.79,267.5L77.793,268.5L77.793,269.5L77.796,270.5L77.719,271.5C76.994,271.869 77.187,272.247 76.345,272.199C65.33,271.583 55.61,273.36 55.482,270.505C55.399,268.672 54.591,250.801 55.585,247.567C56.08,245.956 69.859,247.598 80.675,246.506Z" style="fill-opacity:1;"/>
            <path d="M313.5,84.774C312.302,84.86 312.311,84.695 298.491,84.555C296.788,84.538 296.796,84.133 296.762,82.474C296.351,62.649 295.851,61.816 297.5,61.501C298.474,61.315 319.411,61.36 320.512,61.464C322.031,61.607 323.04,62.134 321.749,80.5L321.5,81.213L320.5,81.926L319.5,82.044L318.5,82.164L317.491,82.5L316.416,83.5L315.5,84.477L314.5,84.772L313.5,84.774Z"/>
            <path d="M392.5,431.999L375.5,431.999C378.109,425.746 375.555,410.283 376.82,408.8C377.997,407.419 378.31,408.23 399.507,408.433C401.804,408.455 401.611,409.198 401.62,411.499C401.653,419.801 402.707,419.779 402.43,420.441C401.443,422.799 402.793,422.823 402.452,425.433C400.907,425.957 400.958,425.863 399.403,426.274C399.053,426.366 397.754,429.133 392.5,431.999Z" style="fill:rgb(2,2,2);fill-opacity:0.99;"/>
            <path d="M412.5,137.513L411.5,136.871L410.5,136.698L409.5,136.698L408.5,136.592L407.5,136.5L406.5,136.379L405.5,136.322L404.5,135.69C404.188,114.531 403.713,113.818 405.447,113.394C405.559,113.367 426.677,112.96 427.328,113.682C427.721,114.117 427.881,137.619 427.224,138.154C426.716,138.566 416.601,138.38 415.51,138.443C413.539,138.557 413.772,137.906 412.5,137.513Z"/>
            <path d="M79.593,390.5C81.801,393.497 80.677,393.811 80.614,397.499C80.499,404.237 81.67,405.17 79.528,405.565C79.115,405.641 57.433,405.664 56.482,405.537C56.042,405.478 55.293,405.37 55.461,385.499C55.503,380.614 58.279,382.993 75.498,382.548C77.101,382.507 77.659,381.914 78.025,383.5C78.839,387.026 78.248,387.11 79.593,390.5Z"/>
            <path d="M77.886,378.5C77.349,379.122 78.005,379.306 77.5,379.891C77.457,379.941 77.452,379.947 76.683,379.893C71.435,379.524 57.334,379.912 56.404,379.697C54.594,379.279 55.242,378.392 55.47,356.495C55.498,353.817 57.101,355.045 75.496,354.585C76.764,354.553 76.572,355.02 77.759,355.5L77.776,356.5L77.772,357.5L77.769,358.5L77.769,359.5L77.772,360.5L77.772,361.5L77.779,362.5L77.784,363.5L77.789,364.5L77.786,365.5L77.786,367.5L77.795,368.5L77.795,369.5L77.8,370.5L77.809,371.5L77.819,372.5L77.829,373.5L77.84,374.5L77.845,375.5L77.862,376.5L77.88,377.5L77.886,378.5Z"/>
            <path d="M77.754,324.5C77.181,325.113 78.065,325.368 77.5,325.972C77.43,326.046 77.295,326.191 76.237,326.122C57.13,324.888 56.575,326.734 55.644,325.374C55.304,324.877 55.462,301.835 55.546,301.53C55.935,300.126 69.272,300.954 75.488,300.769C76.735,300.732 76.579,301.127 77.719,301.5L77.737,302.5L77.733,303.5L77.733,305.5L77.737,306.5L77.741,307.5L77.745,308.5L77.745,312.5L77.75,313.5L77.754,314.5L77.754,315.5L77.759,316.5L77.761,317.5L77.759,318.5L77.759,320.5L77.754,321.5L77.754,324.5Z"/>
            <path d="M192.167,190.5L192.167,186.5L192.176,185.5L192.169,184.5L192.169,183.5L192.186,182.5L192.186,180.5L192.169,179.5L192.186,178.5L192.186,177.5L192.18,176.5L192.18,171.5L192.186,170.5L192.186,168.5L192.4,167.5C193.984,167.188 195.956,166.8 212.578,167.119C214,167.147 214.188,167.241 214.205,168.583C214.497,190.837 215.143,191.735 213.304,192.163C212.861,192.266 194.927,192.195 194.544,192.233C192.217,192.464 192.801,191.378 192.167,190.5Z"/>
            <path d="M189.055,209.142C190.288,205.531 188.925,205.541 189.065,205.264C189.281,204.836 190.283,205.811 190.5,205.383L191.681,204.5L191.929,203.5L192.089,202.5L192.205,201.5L192.205,200.5L192.211,199.5L192.204,198.5L192.224,197.5L192.211,196.5C192.968,195.686 192.523,194.881 194.599,194.971C200.786,195.236 213.657,194.387 214.149,195.752C214.287,196.135 214.242,216.878 214.178,217.306C213.91,219.1 212.95,218.455 191.519,218.2C189.258,218.173 189.165,217.392 188.73,210.703L189.055,209.142Z" style="fill-opacity:1;"/>
            <path d="M455.153,163.5C454.796,163.61 454.857,164.302 454.5,164.412C451.849,165.224 433.415,164.377 431.584,164.293C430.57,164.246 430.269,163.744 430.398,143.492C430.411,141.569 430.561,141.231 432.462,141.206C433.905,141.187 449.558,140.981 450.5,141.155C451.059,141.259 450.989,142.396 451.547,142.5L451.673,143.5L451.924,144.5L452.222,145.5L452.493,146.5L452.775,147.5L453.731,148.5L454.847,149.5L455.118,150.5L455.223,151.5L455.24,152.5L455.24,156.5L455.231,157.5L455.231,162.5L455.153,163.5Z"/>
            <path d="M348.5,431.999L324.5,431.999C325.035,409.148 324.65,408.661 325.509,408.516C325.991,408.435 346.803,408.245 347.379,408.644C348.821,409.64 346.76,425.328 348.5,431.999Z"/>
            <path d="M186.5,431.999L162.5,431.999C164.548,423.93 161.292,408.787 164.486,408.452C164.658,408.434 184.51,408.354 185.486,408.524C187.338,408.847 185.401,409.978 186.5,431.999Z"/>
            <path d="M107.5,431.999L82.5,431.999C85.099,424.769 81.646,408.961 84.488,408.472C84.867,408.407 104.955,408.382 105.503,408.494C108.248,409.054 104.695,424.924 107.5,431.999Z"/>
            <path d="M161.5,431.999L136.5,431.999C138.226,426.01 136.64,411.936 137.277,409.389C137.689,407.739 138.319,407.753 158.51,408.439C163.071,408.594 157.846,424.255 161.5,431.999Z"/>
            <path d="M240.5,431.999L216.5,431.999L216.984,430.5C217.022,409.492 216.786,408.615 218.488,408.456C218.536,408.451 239.104,408.308 239.453,408.565C241.128,409.8 239.337,416.119 240.5,431.999Z"/>
            <path d="M294.5,431.999L270.5,431.999C271.245,422.586 270.484,412.358 270.831,409.627C271.05,407.904 271.747,407.56 292.51,408.466C295.678,408.604 292.586,423.919 294.5,431.999Z"/>
            <path d="M374.5,431.999L350.5,431.999C351.602,410.016 349.691,408.985 351.513,408.523C352.173,408.356 372.021,408.41 372.505,408.486C375.512,408.955 372.109,424.425 374.5,431.999Z"/>
            <path d="M231.5,61.163C234.452,61.264 240.151,60.292 240.168,63.525C240.281,84.284 239.803,84.399 239.47,84.46C238.779,84.587 218.076,84.688 217.581,84.396C216.734,83.897 216.637,62.197 217.58,61.605C217.803,61.465 217.803,61.524 231.5,61.163Z"/>
            <path d="M240.17,206.5C240.17,211.165 240.587,217.913 239.256,218.139C238.751,218.225 218.758,218.247 217.785,218.102C216.964,217.98 217.05,217.562 216.978,198.502C216.958,193.318 219.376,195.031 224.5,195.012C237.355,194.963 237.293,194.83 238.394,194.982C241.037,195.344 240.162,200.831 240.17,206.5Z"/>
            <path d="M180.5,61.389C184.704,61.491 186.162,59.899 186.234,62.611C186.791,83.323 187.225,84.218 185.495,84.492C185.116,84.552 164.091,84.712 163.599,84.386C162.203,83.462 162.911,83.074 163.126,63.454C163.156,60.647 166.151,61.389 180.5,61.389Z"/>
            <path d="M240.17,336.5C240.17,347.13 240.831,351.603 238.594,351.819C238.174,351.86 218.871,351.87 218.397,351.811C216.688,351.6 217.056,350.043 216.978,332.501C216.964,329.241 217.305,328.681 220.501,328.669C237.888,328.606 237.849,328.446 239.322,328.756C241.226,329.155 240.108,330.03 240.17,336.5Z"/>
            <path d="M342.5,244.161C327.199,244.161 324.74,245.116 324.7,241.493C324.489,222.4 323.801,221.882 325.284,221.224C326.689,220.6 326.695,221.036 344.497,220.971C347.487,220.961 347.851,221.433 347.87,224.498C347.991,243.303 347.906,244.096 346.411,244.136C345.108,244.17 343.803,244.127 342.5,244.161Z"/>
            <path d="M180.5,244.161C171.995,244.161 164.195,244.197 163.798,244.04C163.146,243.784 163.122,241.729 163.12,241.52C162.9,222.739 162.209,222.496 163.385,221.395C164.163,220.667 185.459,220.984 185.736,221.197C187.026,222.184 186.48,222.503 186.274,241.491C186.231,245.407 184.451,244.101 180.5,244.161Z"/>
            <path d="M270.776,78.5C270.776,69.279 270.756,63.231 270.832,62.622C270.999,61.282 272.112,61.413 273.496,61.392C292.85,61.104 293.557,60.709 293.836,62.314C293.965,63.057 293.955,83.076 293.846,83.698C293.567,85.304 292.855,84.87 273.498,84.56C269.728,84.5 271.314,82.632 270.776,78.5Z"/>
            <path d="M286.5,244.161C276.613,244.161 271.109,244.527 270.88,243.272C270.729,242.444 270.695,222.721 270.905,221.75C271.192,220.426 293.152,220.918 293.641,221.365C294.832,222.453 294.103,222.705 293.919,241.521C293.872,246.374 291.404,244.077 286.5,244.161Z"/>
            <path d="M169.5,110.51C165.134,110.365 163.163,111.825 163.119,107.505C162.93,88.841 162.267,88.501 163.563,87.572C163.8,87.402 185.569,87.003 186.113,87.833C186.347,88.189 186.411,109.65 186.082,110.075C185.627,110.665 179.939,110.51 169.5,110.51Z"/>
            <path d="M228.5,274.776C232.321,274.783 239.9,274.318 240.102,275.721C240.19,276.329 240.254,296.291 240.051,297.216C239.987,297.509 239.899,298.01 219.471,297.898C216.886,297.884 217.049,297.09 217.029,294.506C216.885,276.598 216.273,276.46 217.239,275.26C217.815,274.543 225.008,274.785 228.5,274.776Z"/>
            <path d="M240.17,103.5C240.026,108.143 242.139,110.494 237.5,110.509C217.765,110.572 217.016,110.69 216.993,109.259C216.658,88.408 216.727,87.466 218.478,87.422C220.159,87.379 236.717,86.959 239.496,87.505C240.415,87.685 240.17,92.768 240.17,103.5Z"/>
            <path d="M222.5,244.144C221.693,244.124 217.149,244.832 217.064,242.645C216.257,221.99 216.632,221.328 218.341,221.063C219.777,220.841 219.691,221.044 236.498,220.971C242.293,220.947 240.17,223.736 240.17,229.5C240.171,236.615 240.347,243.237 239.776,243.785C239.273,244.267 235.095,244.144 222.5,244.144Z"/>
            <path d="M240.17,156.5C240.11,162.979 241.251,163.874 239.331,164.258C238.994,164.325 218.538,164.403 217.719,164.193C215.86,163.717 216.89,145.19 216.981,143.539C217.075,141.851 216.789,141.297 218.42,141.233C219.402,141.195 238.109,141.169 238.572,141.212C240.811,141.42 240.17,145.705 240.17,156.5Z"/>
            <path d="M33.5,244.161C30.957,244.006 29.54,244.621 29.529,240.5C29.482,222.204 29.447,221.626 30.253,221.14C30.754,220.837 51.345,221.046 51.715,221.111C53.406,221.405 52.987,222.259 52.641,242.537C52.605,244.681 50.214,244.137 33.5,244.161Z"/>
            <path d="M99.5,244.161C89.016,244.161 83.69,244.427 83.511,243.492C83.36,242.704 83.269,222.04 83.568,221.554C84.08,220.722 105.789,220.583 106.335,221.614C106.601,222.115 106.595,242.927 106.368,243.409C105.859,244.487 105.52,243.967 99.5,244.161Z"/>
            <path d="M423.5,244.148C406.683,244.142 404.481,245.039 404.47,241.501C404.408,222.352 404.009,221.069 406.428,221.029C426.624,220.698 427.533,220.783 427.576,222.478C427.602,223.503 427.61,238.384 427.605,240.5C427.592,245.313 425.514,243.809 423.5,244.148Z"/>
            <path d="M152.5,244.161C143.29,244.161 137.72,244.38 137.387,243.592C137.333,243.466 137.15,243.518 137.198,228.5C137.215,223.391 135.415,220.958 140.504,220.971C159.702,221.021 160.013,221.067 160.184,221.725C160.41,222.602 160.326,242.97 160.253,243.328C159.857,245.243 158.972,244.107 152.5,244.161Z"/>
            <path d="M81.5,431.999L69.5,431.999C69.003,431.744 68.902,430.984 68.405,430.729C67.658,430.346 66.726,430.491 65.947,430.177C65.266,429.903 64.794,426.591 63.569,426.35C61.568,425.957 59.535,425.754 57.52,425.44C55.697,425.155 55.556,424.104 54.527,420.482C54.686,418.466 54.311,418.519 54.547,416.47C54.678,416.023 55.421,415.947 55.552,415.5C55.646,415.183 55.123,414.953 55.09,414.625C55.04,414.123 54.513,408.852 56.492,408.481C56.953,408.395 78.993,408.393 79.505,408.488C82.368,409.021 78.872,424.728 81.5,431.999Z" style="fill:rgb(4,4,4);fill-opacity:0.99;"/>
            <path d="M270.776,105.5C270.776,91.703 270.52,87.841 271.517,87.524C273.349,86.94 290.846,87.371 292.526,87.412C294.221,87.454 294.21,88.383 293.91,108.562C293.874,110.991 292.533,110.564 273.5,110.509C269.973,110.498 270.957,109.014 270.776,105.5Z"/>
            <path d="M368.5,244.161C354.133,244.161 350.68,244.768 350.642,242.469C350.316,222.402 349.704,221.845 351.279,221.199C351.458,221.126 372.748,220.481 373.483,221.513C374.773,223.325 373.79,240.868 373.696,242.549C373.563,244.909 369.927,244.15 368.5,244.161Z"/>
            <path d="M240.17,396.5C240.128,404.229 241.159,404.9 239.476,405.468C237.962,405.979 237.977,405.688 219.494,405.615C215.887,405.601 217.224,402.94 216.978,386.501C216.891,380.644 219.66,382.549 225.5,382.548C233.3,382.547 239.36,382.28 239.988,383.152C240.234,383.494 240.17,392.523 240.17,396.5Z"/>
            <path d="M272.705,138.948C271.723,137.516 270.788,137.803 270.777,133.497C270.726,113.978 270.702,113.745 271.476,113.467C272.352,113.151 292.412,113.327 292.547,113.345C294.213,113.569 294.262,114.258 294.039,134.296C294.019,136.098 292.571,135.98 292.5,136.062L291.5,136.067L290.5,136.042L289.5,136.071L288.5,136.071L287.5,136.074L283.5,136.074L282.5,136.071L280.5,136.071L279.5,136.067L278.5,136.162L277.5,136.203L276.5,136.368L275.5,136.619L274.5,136.684L273.5,136.745L272.5,137.095L272.705,138.948Z" style="fill-opacity:1;"/>
            <path d="M211.164,15.63C211.838,16.115 211.644,16.356 212.45,16.555C216.621,17.586 214.913,19.197 215.868,23.385L214.579,24.5L214.646,25.5L214.735,26.5L214.891,27.5C214.831,28.513 214.771,29.526 214.711,30.54C212.775,30.677 198.755,31.673 190.455,30.642C188.537,30.403 189.095,26.098 189.089,14.5C189.087,10.164 187.327,8.676 191.5,7.455L202.5,7.455L203.5,7.594L204.5,8.444L205.089,9.5L205.689,10.5L206.108,11.5L206.878,12.5L207.5,12.811L207.568,13.5L208.5,12.874L208.845,13.5L209.5,14.185L211.164,15.63Z" style="fill:rgb(3,3,3);fill-opacity:0.99;"/>
            <path d="M4.942,171.493C5.461,170.828 5.98,170.164 6.499,169.5L6.499,168.5L6.5,167.306C8.106,167.144 26.257,165.319 26.644,168.454C26.67,168.66 26.813,190.747 26.544,191.529C26.128,192.735 14.583,192.086 8.532,192.223C6.848,192.261 6.561,192.182 6.49,190.5C6.433,189.168 6.866,187.779 6.491,186.5C6.324,185.932 5.189,186.07 5.023,185.502C5.055,184.382 5.194,179.516 4.942,171.493Z" style="fill-opacity:0.99;"/>
            <path d="M164.5,136.056C164.177,135.675 163.432,135.881 163.11,135.5C162.938,135.298 163.109,117.061 163.124,115.458C163.139,113.922 162.968,113.549 164.452,113.347C165.056,113.264 184.282,113.302 184.531,113.317C187.009,113.474 186.277,117.994 186.275,128.5C186.275,135.45 187.178,135.439 186.931,135.987C186.734,136.425 185.697,135.719 185.5,136.157L184.5,136.13L183.5,136.071L182.5,136.077L181.5,136.076L180.5,136.081L172.5,136.081L171.5,136.076L170.5,136.071L169.5,136.064L167.5,136.064L166.5,136.056L164.5,136.056Z" style="fill-opacity:1;"/>
            <path d="M325.5,135.977C324.847,134.806 324.659,134.909 324.699,133.489C324.87,127.256 324.096,113.881 325.463,113.44C326.268,113.18 346.34,113.315 346.55,113.344C349.051,113.685 347.768,134.143 347.5,135.789L346.5,136.061L345.5,136.061L344.5,136.068L343.5,136.068L342.5,136.075L341.5,136.073L340.5,136.079L333.5,136.079L332.5,136.075L331.5,136.068L330.5,136.068L329.5,136.061L326.5,136.061L325.5,135.977Z" style="fill-opacity:1;"/>
            <path d="M84.5,136.056C84.327,135.657 83.496,135.898 83.323,135.5C83.247,135.325 83.388,117.091 83.401,115.491C83.415,113.625 83.604,113.332 85.478,113.312C104.892,113.103 105.208,112.434 106.238,113.737C106.339,113.864 106.482,113.854 106.556,134.52C106.563,136.274 105.718,135.761 105.5,136.084L104.5,136.084L103.5,136.091L102.5,136.098L101.5,136.096L100.5,136.102L88.5,136.102L87.5,136.098L86.5,136.091L85.5,136.084L84.5,136.056Z" style="fill-opacity:1;"/>
            <path d="M351.5,136.025C351.288,135.419 350.757,136.118 350.541,135.5C350.488,135.348 350.599,135.363 350.617,133.493C350.632,131.884 350.576,115.343 350.668,114.562C350.764,113.747 351.053,113.133 371.517,113.304C373.424,113.32 373.695,113.544 373.712,115.481C373.859,132.068 373.658,134.117 373.5,135.729L372.5,136.104L371.5,136.104L370.5,136.113L362.5,136.113L361.5,136.12L360.5,136.12L359.5,136.113L354.5,136.113L353.5,136.104L352.5,136.104L351.5,136.025Z" style="fill-opacity:1;"/>
            <path d="M159.5,135.971L158.5,136.085L156.5,136.085L155.5,136.093L154.5,136.098L153.5,136.098L152.5,136.103L144.5,136.103L143.5,136.098L142.5,136.099L141.5,136.093L140.5,136.085L139.5,136.085L138.5,136.077L137.5,135.707C137.416,135.097 136.007,113.786 138.449,113.367C138.877,113.293 158.737,113.191 159.537,113.439C161.143,113.938 160.318,114.698 160.379,134.453C160.383,135.79 159.81,135.437 159.5,135.971Z" style="fill-opacity:1;"/>
            <path d="M77.758,350.5C77.179,351.104 78.087,351.37 77.5,351.982C77.429,352.056 77.32,352.17 76.227,352.096C62.884,351.189 59.863,352.345 56.356,351.766C54.676,351.489 55.235,350.612 55.472,330.495C55.499,328.209 56.791,329.221 75.492,328.67C76.731,328.633 76.557,329.063 77.739,329.5L77.753,330.5L77.749,331.5L77.749,332.5L77.753,333.5L77.753,334.5L77.758,335.5L77.758,336.5L77.762,337.5L77.762,341.5L77.765,342.5L77.765,346.5L77.762,347.5L77.762,348.5L77.758,349.5L77.758,350.5Z"/>
            <path d="M77.649,297.5C75.925,298.44 55.983,298.001 55.613,297.407C55.343,296.973 55.436,276.256 55.559,275.542C55.692,274.776 62.862,274.776 63.5,274.776C70.72,274.776 70.81,273.254 77.714,275.5L77.75,276.5L77.75,278.5L77.746,279.5L77.746,280.5L77.741,281.5L77.742,282.5L77.741,283.5L77.741,287.5L77.746,288.5L77.741,289.5L77.737,290.5L77.737,296.5L77.649,297.5Z"/>
            <path d="M293.5,13.786C294.354,15.089 294.658,14.988 294.347,16.514C293.645,19.964 294.001,19.955 293.912,28.547C293.892,30.536 293.513,30.668 291.511,30.68C271.514,30.801 270.951,30.597 270.823,29.392C269.432,16.276 271.101,9.115 271.5,7.401L272.5,7.306L283.5,7.306L284.5,7.522L285.5,7.956L286.5,8.473L287.5,8.924L288.5,8.964L289.686,9.5L290.231,10.5L290.409,11.5L290.748,12.5L291.5,13.051L292.5,13.363L293.5,13.786Z" style="fill-opacity:1;"/>
            <path d="M148.5,84.844L147.5,84.677L146.5,84.152L145.606,83.5L144.5,82.515L143.5,82.152L142.5,82.152L141.5,81.725L140.5,80.979L139.5,80.758L138.5,80.707L137.5,79.898C136.991,78.213 136.648,78.31 137.006,76.583C137.739,73.053 136.019,61.801 138.478,61.443C138.912,61.38 158.289,61.298 159.491,61.515C161.143,61.815 160.606,62.661 160.317,82.479C160.292,84.142 160.292,84.507 158.51,84.555C151.9,84.734 151.942,84.656 151.486,84.831C150.007,85.397 150.017,85.287 148.5,84.844Z" style="fill-opacity:1;"/>
            <path d="M192.18,162.5L192.18,158.5L192.175,157.5L192.175,155.5L192.18,154.5L192.18,153.5L192.185,152.5L192.168,151.5L192.168,149.5L192.185,148.5L192.185,146.5L192.175,145.5L192.182,144.5L192.19,143.5L192.197,142.5C193.238,141.553 193.041,141.147 194.441,141.191C212.316,141.759 214.178,140.305 214.225,143.521C214.51,163.164 214.946,163.796 213.347,164.241C212.905,164.365 195.343,164.3 194.534,164.321C192.815,164.368 193.085,163.875 192.18,162.5Z"/>
            <path d="M5.03,206.498C5.234,205.943 6.295,206.056 6.499,205.5C6.747,204.824 6.097,204.792 6.496,196.5C6.569,194.993 6.92,195 8.428,195.02C24.338,195.229 24.37,194.747 25.7,195.123C27.349,195.59 27.047,196.224 26.674,216.533C26.644,218.151 26.086,219.458 6.5,217.969L5.039,217.524C5.089,214.35 5.377,212.959 5.03,206.498Z" style="fill-opacity:1;"/>
            <path d="M320.5,95.581C320.743,96.097 321.701,95.984 321.944,96.5C322.226,97.1 321.875,97.825 321.867,98.489C321.726,109.584 322.073,109.822 321.339,110.292C320.721,110.689 298.344,110.528 297.564,110.39C296.98,110.287 296.657,110.027 296.762,89.525C296.776,86.794 299.976,87.234 308.552,87.372C310.017,87.396 309.527,88.374 309.65,88.5L309.002,89.5L308.816,90.5L308.92,91.5L309.5,92.585L310.5,93.887L311.5,94.552L312.5,94.974L313.5,95.147L314.5,95.151L315.5,95.241L316.5,95.392L317.5,95.512L318.5,95.581L320.5,95.581Z" style="fill-opacity:1;"/>
            <path d="M442.932,117.257C443.488,117.503 443.118,117.84 443.704,118.1C443.875,118.175 443.857,118.03 445.829,117.132C448.257,120.36 447.084,121.45 450.641,123.268C452.155,124.042 451.942,126.304 453.728,133.418C453.331,134.445 452.934,135.471 452.538,136.498L452.291,138.475C451.847,138.626 431.042,138.403 430.754,138.177C430.541,138.011 429.374,113.778 431.438,113.358C432.181,113.207 440.344,111.546 440.846,114.5C440.958,115.16 440.635,115.966 441.039,116.5C441.449,117.042 442.522,116.715 442.932,117.257Z" style="fill:rgb(6,6,6);fill-opacity:0.99;"/>
            <path d="M8.812,142.695L9.09,142.314C9.431,142.199 9.983,141.074 12.437,141.193C25.001,141.799 26.658,140.473 26.683,143.485C26.85,163.829 26.311,164.183 25.411,164.272C15.968,165.215 8.002,164.259 6.5,164.078L6.642,163.5L5.041,162.51C5.188,154.982 5.206,155.05 5.224,147.485L6.5,147.505L7.123,147.5L7.5,146.498C8.591,145.669 8.459,145.6 9.014,144.342C8.947,143.793 8.879,143.244 8.812,142.695Z" style="fill-opacity:1;"/>
            <path d="M163.77,18.5L164.5,18.052L165.216,17.5L166.097,16.5L166.311,15.5L166.449,14.5L167.5,13.903L168.5,13.574L169.5,13.462L170.5,13.044L171.01,12.5L171.34,11.5L171.682,10.5L172.445,9.5L173.5,9.147L174.5,8.692L175.5,8.263L176.5,7.932L177.5,7.462L178.5,7.353L185.5,7.353C185.922,9.067 187.587,15.833 186.241,29.402C186.124,30.588 185.564,30.802 165.489,30.679C161.401,30.654 163.318,28.605 163.089,24.497C162.914,21.36 162.294,21.264 163.77,18.5Z" style="fill-opacity:1;"/>
            <path d="M5.032,222.487L6.5,221.216L7.5,220.921C25.391,221.27 26.479,220.43 26.642,222.458C26.714,223.343 26.694,242.482 26.687,242.562C26.624,243.242 26.484,244.74 18.427,244.671C12.393,244.207 10.398,245.458 9.49,239.502C8.778,237.926 8.841,238.002 8.536,237.476C8.496,237.265 8.035,234.834 8.035,234.834C7.824,234.763 7.899,234.979 6.12,236.859C5.394,235.1 5.47,235.127 5.032,222.487Z" style="fill:rgb(5,5,5);fill-opacity:0.99;"/>
            <path d="M421.814,272.67C417.844,271.726 409.428,272.144 405.676,272.045C404.41,272.012 404.393,271.291 404.47,249.499C404.477,247.425 404.466,246.919 406.532,246.862C408.131,246.817 426.167,246.318 426.519,246.477C427.034,246.709 426.985,247.627 427.5,247.859L426.5,248.72L425.5,249.007L424.5,249.237C423.007,250.248 422.193,249.98 422.153,253.495C422.058,261.712 422.479,270.031 421.814,272.67Z" style="fill:rgb(1,1,1);fill-opacity:1;"/>
            <path d="M421.876,300.296C422.769,304.411 421.819,324.498 421.72,326.6C417.586,325.225 405.358,326.342 404.692,325.348C404.271,324.718 404.48,302.006 404.561,301.535C404.814,300.067 416.611,301.268 421.876,300.296Z" style="fill:rgb(1,1,1);"/>
            <path d="M263.499,246.447L262.5,247.844L261.139,248.5L260.238,249.5L259.922,250.5L259.752,251.5L259.719,252.5L259.719,268.5L259.717,269.5L259.71,270.5C258.865,271.862 258.995,272.175 257.437,272.087C254.871,271.942 243.244,272.72 242.954,271.203C242.809,270.446 242.829,248.429 242.938,247.763C243.214,246.081 251.141,247.428 263.499,246.447Z" style="fill-opacity:1;"/>
            <path d="M261.011,395.462C260.984,396.445 260.957,397.428 260.93,398.411C260.633,398.983 259.629,398.928 259.332,399.5C257.907,402.245 267.907,401.406 268.258,403.626C268.555,405.512 267.41,406.078 244.477,405.596C242.882,405.563 242.73,404.752 242.871,384.541C242.895,381.116 244.794,382.833 257.488,382.562C258.583,382.538 258.421,382.9 259.5,383.291L259.547,384.5L259.554,385.5L259.554,386.5L259.552,387.5L259.544,388.5L259.542,389.5L259.555,390.5L259.545,391.5L259.524,392.5L259.501,393.5C260.004,394.154 260.508,394.808 261.011,395.462Z" style="fill-opacity:1;"/>
            <path d="M259.656,302.5L259.66,303.5L259.66,310.5L259.659,311.5L259.612,312.5L259.599,313.5L259.573,314.5L259.57,315.5L259.569,316.5L259.565,317.5L259.563,318.5L259.561,319.5L259.561,320.5L259.557,321.5L259.553,322.5L259.552,323.5L259.547,324.5C258.999,324.745 259.047,325.718 258.5,325.963C257.893,326.234 257.172,325.867 256.507,325.858C243.612,325.665 243.217,326.116 242.989,325.174C242.775,324.294 242.844,302.438 242.937,301.716C243.059,300.773 250.811,300.77 251.5,300.769C258.305,300.766 258.227,300.01 258.801,300.132C258.801,300.132 259.588,302.311 259.656,302.5Z"/>
            <path d="M259.5,355.318L259.534,356.5L259.544,357.5L259.547,358.5L259.547,359.5L259.552,360.5L259.552,361.5L259.553,362.5L259.553,365.5L259.552,366.5L259.552,367.5L259.55,368.5L259.55,370.5L259.544,371.5L259.544,372.5L259.542,373.5L259.537,374.5L259.534,375.5L259.534,376.5L259.533,377.5L259.533,378.5L258.998,379.5C257.717,379.543 243.229,380.03 242.985,379.139C242.857,378.67 242.665,355.799 243.092,355.212C243.932,354.059 256.004,354.751 257.477,354.612C258.654,354.501 258.451,354.952 259.5,355.318Z" style="fill-opacity:1;"/>
            <path d="M45.289,206.587C46.527,210.457 48.28,207.774 52.752,209.103C52.649,213.256 53.837,218.138 50.472,218.194C30.702,218.525 30.048,219.045 29.613,217.432C29.517,217.078 29.391,196.242 29.703,195.646C30.111,194.864 41.476,195.091 42.5,195.111L43.5,195.848L43.575,196.5L43.575,197.5L43.574,198.5L43.574,201.5L43.585,202.5L43.603,203.5L43.775,204.5L44.001,205.5L45.289,206.587Z" style="fill-opacity:1;"/>
            <path d="M421.822,274.312C422.546,276.952 422.072,296.057 422.039,298.327C420.813,298.838 420.845,298.421 419.617,297.936C419.438,297.865 405.812,297.959 405.306,297.813C403.666,297.339 404.164,296.691 404.484,276.497C404.536,273.198 414.816,275.655 421.822,274.312Z" style="fill:rgb(1,1,1);"/>
            <path d="M421.741,328.363C422.76,345.234 421.979,350.675 421.704,352.594C417.615,351.208 405.361,352.362 404.682,351.351C404.286,350.762 404.481,329.974 404.549,329.526C404.782,327.992 415.691,329.019 421.741,328.363Z"/>
            <path d="M377.489,248.906L376.792,247.5L376.5,246.588L377.5,246.471L381.5,246.471C384.272,246.449 384.255,246.432 384.494,246.447C399.411,247.406 401.601,245.555 401.621,249.495C401.733,271.43 401.452,271.995 400.336,272.037C394.343,272.262 394.407,271.925 388.438,272.55C384.818,272.928 387.752,258.745 386.436,250.5L385.5,249.642L384.5,249.175L383.5,248.82L382.003,249.922C379.813,248.539 379.657,249.178 377.489,248.906Z" style="fill:rgb(3,3,3);fill-opacity:1;"/>
            <path d="M277.492,138.436C282.246,138.069 402.663,137.934 407.501,138.487C406.833,138.957 406.165,139.427 405.497,139.896C386.32,140.931 279.816,139.475 278.636,140.602C277.183,141.989 279.393,172.582 277.479,178.489C275.911,183.329 279.081,189.323 277.828,193.7C274.932,192.219 275.426,191.691 275.44,188.5L275.446,187.5L275.431,186.5L275.437,185.5L275.435,184.5L275.446,183.5L275.419,182.5L275.414,181.5C275.211,177.361 275.335,175.978 275.378,175.499C276.09,167.532 274.318,143.773 276.5,139.898L277.492,138.436Z" style="fill:rgb(205,205,205);fill-opacity:0.09;"/>
            <path d="M386.401,354.451C390.835,354.583 401.279,354.09 401.513,355.493C401.597,355.992 401.866,378.737 401.348,379.357C400.694,380.139 386.931,379.718 386.655,379.394C386.246,378.913 387.025,377.981 386.615,377.5L386.947,376.5L385.54,375.5L385.869,374.5C386.663,364.487 385.69,364.54 386.401,354.451Z" style="fill:rgb(1,1,1);"/>
            <path d="M259.5,297.478C258.221,297.658 246.649,299.291 243.351,297.658C241.906,296.942 242.697,296.459 242.865,277.511C242.886,275.13 243.179,274.808 245.51,274.777C257.635,274.617 257.564,274.09 258.55,274.432C259.011,274.592 259.091,275.34 259.552,275.5L259.615,276.5L259.619,277.5L259.62,278.5L259.622,279.5L259.619,280.5L259.619,292.5L259.62,293.5L259.62,294.5L259.615,295.5L259.615,296.5L259.5,297.478Z"/>
            <path d="M259.5,329.411L259.534,330.5L259.539,331.5L259.54,332.5L259.542,333.5L259.543,334.5L259.543,336.5L259.542,337.5L259.539,338.5L259.534,339.5L259.534,340.5L259.533,341.5L259.531,342.5L259.529,343.5L259.524,344.5L259.52,345.5L259.512,346.5L259.532,347.5L259.524,348.5L259.519,349.5L259.514,350.5L259.105,351.5L258.5,351.967C244.379,351.756 242.906,352.391 242.866,349.481C242.594,329.89 242.125,329.322 243.685,328.756C244.033,328.63 257.383,328.677 257.468,328.671C258.755,328.591 258.538,329.061 259.5,329.411Z" style="fill-opacity:1;"/>
            <path d="M133.534,95.5C134.016,96.557 134.49,96.307 134.451,97.511C134.442,97.783 134.477,108.758 134.353,109.434C133.954,111.6 109.793,110.262 109.75,110.227C108.896,109.535 109.45,109.321 109.121,96.5L109.5,95.975L110.5,95.466L114.5,95.466L115.5,95.465L116.5,95.463L117.5,95.463L118.5,95.461L119.5,95.461L120.5,95.462L121.5,95.462L122.5,95.461L123.5,95.463L128.5,95.463L129.5,95.461L130.5,95.461L131.5,95.463L132.5,95.463L133.534,95.5Z"/>
            <path d="M400.644,95.5C401.667,97.295 401.75,97.26 401.749,97.439C401.663,109.364 402.007,109.543 401.235,110.213C400.574,110.787 377.76,110.462 377.542,110.416C376.165,110.124 376.537,104.822 376.5,96.276L377.5,95.474L381.5,95.474L382.5,95.472L385.5,95.472L386.5,95.474L387.5,95.474L388.5,95.472L389.5,95.472L390.5,95.474L391.5,95.475L392.5,95.475L393.5,95.477L394.5,95.479L395.5,95.486L396.5,95.495L397.5,95.475L398.5,95.483L399.5,95.493L400.644,95.5Z"/>
            <path d="M55.051,99.279L56.11,98.5L56.5,97.199L57.5,96.968C61.065,95.792 60.937,95.606 62.5,95.595C79.571,95.47 80.774,95.375 80.619,97.472C80.535,98.61 80.83,109.65 80.237,110.196C79.017,111.32 78.819,110.683 59.5,110.51C52.231,110.445 56.308,106.4 55.051,99.279Z" style="fill-opacity:1;"/>
            <path d="M388.31,328.304C395.514,329.516 401.549,327.187 401.605,330.482C401.95,350.713 402.307,351.392 400.646,351.781C393.967,353.347 393.628,350.37 387.121,352.699C385.959,351.347 385.278,350.555 386.015,330.448C386.129,327.344 387.531,328.36 388.31,328.304Z" style="fill:rgb(1,1,1);"/>
            <path d="M417.374,196.49L418.997,195.5C419.254,195.482 419.243,194.931 419.5,194.912C420.135,194.867 426.686,194.397 427.426,195.562C427.737,196.052 427.638,216.728 427.489,217.492C427.403,217.928 427.222,218.299 407.503,218.197C403.197,218.175 404.622,216.019 404.259,209.153C407.739,207.787 417.324,210.197 417.299,206.442C417.265,201.414 417.327,201.478 417.374,196.49Z" style="fill:rgb(1,1,1);fill-opacity:1;"/>
            <path d="M43.5,191.511C42.528,191.849 40.72,192.477 30.652,192.168C29.387,192.129 29.596,191.749 29.553,190.49C29.523,189.606 29.509,169.048 29.553,168.515C29.733,166.37 36.418,167.121 42.5,167.139L43.267,167.5L43.585,168.5L43.585,172.5L43.583,173.5L43.583,178.5L43.581,179.5L43.581,182.5L43.583,183.5L43.583,184.5L43.585,185.5L43.585,186.5L43.588,187.5L43.588,189.5L43.59,190.5L43.5,191.511Z"/>
            <path d="M389.745,298.161C386.171,298.658 386.587,297.136 386.634,293.5C386.863,276.09 385.349,274.189 388.367,274.383C400.74,275.175 401.161,274.511 401.48,275.514C401.797,276.513 401.64,293.909 401.625,295.508C401.599,298.403 400.216,297.586 389.745,298.161Z" style="fill:rgb(2,2,2);"/>
            <path d="M105.561,95.5C106.074,96.563 106.56,96.315 106.523,97.495C106.144,109.632 106.674,110.184 105.464,110.422C104.708,110.571 84.997,110.533 84.519,110.454C82.596,110.136 83.45,99.638 83.5,96.086L84.5,95.494L85.5,95.494L86.5,95.493L89.5,95.493L90.5,95.492L100.5,95.492L101.5,95.492L102.5,95.493L103.5,95.494L104.5,95.494L105.561,95.5Z"/>
            <path d="M346.5,95.536C346.746,96.065 347.715,95.971 347.961,96.5C348.241,97.102 347.881,97.826 347.871,98.489C347.868,98.693 347.919,109.151 347.767,109.657C347.275,111.287 346.643,110.821 326.501,110.493C324.482,110.461 324.763,109.477 324.595,96.5L325.5,95.611L326.5,95.536L328.5,95.536L329.5,95.526L345.5,95.526L346.5,95.536Z"/>
            <path d="M372.5,95.53C372.71,96.041 373.633,95.989 373.843,96.5C374.096,97.116 373.732,97.829 373.718,98.495C373.714,98.688 373.758,109.069 373.629,109.569C373.205,111.207 372.547,110.797 352.501,110.493C350.229,110.459 350.705,109.351 350.514,96.5L351.5,95.606L352.5,95.53L372.5,95.53Z"/>
            <path d="M16.192,118.169C16.785,118.547 16.907,119.446 17.5,119.824C17.513,119.832 20.384,119.86 21.102,116.5C22.014,112.23 23.303,110.542 26.341,113.661C27.019,114.357 26.615,137.418 26.592,137.554C26.447,138.402 19.151,138.405 18.5,138.405C13.678,138.408 13.4,139.963 9.212,137.5L9.1,133.432C9.184,132.614 10.063,124.062 11.457,123.43C12.356,123.022 13.335,122.779 14.192,122.287C15.452,121.563 14.261,120.874 16.192,118.169Z" style="fill:rgb(5,5,5);fill-opacity:0.99;"/>
            <path d="M43.5,163.588C42.531,163.944 38.641,165.373 30.612,164.268C28.887,164.03 28.9,163.185 29.577,142.527C29.625,141.052 30.042,141.227 31.46,141.202C39.653,141.053 39.618,140.543 47.788,141.5L47.713,142.5L47.5,143.197L46.094,143.5L45.297,144.5L44.959,145.5L44.665,146.5L44.495,147.5L44.11,148.5L43.85,149.5L43.722,150.5L43.634,151.5L43.592,152.5L43.589,153.5L43.585,154.5L43.584,155.5L43.584,162.5L43.5,163.588Z"/>
            <path d="M201.024,384.491C203.406,382.602 203.453,382.535 206.5,382.548C207.103,382.551 213.714,382.578 214.022,382.98C214.36,383.423 214.312,404.73 214.069,405.113C213.47,406.06 189.703,405.61 189.553,405.437C188.14,403.812 188.921,403.56 190.5,402.169L198.5,402.169L199.5,402.103L200.319,401.5L201.481,400.5L202.178,399.5L202.358,398.5L202.368,397.5L202.375,396.5L202.402,395.5L202.43,394.5L201.005,393.486C201.011,390.488 201.017,387.489 201.024,384.491Z" style="fill-opacity:1;"/>
            <path d="M421.866,391.512L421.782,393.516L420.165,394.5L419.5,395.63L418.095,396.5L417.363,397.5L417.297,398.5L416.769,399.5L416.183,400.5L415.936,401.5L415.855,402.5L415.746,403.5L415.5,404.599C413.739,405.744 413.723,405.68 411.583,405.798L410.544,405.7C406.388,405.375 404.499,406.709 404.468,402.5C404.33,383.673 404.314,382.578 406.506,382.555C418.227,382.432 418.273,382.408 420.305,383.5L420.344,384.5L420.269,385.5L420.179,386.5L420.179,387.5L420.137,388.5L420.07,389.5C420.669,390.171 421.267,390.841 421.866,391.512Z" style="fill:rgb(1,1,1);fill-opacity:1;"/>
            <path d="M200.884,378.494C201.345,368.524 200.768,364.617 201,363.5C201.121,362.921 202.117,362.977 202.467,362.5C202.8,362.047 201.524,361.952 202.5,355.47C202.704,354.112 212.903,354.592 213.38,354.693C215.164,355.072 214.547,355.962 214.226,377.479C214.2,379.222 214.313,379.663 212.546,379.74C202.433,380.184 202.619,378.929 202.5,378.873L200.884,378.494Z" style="fill-opacity:1;"/>
            <path d="M202.517,246.734C213.482,247.176 213.974,246.725 214.162,247.737C214.266,248.292 214.263,270.756 214.164,271.252C213.909,272.531 203.058,272.393 202.5,271.665C202.259,271.351 202.509,270.814 202.268,270.5L202.261,269.5L202.261,268.5L202.268,267.5L202.269,266.5L202.269,265.5L202.276,264.5L202.283,263.5L202.283,261.5L202.269,260.5L202.262,259.5L202.255,258.5L202.255,255.5L202.262,254.5L202.262,253.5L202.269,252.5L202.256,251.5L202.168,250.5L201.949,249.5L201.198,248.5L202.517,246.734Z" style="fill-opacity:1;"/>
            <path d="M202.5,325.055L202.44,324.5L202.441,323.5L202.441,308.5L202.439,307.5L202.439,306.5L202.437,305.5L202.434,304.5L202.434,303.5L202.432,302.5L202.458,301.5C202.923,301.334 202.893,300.489 203.358,300.323C203.897,300.13 203.896,300.734 210.5,300.769C216.39,300.801 214.228,303.646 214.228,309.5C214.228,321.924 214.863,325.786 212.573,325.833C204.36,326.003 204.37,325.849 202.5,325.055Z"/>
            <path d="M37.498,246.323C42.14,246.773 42.109,246.78 42.511,246.809C49.098,247.283 52.657,243.821 52.658,250.499C52.663,270.486 53.334,271.937 50.471,272.087C43.053,272.476 43.083,272.719 42.469,272.535C42.469,272.535 41.483,270.663 41.398,270.5L41.398,266.5L41.398,265.5L41.398,252.5L41.357,251.5L41.297,250.5L41.14,249.5L40.5,248.613L39.5,248.024L38.5,247.796L37.498,246.323Z"/>
            <path d="M9.49,239.502C10.398,245.458 12.393,244.207 18.427,244.671C19.422,248.015 19.423,248.015 19.705,248.093C21.934,248.714 21.93,248.487 30.506,249.017C33.371,248.948 33.608,248.342 35.685,250.329C36.134,251.4 36.565,251.415 36.302,271.508C35.026,273.852 35.364,273.924 36.236,276.498C36.21,283.027 36.177,282.933 36.165,289.496C36.002,290.444 35.173,295.266 35.557,301.503C35.773,305.024 35.247,328.12 35.445,330.497C35.242,346.61 35.456,351.581 35.049,352.508C34.856,352.948 34.197,353.06 34.005,353.499C33.964,354.5 33.923,355.5 33.882,356.501C33.862,253.461 34.245,252.32 32.558,252.182C23.999,251.482 24.138,251.099 15.516,250.103C13.165,249.832 14.482,246.516 12.546,246.279C8.684,245.807 8.461,246.126 7.998,245.304C7.665,244.713 7.833,244.689 8.024,241.535L9.49,239.502Z" style="fill:rgb(176,176,176);fill-opacity:0.15;"/>
            <path d="M41.641,378.5L41.641,377.5L41.637,376.5L41.575,375.5L41.505,374.5L41.505,356.5L41.581,355.5C42.04,355.282 41.666,354.295 42.124,354.077C42.659,353.824 42.574,354.529 49.498,354.585C52.168,354.607 52.623,354.876 52.656,357.495C52.915,378.498 53.329,379.348 51.586,379.697C51.029,379.809 51.064,379.692 44.49,379.753C43.826,379.76 43.108,380.098 42.5,379.831C42.017,379.618 42.124,378.713 41.641,378.5Z"/>
            <path d="M41.559,324.5L41.559,302.5L41.636,301.5C42.087,301.323 41.741,300.333 42.192,300.156C42.738,299.943 42.724,300.717 49.496,300.768C52.037,300.788 52.623,300.882 52.658,303.495C52.943,324.649 53.374,325.368 51.636,325.769C51.499,325.801 51.498,325.788 44.488,325.844C43.825,325.849 43.103,326.179 42.5,325.903C41.988,325.668 42.071,324.735 41.559,324.5Z"/>
            <path d="M202.302,276.5C202.714,275.869 202.112,275.779 202.5,275.185C202.553,275.104 202.795,274.733 203.554,274.581C206.817,273.928 212.54,274.748 213.313,274.858C214.629,275.047 214.23,281.372 214.228,289.5C214.227,295.192 216.185,297.867 210.501,297.9C203.81,297.939 203.915,298.782 203.354,298.656C202.881,298.55 202.945,297.606 202.472,297.5L202.352,296.5L202.356,295.5L202.356,294.5L202.36,293.5L202.36,292.5L202.365,291.5L202.365,290.5L202.36,289.5L202.36,284.5L202.36,283.5L202.331,282.5L202.331,281.5L202.325,280.5L202.325,279.5L202.32,278.5L202.308,277.5L202.302,276.5Z"/>
            <path d="M202.5,350.922L202.464,349.5L202.464,348.5L202.462,347.5L202.486,346.5L202.486,345.5L202.487,344.5L202.487,341.5L202.463,340.5L202.463,335.5L202.464,334.5L202.464,333.5L202.463,332.5L202.463,330.5L202.486,329.5L203.5,328.767C205.967,328.732 214.184,327.5 214.215,330.548C214.416,350.396 215.223,351.076 213.652,351.707C208.331,353.843 203.3,351.323 202.5,350.922Z"/>
            <path d="M41.403,296.5C41.401,276.22 40.752,274.421 43.559,274.768C43.667,274.782 52.2,274.429 52.54,275.47C52.766,276.16 52.638,296.453 52.629,296.543C52.397,298.712 43.735,297.885 43.385,297.934C42.827,298.011 42.574,299.074 42.028,298.939C41.546,298.819 42.12,297.62 41.638,297.5L41.403,296.5Z"/>
            <path d="M41.544,350.5L41.544,330.5L41.621,329.5C42.084,329.296 41.641,328.265 42.104,328.061C42.647,327.821 42.644,328.611 49.497,328.67C52.146,328.693 52.63,328.909 52.658,331.495C52.866,350.768 53.263,351.694 51.64,351.789C50.91,351.832 43.527,352.264 42.5,351.914C41.961,351.73 42.083,350.683 41.544,350.5Z"/>
            <path d="M417.476,169.5C420.728,165.498 421.523,166.785 426.668,167.175C427.592,167.245 427.604,171.146 427.605,171.5C427.664,191.357 427.799,192.159 426.382,192.197C425.832,192.212 419.582,192.383 419.5,192.361C419.171,192.268 419.27,191.592 418.941,191.5L417.45,190.503C417.482,183.529 417.521,183.633 417.476,169.5Z" style="fill:rgb(2,2,2);fill-opacity:1;"/>
            <path d="M296.718,208.898C298.135,208.726 319.889,208.024 322.618,209.274C321.173,213.383 323.378,213.705 321.687,217.647C321.384,218.356 296.914,218.921 296.806,217.316C296.358,210.632 296.581,209.557 296.718,208.898Z" style="fill:rgb(3,3,3);"/>
            <path d="M134.305,208.826C135.119,212.703 134.524,212.634 134.417,216.485C134.364,218.379 133.363,218.272 111.529,218.197C108.311,218.186 109.334,214.512 109.214,209.076C116.572,208.149 126.997,208.643 134.305,208.826Z" style="fill:rgb(3,3,3);"/>
            <path d="M55.25,209.113C57.386,208.347 78.555,208.377 80.734,209.141C80.461,216.883 80.683,216.852 80.487,217.491C80.387,217.815 80.308,218.29 57.534,218.2C55.869,218.193 55.505,218.147 55.472,216.506C55.46,215.914 55.368,211.396 55.25,209.113Z" style="fill:rgb(3,3,3);"/>
            <path d="M376.679,208.807C378.683,208.68 396.821,207.53 401.778,209.085C401.755,209.679 401.78,209.58 401.615,216.52C401.56,218.802 398.897,218.19 381.5,218.197C380.058,218.197 376.577,219.01 376.543,216.493C376.451,209.745 376.533,209.405 376.679,208.807Z" style="fill:rgb(3,3,3);"/>
            <path d="M426.519,104.5C426.762,104.892 429.068,108.607 427.255,110.217C426.073,111.266 425.896,110.69 407.5,110.51C403.367,110.47 404.477,108.703 404.468,104.5C404.454,97.643 403.694,97.544 404.152,97.177C404.522,96.88 405.13,97.934 405.5,97.637L406.5,98.577L407.5,99.018L408.5,99.289L409.5,99.36L410.5,99.361L411.5,99.46L412.5,99.699L413.5,99.807L414.5,99.871L415.5,99.941L416.5,100.028L417.5,100.105L418.5,100.189L419.5,100.228L420.5,100.265L421.5,100.392L422.094,100.5L422.32,101.5L422.5,102.106L423.5,102.972L424.5,103.097L425.5,103.722L426.519,104.5Z" style="fill-opacity:1;"/>
            <path d="M162.409,209.336C164.687,208.035 186.432,208.416 186.611,209.324C186.731,209.935 186.252,216.684 186.206,217.323C186.089,218.975 185.13,218.398 165.515,218.197C161.477,218.155 163.953,214.143 162.409,209.336Z" style="fill:rgb(3,3,3);"/>
            <path d="M324.708,208.877C326.619,208.815 346.466,208.173 348.602,209.311C347.966,211.146 347.93,211.126 347.915,211.293C347.472,216.291 349.082,218.072 345.481,218.196C325.508,218.882 324.746,218.13 324.715,216.464C324.591,209.798 324.492,209.81 324.708,208.877Z" style="fill:rgb(3,3,3);"/>
            <path d="M160.301,208.869C160.588,210.094 161.339,218.165 158.45,218.189C138.592,218.354 138.031,219.14 137.378,217.585C135.727,213.653 137.867,213.324 136.411,209.331C139.19,207.862 159.773,208.852 160.301,208.869Z" style="fill:rgb(3,3,3);"/>
            <path d="M83.241,209.105C85.322,208.407 104.569,208.265 106.732,209.172C106.151,216.521 107.614,218.129 104.466,218.192C84.296,218.59 83.454,218.206 83.414,216.517C83.248,209.492 83.258,209.509 83.241,209.105Z" style="fill:rgb(3,3,3);"/>
            <path d="M350.706,208.87C352.554,208.814 370.976,208.264 373.813,209.035C373.605,217.385 374.06,217.795 373.126,218.081C372.491,218.276 352.396,218.215 351.689,218.134C350.611,218.012 349.899,211.998 350.706,208.87Z" style="fill:rgb(3,3,3);"/>
            <path d="M272.648,208.106C277.976,209.792 291.241,207.488 294.614,209.295C293.737,213.156 293.798,217.536 293.73,217.687C293.069,219.164 292.547,218.339 273.511,218.196C269.206,218.163 269.883,212.261 272.648,208.106Z" style="fill:rgb(3,3,3);"/>
            <path d="M44.582,400.465C44.797,397.633 44.865,393.972 44.876,393.407C44.932,390.399 42.781,390.501 42.5,390.346L41.986,389.5L41.659,388.5L41.624,387.5L41.495,386.5L41.414,385.5L41.325,384.5L41.308,383.5L41.521,382.5L42.414,381.5C42.897,381.571 43.013,382.418 43.496,382.49C44.127,382.583 44.043,381.944 51.465,382.593C53.771,382.795 52.505,404.319 52.326,405.239C49.878,405.99 49.963,406.023 49.753,406.077C47.148,406.192 47.323,405.673 44.957,404.43C44.832,403.108 44.707,401.787 44.582,400.465Z" style="fill:rgb(3,3,3);fill-opacity:0.99;"/>
            <path d="M217.487,33.173C218.52,33.274 219.553,33.376 220.587,33.478C221.21,37.008 220.347,37.651 222.486,38.512C225.871,39.875 225.426,43.329 226.979,52.224C226.889,52.755 226.076,52.968 225.985,53.5C225.985,53.5 226.784,56.098 226.853,56.324C224.59,58.38 224.551,58.822 218.48,58.568C216.665,58.492 217.035,56.539 216.915,38.5C216.9,36.148 216.622,36.28 216.244,34.057C216.141,33.453 216.431,33.247 216.488,33.206C216.944,32.881 216.994,33.523 217.487,33.173Z" style="fill:rgb(17,17,17);fill-opacity:0.97;"/>
            <path d="M325.5,79.89C325.084,79.416 324.869,79.948 324.476,79.5C324.428,79.444 324.32,79.321 324.354,78.584C325.04,63.834 324.599,63.867 324.743,62.596C324.931,60.943 330.133,61.319 335.567,61.369C336.591,61.379 336.679,61.526 336.571,62.486C336.341,64.545 336.905,64.429 336.88,64.598C336.82,65.01 336.079,65.089 336.019,65.5L335.879,66.5L335.734,67.5L335.577,68.5L335.312,69.5L334.863,70.5L334.5,71.427L333.387,71.5L332.142,72.5L331.517,73.5L331.063,74.5L330.5,75.819L329.5,76.51L328.5,76.779L327.5,77.166L326.979,77.5L326.08,78.5L325.5,79.89Z" style="fill-opacity:1;"/>
            <path d="M363.593,399.768C364.241,399.698 364.89,399.629 365.538,399.559L366.5,400.965L367.5,400.412L368.906,399.5L369.5,398.54L370.5,398.317C372.19,397.421 372.182,396.442 373.792,397.5C374.231,397.788 373.704,404.008 373.657,404.572C373.52,406.181 372.638,405.84 353.496,405.644C347.339,405.58 350.834,402.672 351.1,402.5C351.504,402.238 352.096,402.404 352.5,402.142L358.5,402.142L359.5,402.101L360.5,402.009L361.5,401.887L362.5,401.645L363.593,399.768Z" style="fill:rgb(2,2,2);fill-opacity:1;"/>
            <path d="M108.881,403.784C108.955,403.5 109.088,403.616 109.16,403.34C109.472,402.143 109.835,402.513 110.5,401.699L111.5,402.162L132.5,402.162C132.923,402.43 133.541,402.232 133.964,402.5C134.344,402.741 135.557,405.53 132.52,405.627C110.203,406.347 109.751,405.469 108.881,403.784Z" style="fill-opacity:1;"/>
            <path d="M298.5,402.204L320.5,402.204L321.5,402.557C321.489,403.002 322.211,403.25 322.2,403.695C322.153,405.599 321.234,406.17 298.476,405.628C298.344,405.625 297.094,405.595 296.89,405.152C296.039,403.304 296.868,403.33 298.5,402.204Z"/>
            <path d="M272.5,402.146L292.5,402.146L293.5,402.346C293.86,404.546 294.747,405.546 292.534,405.611C290.852,405.661 273.56,406.17 271.497,405.504C270.51,405.185 270.589,402.979 271.213,402.5C271.566,402.229 272.147,402.417 272.5,402.146Z"/>
            <path d="M326.5,402.184L346.5,402.184L347.5,402.451C347.49,402.925 348.181,403.23 348.172,403.704C348.136,405.446 347.378,406.36 326.477,405.631C326.342,405.626 325.048,405.581 324.857,405.181C323.979,403.347 324.758,403.333 326.5,402.184Z"/>
            <path d="M158.5,402.165C160.235,403.296 161.098,403.299 160.171,405.194C159.952,405.642 154.955,405.643 154.5,405.643C142.898,405.644 133.703,406.814 138.5,402.165L158.5,402.165Z"/>
            <path d="M184.5,402.202C186.224,403.341 187.001,403.35 186.136,405.172C185.955,405.553 183.717,405.635 183.504,405.643C163.4,406.38 162.817,405.342 162.781,403.677C162.77,403.191 163.511,402.894 163.5,402.408L164.5,402.202L184.5,402.202Z"/>
            <path d="M150.362,30.923L149.5,29.317L150.5,28.897L151.5,28.103L152.103,27.5L152.871,26.5L153.5,25.949L154.5,25.169L155.5,24.272L156.5,23.872L157.5,23.347L158.5,23.002C158.724,23.115 160.272,22.223 160.316,25.516C160.339,27.251 161.056,30.586 158.53,30.663L153.496,30.737C151.862,30.789 151.931,30.873 150.362,30.923Z" style="fill:rgb(2,2,2);fill-opacity:1;"/>
            <path d="M9.1,133.432L9.212,137.5C9.21,137.885 9.19,141.582 9.09,142.314L8.812,142.695C8.879,143.244 8.947,143.793 9.014,144.342C8.459,145.6 8.591,145.669 7.5,146.498L7.123,147.5L6.5,147.505L5.224,147.485C5.446,137.279 4.729,136.885 7.5,133.921C8.033,133.758 8.567,133.595 9.1,133.432Z" style="fill:rgb(84,84,84);fill-opacity:0.84;"/>
            <path d="M453.728,133.418C455.571,134.442 455.483,134.383 457.248,135.548C456.944,137.543 456.907,137.456 457.226,139.522L457.235,145.517L455.03,144.5L454.5,143.359C453.873,142.715 453.246,142.071 452.619,141.427C452.589,140.937 452.359,141.055 452.331,140.586C452.321,140.417 452.328,140.43 452.291,138.475L452.538,136.498C453.347,134.952 453.292,135.028 453.728,133.418Z" style="fill:rgb(96,96,96);fill-opacity:0.84;"/>
            <path d="M226.979,52.224C231.194,53.251 231.207,53.247 235.056,52.158L236.236,53.5C236.206,53.74 235.991,53.64 235.332,56.381C234.654,56.369 228.57,56.266 226.853,56.324C226.784,56.098 225.985,53.5 225.985,53.5C226.076,52.968 226.889,52.755 226.979,52.224Z" style="fill:rgb(67,67,67);fill-opacity:0.91;"/>
            <path d="M215.868,23.385C216.532,26.321 216.668,26.727 217.754,27.197C221.254,28.714 219.904,29.736 220.587,33.478C219.553,33.376 218.52,33.274 217.487,33.173C216.078,31.875 216.134,31.933 214.711,30.54C214.771,29.526 214.831,28.513 214.891,27.5L214.735,26.5L214.646,25.5L214.579,24.5L215.868,23.385Z" style="fill:rgb(81,81,81);fill-opacity:0.87;"/>
            <path d="M366.458,396.287L366.164,397.5C365.955,398.186 365.747,398.873 365.538,399.559C364.89,399.629 364.241,399.698 363.593,399.768C362.945,399.725 361.556,399.632 355.485,400.037L356.5,398.021C359.575,396.137 365.208,396.371 366.458,396.287Z" style="fill:rgb(101,101,101);fill-opacity:0.67;"/>
            <path d="M36.165,289.496C36.433,325.806 36.122,327.287 35.445,330.497C35.247,328.12 35.773,305.024 35.557,301.503C35.173,295.266 36.002,290.444 36.165,289.496Z" style="fill:rgb(147,147,147);fill-opacity:0.43;"/>
            <path d="M317.485,29.512C320.008,30.02 319.504,30.828 321.594,32.382C319.432,32.763 317.74,32.714 317.403,32.704L317.219,31.754C317.308,31.007 317.396,30.26 317.485,29.512Z" style="fill:rgb(121,121,121);fill-opacity:0.73;"/>
            <path d="M54.547,416.47C54.311,418.519 54.686,418.466 54.527,420.482C52.383,419.557 52.179,419.83 51.057,417.814L52.5,416.774C53.182,416.673 53.865,416.571 54.547,416.47Z" style="fill:rgb(100,100,100);fill-opacity:0.7;"/>
            <path d="M375.5,391.5L375.176,392.259C375.357,393.068 375.537,393.877 375.718,394.686C375.476,394.779 375.669,395.314 375.428,395.407C374.979,395.581 374.993,395.427 372.283,394.282C373.551,391.713 374.08,392.285 375.5,391.5Z" style="fill:rgb(105,105,105);fill-opacity:0.68;"/>
            <path d="M322.651,33.351C324.59,34.535 325.189,33.985 325.812,36.148L324.5,36.701C322.205,36.379 322.495,35.681 322.651,33.351Z" style="fill:rgb(117,117,117);fill-opacity:0.68;"/>
            <path d="M418.46,141.13C417.807,141.899 417.153,142.669 416.5,143.439L415.5,143.069L414.384,142.5C414.644,142.188 414.24,141.6 414.5,141.288C414.5,141.288 418.143,141.142 418.46,141.13Z" style="fill:rgb(8,8,8);fill-opacity:1;"/>
            <path d="M442.765,114.388C444.471,115.687 444.539,115.493 445.829,117.132C443.857,118.03 443.875,118.175 443.704,118.1C443.118,117.84 443.488,117.503 442.932,117.257C442.886,115.762 442.796,115.854 442.765,114.388Z" style="fill:rgb(101,101,101);fill-opacity:0.75;"/>
            <path d="M261.392,330.505C262.722,336.199 261.957,336.211 261.513,341.5C261.472,337.835 261.432,334.17 261.392,330.505Z" style="fill:rgb(89,89,89);fill-opacity:0.71;"/>
            <path d="M262.391,311.496C262.156,316.779 262.402,316.71 262.036,319.492C261.947,320.166 261.474,319.864 261.391,320.499C261.668,316.395 261.117,316.365 262.391,311.496Z" style="fill:rgb(93,93,93);fill-opacity:0.71;"/>
            <path d="M35.398,364.504C36.277,370.754 36.431,370.673 36.313,372.541C35.741,381.573 35.411,365.151 35.398,364.504Z" style="fill:rgb(146,146,146);fill-opacity:0.38;"/>
            <path d="M311.621,30.925L312.5,29.144L313.5,29.318L314.669,29.5C314.353,29.869 314.816,30.579 314.5,30.948C314.35,31.123 314.292,30.947 311.621,30.925Z" style="fill:rgb(11,11,11);fill-opacity:1;"/>
            <path d="M6.12,236.859C7.899,234.979 7.824,234.763 8.035,234.834C8.035,234.834 8.496,237.265 8.536,237.476C7.243,237.433 7.31,237.472 6.12,236.859Z" style="fill:rgb(98,98,98);fill-opacity:0.62;"/>
            <path d="M47.98,148.921C46.94,150.556 47.018,150.594 45.339,151.471C45.38,151.24 45.772,148.986 46.5,148.777C46.976,148.641 47.503,149.057 47.98,148.921Z" style="fill:rgb(103,103,103);fill-opacity:0.74;"/>
            <path d="M139.548,33.572L139.093,34.128L139.215,36.22C138.651,36.324 138.087,36.428 137.523,36.532C137.788,34.577 137.937,34.638 139.548,33.572Z" style="fill:rgb(111,111,111);fill-opacity:0.67;"/>
            <path d="M429.995,108.454C430.152,107.469 430.309,106.485 430.467,105.5L431.5,106.3L431.75,107.5L429.995,108.454Z" style="fill:rgb(12,12,12);fill-opacity:1;"/>
            <path d="M36.302,271.508L36.236,276.498C35.364,273.924 35.026,273.852 36.302,271.508Z" style="fill:rgb(145,145,145);fill-opacity:0.42;"/>
            <path d="M404.145,416.588L405.851,417.5L405.5,418.852C405.134,418.605 404.59,418.747 404.224,418.5C404.097,418.414 404.218,418.363 404.145,416.588Z" style="fill:rgb(11,11,11);fill-opacity:1;"/>
            <path d="M150.362,30.923C148.491,30.889 147.216,31.095 148.231,29.5C148.46,29.139 149.271,29.678 149.5,29.317L150.362,30.923Z" style="fill:rgb(11,11,11);fill-opacity:1;"/>
            <path d="M316.594,28.418C316.891,28.783 317.188,29.148 317.485,29.512C317.396,30.26 317.308,31.007 317.219,31.754C316.573,30.119 316.686,30.152 316.594,28.418Z" style="fill:rgb(101,101,101);fill-opacity:0.75;"/>
            <path d="M261.564,361.5C262.132,363.979 261.961,363.921 261.588,366.5L261.564,361.5Z" style="fill:rgb(90,90,90);fill-opacity:0.66;"/>
            <path d="M28.8,107.739C28.867,107.949 28.932,107.856 29.939,110.251C29.521,109.743 27.949,110.322 28.8,107.739Z" style="fill:rgb(29,29,29);fill-opacity:1;"/>
            <path d="M245.581,28.546L246.059,28.379C246.098,29.402 246.136,30.425 246.175,31.447C245.72,29.972 245.773,30.019 245.581,28.546Z" style="fill:rgb(74,74,74);fill-opacity:0.84;"/>
            <path d="M375.176,392.259C375.526,392.965 375.875,393.671 376.224,394.377L375.718,394.686C375.537,393.877 375.357,393.068 375.176,392.259Z" style="fill:rgb(86,86,86);fill-opacity:0.84;"/>
            <path d="M453.728,133.418C453.292,135.028 453.347,134.952 452.538,136.498C452.934,135.471 453.331,134.445 453.728,133.418Z" style="fill:rgb(78,78,78);fill-opacity:0.91;"/>
            <path d="M457.248,135.548L457.226,139.522C456.907,137.456 456.944,137.543 457.248,135.548Z" style="fill:rgb(141,141,141);fill-opacity:0.43;"/>
            <path d="M190.086,154.495L190.127,158.502C189.657,156.489 189.648,156.553 190.086,154.495Z" style="fill:rgb(87,87,87);fill-opacity:0.76;"/>
            <path d="M324.179,41.311C324.285,41.189 325.5,39.777 325.5,39.777C327.075,39.777 325.185,40.143 324.179,41.311Z" style="fill:rgb(14,14,14);fill-opacity:1;"/>
            <path d="M18.41,116.443C17.486,117.087 17.629,117.202 16.498,117.498C17.136,117.146 17.773,116.795 18.41,116.443Z" style="fill:rgb(104,104,104);fill-opacity:0.64;"/>
            <path d="M52.326,405.239C51.124,405.936 51.228,406.029 49.753,406.077C49.963,406.023 49.878,405.99 52.326,405.239Z" style="fill:rgb(19,19,19);fill-opacity:1;"/>
            <path d="M442.835,247.897C443.471,247.826 444.108,247.756 444.744,247.686C443.563,248.148 443.65,248.149 442.421,248.257L442.835,247.897Z" style="fill:rgb(127,127,127);fill-opacity:0.48;"/>
        </g>
    </g>
</svg>
