<?xml version="1.0" encoding="UTF-8" standalone="no"?>
<!DOCTYPE svg PUBLIC "-//W3C//DTD SVG 1.1//EN" "http://www.w3.org/Graphics/SVG/1.1/DTD/svg11.dtd">
<svg width="100%" height="100%" viewBox="0 0 159 135" version="1.1" xmlns="http://www.w3.org/2000/svg" xmlns:xlink="http://www.w3.org/1999/xlink" xml:space="preserve" xmlns:serif="http://www.serif.com/" style="fill-rule:evenodd;clip-rule:evenodd;stroke-linejoin:round;stroke-miterlimit:2;">
    <g id="mascomprado.png">
        <path d="M122.5,134.999L0,134.999C-1.027,133.092 0,130.666 0,128.5L0,0C2.725,-1.048 2.844,0 36.5,0L158.999,0C160.047,2.726 158.999,2.844 158.999,36.5L158.999,134.999C156.274,136.047 156.155,134.999 122.5,134.999Z" style="fill:rgb(254,254,254);"/>
        <path d="M110.5,124.91C7.846,124.86 7.127,125.182 6.385,123.57C5.489,121.625 7.957,113.872 21.301,52.452C25.857,31.479 25.746,31.095 27.425,30.355C30.627,28.943 46.989,31.345 47.748,28.574C47.762,28.523 44.647,11.176 66.416,4.24C75.926,1.211 110.435,-1.086 111.097,27.522C111.234,33.451 130.945,26.315 132.879,32.376C133.242,33.514 152.847,121.618 152.749,122.526C152.443,125.37 150.945,124.895 110.5,124.91Z"/>
        <path d="M104.934,37.501C104.302,43.449 97.681,42.085 99.78,47.396C103.639,57.16 125.872,49.254 112.365,40.705C110.755,39.686 109.736,34.219 113.484,34.171C121.249,34.071 127.006,33.338 127.708,36.447C129.206,43.09 146.157,118.256 145.824,119.612C145.515,120.875 144.807,120.624 17.5,120.641C14.275,120.641 12.515,121.783 12.925,118.556C12.982,118.104 28.68,47.373 29.919,41.585C30.761,37.649 30.606,34.169 34.498,34.162C41.095,34.151 47.752,33.208 47.802,36.482C47.907,43.279 39.183,42.814 42.853,48.28C48.661,56.93 67.027,48.337 55.707,41.13C52.395,39.021 53.811,34.283 55.447,34.198C56.048,34.166 102.317,34.117 103.566,34.234C105.696,34.433 104.827,35.357 104.934,37.501Z" style="fill:rgb(254,254,254);"/>
        <path d="M55.516,73.951C59.988,73.78 67.743,73.967 69.338,72.351C69.943,71.738 73.678,64.905 74.038,64.248C81.129,51.275 83.575,62.88 88.785,71.331C90.609,74.289 96.192,73.633 109.521,74.209C121.879,74.742 100.378,84.979 97.798,86.835C96.288,87.922 99.326,95.004 100.804,99.395C104.048,109.032 91.057,101.35 81.569,97.335C76.689,95.269 64.848,104.052 60.485,104.219C54.555,104.445 59.294,95.766 61.426,89.477C63.185,84.288 43.446,79.837 45.679,75.606C46.282,74.463 54.719,73.995 55.516,73.951Z"/>
        <path d="M104.939,25.499C104.859,28.613 105.6,29.869 102.513,29.893C98.747,29.923 61.494,30.219 55.435,29.863C49.69,29.526 54.948,3.191 84.442,6.901C104.269,9.395 104.847,23.287 104.939,25.499Z" style="fill:rgb(254,254,254);"/>
    </g>
</svg>
