<?xml version="1.0" encoding="UTF-8" standalone="no"?>
<!DOCTYPE svg PUBLIC "-//W3C//DTD SVG 1.1//EN" "http://www.w3.org/Graphics/SVG/1.1/DTD/svg11.dtd">
<svg width="100%" height="100%" viewBox="0 0 201 135" version="1.1" xmlns="http://www.w3.org/2000/svg" xmlns:xlink="http://www.w3.org/1999/xlink" xml:space="preserve" xmlns:serif="http://www.serif.com/" style="fill-rule:evenodd;clip-rule:evenodd;stroke-linejoin:round;stroke-miterlimit:2;">
    <g id="menu.png">
        <path d="M1.5,0L200.999,0C201.979,4.248 200.999,4.301 200.999,54.5L200.999,134.999C198.722,135.875 198.622,134.999 170.5,134.999L0,134.999C-0.778,132.977 0,130.666 0,128.5L0,0C0.257,-0.429 1.243,0.429 1.5,0Z" style="fill:rgb(254,254,254);"/>
        <path d="M93.46,85.158C80.511,90.078 75.561,91.485 68.538,92.7C45.801,96.633 32.641,113.542 32.151,118.433C31.225,127.659 -4.565,90.638 19.677,75.779C24.436,72.862 24.567,72.811 26.682,67.574C46.965,17.351 120.459,-18.931 150.141,29.72C159.461,44.995 160.222,59.424 160.247,59.564C160.872,63.159 180.397,60.974 188.221,69.746C202.546,85.806 160.366,103.44 155.647,101.009C153.496,99.901 158.506,81.826 103.474,85.113C98.357,85.418 98.333,86.82 93.46,85.158Z"/>
        <path d="M122.495,88.953C124.918,89.111 162.523,91.562 148.168,105.146C126.842,125.323 12.247,138.586 39.758,111.767C46.275,105.413 62.272,98.559 73.432,95.28C98.277,87.981 118.665,88.903 122.495,88.953Z"/>
        <path d="M146.96,38.476C144.708,76.031 93.524,60.745 105.187,31.372C112.402,13.2 144.288,12.722 146.96,38.476Z" style="fill:rgb(254,254,254);"/>
        <path d="M98.332,82.179C119.911,72.288 137.427,64.353 166.485,65.807C179.451,66.456 189.598,73.344 186.362,74.057C184.176,74.538 175.637,62.731 137.471,70.354C119.973,73.848 100.169,83.804 99.567,83.611C98.967,83.419 98.933,82.371 98.332,82.179Z" style="fill:rgb(215,215,215);"/>
        <path d="M67.728,85.817C105.282,77.779 102.953,70.208 140.509,61.885C142.284,61.492 142.514,63.827 139.441,64.306C113.169,68.399 87.815,86.437 69.501,87.428C66.901,87.569 67.808,85.975 67.728,85.817Z" style="fill:rgb(183,183,183);"/>
        <path d="M114.5,41.698C114.142,41.674 110.546,41.434 110.589,39.503C110.635,37.427 114.144,37.406 114.5,37.404C138.576,37.264 138.724,37.775 139.356,38.593C142.372,42.49 131.539,41.69 114.5,41.698Z"/>
        <path d="M130.5,50.064C119.53,50.057 107.871,51.054 110.893,46.801C111.764,45.575 138.959,44.62 139.606,47.468C140.375,50.852 131.999,50.046 130.5,50.064Z"/>
        <path d="M123.5,29.057C128.766,29.057 142.549,27.954 139.245,32.303C138.046,33.88 137.675,33.946 114.502,33.219C114.132,33.208 109.576,33.065 110.703,30.569C111.665,28.439 117.894,29.058 123.5,29.057Z"/>
    </g>
</svg>
